<?xml version="1.0" standalone="no"?>
<!DOCTYPE svg PUBLIC "-//W3C//DTD SVG 1.1//EN" "http://www.w3.org/Graphics/SVG/1.1/DTD/svg11.dtd" >
<svg xmlns="http://www.w3.org/2000/svg">
<metadata>
This is a custom SVG webfont generated by Font Squirrel.
Copyright   : Copyright c Mark Simonson 2005 All rights reserved
Designer    : Mark Simonson
Foundry URL : httpwwwmarksimonsoncom
</metadata>
<defs>
<font id="ProximaNovaExtraCondensedThin" horiz-adv-x="700" >
<font-face units-per-em="2048" ascent="1618" descent="-430" />
<missing-glyph horiz-adv-x="368" />
<glyph unicode=" "  horiz-adv-x="368" />
<glyph unicode="&#x09;" horiz-adv-x="368" />
<glyph unicode="&#xa0;" horiz-adv-x="368" />
<glyph unicode="!" horiz-adv-x="425" d="M145 49q0 27 20.5 46.5t47.5 19.5t47.5 -19.5t20.5 -46.5q0 -29 -19.5 -48t-48.5 -19t-48.5 19t-19.5 48zM170 1366h86l-23 -1036h-40z" />
<glyph unicode="&#x22;" horiz-adv-x="593" d="M127 1333.5q0 22.5 16.5 37.5t37 15t36.5 -15t16 -38l-30 -426h-45q-31 404 -31 426.5zM360 1333.5q0 22.5 15.5 37.5t38 15t38 -15t15.5 -38l-31 -426h-45q-31 404 -31 426.5z" />
<glyph unicode="#" horiz-adv-x="808" d="M37 391l12 60h158l108 464h-157l10 60h160l90 391h67l-90 -391h158l90 391h66l-91 -391h154l-10 -60h-158l-108 -464h159l-12 -60h-162l-90 -391h-67l94 391h-160l-90 -391h-68l93 391h-156zM272 451h156l111 464h-158z" />
<glyph unicode="$" horiz-adv-x="622" d="M55 92l49 53q33 -49 86.5 -78.5t106.5 -29.5h10v649q-74 74 -107.5 113t-70.5 119.5t-37 171.5q0 121 61.5 199.5t153.5 94.5v189h66v-187q104 -6 174 -81l-39 -52q-59 66 -135 72v-604q63 -68 99 -115t68.5 -130t32.5 -175q0 -117 -54 -203t-146 -112v-191h-66v180h-10 q-146 0 -242 117zM158 1090q0 -88 39 -158t110 -146v535q-63 -16 -106 -77.5t-43 -153.5zM373 53q61 27 98 92.5t37 155.5q0 164 -135 318v-566z" />
<glyph unicode="%" horiz-adv-x="1136" d="M74 1051q0 147 63.5 241t167.5 94q106 0 169 -94t63 -241q0 -145 -62.5 -238.5t-169.5 -93.5q-104 0 -167.5 93.5t-63.5 238.5zM141 1051q0 -117 44 -197t120 -80t120 80t44 197q0 119 -44 199.5t-120 80.5t-120 -80.5t-44 -199.5zM260 0l551 1366h68l-553 -1366h-66z M600 307q0 147 63.5 241.5t168 94.5t168 -94t63.5 -242q0 -145 -63.5 -238.5t-168 -93.5t-168 93.5t-63.5 238.5zM668 307q0 -117 44 -196.5t119.5 -79.5t119.5 79.5t44 196.5q0 119 -44 200t-119.5 81t-119.5 -81t-44 -200z" />
<glyph unicode="&#x26;" horiz-adv-x="733" d="M96 313q0 139 44 235.5t126 194.5q-70 193 -69 316q0 154 44 240.5t128 86.5q63 0 107 -67.5t44 -173.5q0 -86 -28.5 -163t-55 -116t-84.5 -108q-10 -14 -16 -21q41 -117 94 -229q53 -119 94 -195q41 125 78 328l62 -23q-41 -233 -101 -380l144 -238h-80l-95 166 q-92 -190 -217 -191q-98 0 -158.5 91t-60.5 247zM168 313q0 -137 41 -206.5t104 -69.5q98 0 183 199q-78 145 -113 225q-47 96 -94 215q-121 -166 -121 -363zM268 1059q0 -111 47 -258q72 88 108 163.5t36 180.5q0 90 -26.5 135t-63.5 45q-101 0 -101 -266z" />
<glyph unicode="'" horiz-adv-x="360" d="M127 1333.5q0 22.5 16.5 37.5t37 15t36.5 -15t16 -38l-30 -426h-45q-31 404 -31 426.5z" />
<glyph unicode="(" horiz-adv-x="342" d="M96 497.5q0 483.5 174 905.5l37 -12q-139 -444 -139 -893t139 -891l-37 -15q-174 422 -174 905.5z" />
<glyph unicode=")" horiz-adv-x="342" d="M35 -393l37 -15q174 422 174 905.5t-174 905.5l-37 -12q139 -444 139 -893t-139 -891z" />
<glyph unicode="*" horiz-adv-x="589" d="M41 1001l217 111l-217 111l31 53l204 -133l-12 243h62l-13 -243l205 133l31 -53l-217 -111l217 -111l-31 -53l-205 133l13 -243h-62l12 243l-204 -133z" />
<glyph unicode="+" horiz-adv-x="765" d="M59 659v62h291v319h66v-319h291v-62h-291v-331h-66v331h-291z" />
<glyph unicode="," horiz-adv-x="425" d="M117 -205q49 37 78.5 89.5t29.5 99.5q-10 -2 -14 -2q-29 0 -47.5 19t-18.5 48q0 27 18.5 46.5t47.5 19.5q33 0 55.5 -29t22.5 -80q0 -74 -37 -142.5t-90 -105.5z" />
<glyph unicode="-" horiz-adv-x="471" d="M61 465v61h349v-61h-349z" />
<glyph unicode="." horiz-adv-x="425" d="M145 49q0 27 20.5 46.5t47.5 19.5t47.5 -19.5t20.5 -46.5q0 -29 -19.5 -48t-48.5 -19t-48.5 19t-19.5 48z" />
<glyph unicode="/" horiz-adv-x="362" d="M0 -41l301 1448h61l-301 -1448h-61z" />
<glyph unicode="0" horiz-adv-x="772" d="M109 682q0 705 278 704q276 0 277 -704q0 -707 -277 -707q-278 0 -278 707zM180 682q0 -80 2 -138.5t8.5 -141.5t19.5 -141t35.5 -112.5t58.5 -83t83 -28.5q55 0 95 45t60.5 106.5t32 157.5t14.5 168t3 168t-3 168t-14.5 168t-32 157.5t-60.5 105.5t-95 44 q-68 0 -113 -60.5t-63 -169t-24.5 -199.5t-6.5 -214z" />
<glyph unicode="1" horiz-adv-x="497" d="M25 1083l264 283h61v-1366h-65v1272l-215 -236z" />
<glyph unicode="2" horiz-adv-x="712" d="M104 1165q49 115 106.5 168t151.5 53q111 0 176.5 -84.5t65.5 -218.5q0 -141 -76.5 -338.5t-334.5 -683.5h411v-61h-481v57q268 518 338.5 699.5t70.5 326.5q0 106 -48 174t-122 68q-127 0 -194 -188z" />
<glyph unicode="3" horiz-adv-x="710" d="M74 211l63 27q74 -201 199 -201q195 0 194 328q0 170 -60 240.5t-138 70.5q-57 0 -70 -2v65q16 -2 70 -2q82 0 133 74t51 211q0 303 -178 303q-70 0 -112 -48t-74 -136l-64 26q33 102 101.5 160.5t148.5 58.5q115 0 183.5 -88t68.5 -268q0 -113 -45 -203t-127 -120 q76 -18 130 -114.5t54 -230.5q0 -176 -63.5 -281.5t-202.5 -105.5q-92 0 -159.5 67t-102.5 169z" />
<glyph unicode="4" horiz-adv-x="634" d="M25 399v68l387 899h86v-905h112v-62h-112v-399h-66v399h-407zM88 461h344v801z" />
<glyph unicode="5" horiz-adv-x="712" d="M96 211l66 22q27 -100 72 -148t122 -48q88 0 137.5 109.5t49.5 259.5q0 373 -170 372q-57 0 -98.5 -29.5t-90.5 -111.5l-55 33v696h438v-61h-372v-582q70 117 178 117q113 0 177 -112t64 -322q0 -174 -70.5 -302.5t-187.5 -128.5q-109 0 -163 58.5t-97 177.5z" />
<glyph unicode="6" horiz-adv-x="716" d="M109 682q0 143 10 252.5t38.5 220.5t90.5 171q61 60 151 60q78 0 137.5 -52t88.5 -144l-58 -31q-51 166 -168 166q-219 0 -219 -663v-39q29 90 80 149t125 59q109 0 176.5 -109.5t67.5 -320.5q0 -174 -60.5 -300t-191.5 -126q-84 0 -140.5 59.5t-83 170t-35.5 221.5 t-9 256zM182 504q6 -467 195 -467q180 0 180 364q0 369 -174 369q-131 0 -201 -266z" />
<glyph unicode="7" horiz-adv-x="569" d="M49 1305v61h471v-45l-291 -1321h-67l289 1305h-402z" />
<glyph unicode="8" horiz-adv-x="712" d="M98 315q0 127 64.5 232.5t140.5 157.5q-70 49 -130 141t-60 211q0 158 67.5 243.5t175.5 85.5q111 0 177.5 -86t66.5 -243q0 -117 -59.5 -210t-128.5 -142q74 -53 138 -158t64 -230q0 -158 -67.5 -250t-190.5 -92q-125 0 -191.5 91t-66.5 249zM170 315q0 -131 51 -204.5 t135 -73.5t135.5 73.5t51.5 206.5q0 98 -41 185.5t-82 128.5t-64 45q-23 -4 -63.5 -45t-81.5 -129.5t-41 -186.5zM184 1057q0 -72 22.5 -135.5t55.5 -101.5t56.5 -58.5t37.5 -26.5q14 6 38 26.5t56.5 58.5t55 101.5t22.5 135.5q0 125 -43 196.5t-129 71.5t-129 -71.5 t-43 -196.5z" />
<glyph unicode="9" horiz-adv-x="716" d="M88 963q0 174 60.5 300t191.5 126q84 0 140.5 -59.5t83 -170t35.5 -221.5t9 -256q0 -143 -10 -253t-39 -220.5t-90 -171t-152 -60.5q-78 0 -137 52.5t-88 144.5l58 31q51 -166 167 -166q219 0 220 663v39q-29 -90 -80 -149.5t-125 -59.5q-109 0 -176.5 110t-67.5 321z M160 963q0 -369 174 -369q131 0 201 266q-6 467 -195 467q-180 1 -180 -364z" />
<glyph unicode=":" horiz-adv-x="425" d="M145 49q0 27 20.5 46.5t47.5 19.5t47.5 -19.5t20.5 -46.5q0 -29 -19.5 -48t-48.5 -19t-48.5 19t-19.5 48zM145 936q0 27 19.5 47.5t48.5 20.5t48.5 -20.5t19.5 -47.5t-20.5 -46.5t-47.5 -19.5t-47.5 19.5t-20.5 46.5z" />
<glyph unicode=";" horiz-adv-x="425" d="M117 -205q49 37 78.5 89.5t29.5 99.5q-10 -2 -14 -2q-29 0 -47.5 19t-18.5 48q0 27 18.5 46.5t47.5 19.5q33 0 55.5 -29t22.5 -80q0 -74 -37 -142.5t-90 -105.5zM145 936q0 27 19.5 47.5t48.5 20.5t48.5 -20.5t19.5 -47.5t-20.5 -46.5t-47.5 -19.5t-47.5 19.5t-20.5 46.5 z" />
<glyph unicode="&#x3c;" horiz-adv-x="765" d="M59 664v43l648 323v-74l-564 -272l564 -270v-74z" />
<glyph unicode="=" horiz-adv-x="765" d="M59 451v61h648v-61h-648zM59 856v62h648v-62h-648z" />
<glyph unicode="&#x3e;" horiz-adv-x="765" d="M59 340v74l564 270l-564 272v74l648 -323v-43z" />
<glyph unicode="?" horiz-adv-x="618" d="M98 1305q76 84 199 84q106 0 181 -84t75 -201q0 -98 -38 -184t-83 -136.5t-83 -123t-38 -150.5q0 -76 47 -123l-55 -41q-57 72 -57 164q0 88 38 165t83 126t82.5 130t37.5 173q0 84 -53 153.5t-137 69.5q-86 0 -160 -74zM250 49q0 27 20.5 46.5t47 19.5t47 -19.5 t20.5 -46.5q0 -29 -20.5 -48t-47 -19t-47 19t-20.5 48z" />
<glyph unicode="@" horiz-adv-x="1165" d="M72 442q0 217 88 417t237.5 325t315.5 125q174 0 277.5 -133.5t103.5 -372.5q0 -264 -86 -446.5t-185 -182.5q-63 0 -98 42t-35 106v12q-96 -160 -211 -160q-74 0 -127 58.5t-53 185.5q0 141 43 278.5t129 232.5t191 95q57 0 95 -45t50 -115l24 123h62l-129 -612 q-6 -31 -6 -45v-15q0 -48 12 -65q14 -20 49 -21q37 0 85 60.5t89 200t41 313.5q0 215 -89 329.5t-232 114.5q-150 0 -284 -117.5t-212 -304t-78 -383.5q0 -244 111.5 -385t281.5 -141q139 0 263 117l28 -47q-139 -129 -299 -129q-199 0 -325.5 158.5t-126.5 426.5zM367 418 q0 -188 112 -189q49 0 95.5 34t71 66.5t63.5 94.5l82 375q-31 170 -129 170q-88 0 -159 -94.5t-103.5 -217t-32.5 -239.5z" />
<glyph unicode="A" horiz-adv-x="638" d="M25 0l256 1366h77l256 -1366h-67l-66 367h-323l-66 -367h-67zM168 428h303l-152 842z" />
<glyph unicode="B" horiz-adv-x="737" d="M147 0v1366h197q123 0 194.5 -91t71.5 -257q0 -246 -159 -313q78 -14 128 -113.5t50 -222.5q0 -178 -70 -273.5t-207 -95.5h-205zM213 61h139q205 0 205 306q0 131 -49 218t-156 87h-139v-611zM213 733h131q195 0 195 285q0 287 -195 287h-131v-572z" />
<glyph unicode="C" horiz-adv-x="731" d="M109 682q0 207 26.5 358.5t95.5 250t175 98.5q162 0 231 -211l-62 -25q-31 88 -67.5 131t-101.5 43q-115 0 -170.5 -178t-55.5 -467t55.5 -467t170.5 -178q72 0 110.5 55t65.5 160l61 -25q-59 -252 -237 -252q-106 0 -175 98.5t-95.5 250t-26.5 358.5z" />
<glyph unicode="D" horiz-adv-x="790" d="M147 0v1366h191q176 0 260 -184.5t84 -499.5q0 -317 -84 -499.5t-260 -182.5h-191zM213 61h125q272 0 272 621q0 623 -272 623h-125v-1244z" />
<glyph unicode="E" horiz-adv-x="675" d="M147 0v1366h431v-61h-365v-572h350v-61h-350v-611h365v-61h-431z" />
<glyph unicode="F" horiz-adv-x="675" d="M147 0v1366h431v-61h-365v-572h350v-61h-350v-672h-66z" />
<glyph unicode="G" horiz-adv-x="768" d="M109 682q0 330 72.5 518.5t224.5 188.5q162 0 231 -211l-62 -25q-31 88 -67.5 131t-101.5 43q-119 0 -172.5 -177t-53.5 -468q0 -289 53.5 -467t172.5 -178q115 0 165 104v453h-206v61h272v-530q-78 -150 -231 -150q-152 0 -224.5 189.5t-72.5 517.5z" />
<glyph unicode="H" horiz-adv-x="808" d="M147 0v1366h66v-633h383v633h66v-1366h-66v672h-383v-672h-66z" />
<glyph unicode="I" horiz-adv-x="360" d="M147 0v1366h66v-1366h-66z" />
<glyph unicode="J" horiz-adv-x="610" d="M12 86l49 47q66 -96 162 -96q174 0 174 211v1118h66v-1118q0 -272 -240 -273q-125 0 -211 111z" />
<glyph unicode="K" horiz-adv-x="761" d="M147 0v1366h66v-778l405 778h80l-356 -653l383 -713h-80l-336 653l-96 -180v-473h-66z" />
<glyph unicode="L" horiz-adv-x="626" d="M147 0v1366h66v-1305h365v-61h-431z" />
<glyph unicode="M" horiz-adv-x="1040" d="M147 0v1366h107l266 -1141l268 1141h105v-1366h-66v1247l-288 -1247h-37l-289 1247v-1247h-66z" />
<glyph unicode="N" horiz-adv-x="808" d="M147 0v1366h66l383 -1165v1165h66v-1366h-66l-383 1178v-1178h-66z" />
<glyph unicode="O" horiz-adv-x="811" d="M109 682q0 203 25.5 353.5t94 252t177 101.5t177 -101.5t94 -252t25.5 -353.5t-25.5 -353.5t-94 -252t-177 -101.5t-177 101.5t-94 252t-25.5 353.5zM180 682q0 -283 54.5 -464t171 -181t171 181t54.5 464q0 285 -54.5 465t-171 180t-171 -180t-54.5 -465z" />
<glyph unicode="P" horiz-adv-x="698" d="M147 0v1366h205q137 0 207 -109.5t70 -277.5t-70 -277.5t-207 -109.5h-139v-592h-66zM213 653h137q102 0 154.5 89t52.5 236.5t-52 237t-155 89.5h-137v-652z" />
<glyph unicode="Q" horiz-adv-x="811" d="M109 682q0 203 25.5 353.5t94 252t177 101.5t177 -101.5t94 -252t25.5 -353.5q0 -451 -127 -616l43 -113l-59 -25l-33 86q-55 -39 -120 -39q-109 0 -177.5 101.5t-94 252t-25.5 353.5zM180 682q0 -283 54.5 -464t171.5 -181q55 0 96 41l-125 332l61 24l109 -291 q84 168 84 539q0 285 -54.5 465t-171 180t-171 -180t-54.5 -465z" />
<glyph unicode="R" horiz-adv-x="749" d="M147 0v1366h205q125 0 201 -102.5t76 -284.5q0 -170 -59.5 -262t-141.5 -115l213 -602h-74l-202 592h-152v-592h-66zM213 653h137q102 0 154.5 89t52.5 236.5t-52 237t-155 89.5h-137v-652z" />
<glyph unicode="S" horiz-adv-x="653" d="M55 92l49 53q33 -49 86.5 -78.5t106.5 -29.5q88 0 149.5 72.5t61.5 191.5q0 102 -43 186t-105 146l-121 122q-60 60 -103.5 146t-43.5 189q0 135 76 217t180 82q121 0 199 -84l-39 -52q-66 74 -160 74q-78 0 -134 -65.5t-56 -171.5q0 -86 43 -163t104 -137l122 -126 q60 -66 103 -159t43 -204q0 -139 -76.5 -232.5t-199.5 -93.5q-146 0 -242 117z" />
<glyph unicode="T" horiz-adv-x="587" d="M37 1305v61h514v-61h-225v-1305h-66v1305h-223z" />
<glyph unicode="U" horiz-adv-x="811" d="M147 315v1051h66v-1051q0 -279 192.5 -278.5t192.5 278.5v1051h66v-1051q0 -340 -258.5 -340t-258.5 340z" />
<glyph unicode="V" horiz-adv-x="638" d="M25 1366h67l227 -1270l228 1270h67l-256 -1366h-77z" />
<glyph unicode="W" horiz-adv-x="1003" d="M49 1366h72l172 -1237l174 1237h70l174 -1237l172 1237h71l-204 -1366h-78l-170 1202l-170 -1202h-78z" />
<glyph unicode="X" horiz-adv-x="630" d="M16 0l263 692l-248 674h75l209 -596l209 596h76l-248 -672l262 -694h-73l-226 618l-225 -618h-74z" />
<glyph unicode="Y" horiz-adv-x="659" d="M4 1366h74l252 -694l256 694h69l-293 -774v-592h-65v592z" />
<glyph unicode="Z" horiz-adv-x="632" d="M74 0v63l403 1242h-403v61h471v-61l-406 -1244h420v-61h-485z" />
<glyph unicode="[" horiz-adv-x="331" d="M70 -389v1778h227v-62h-166v-1655h166v-61h-227z" />
<glyph unicode="\" horiz-adv-x="362" d="M2 1407h61l302 -1448h-62z" />
<glyph unicode="]" horiz-adv-x="331" d="M35 -328h166v1655h-166v62h227v-1778h-227v61z" />
<glyph unicode="^" horiz-adv-x="663" d="M39 682l266 684h53l267 -684h-66l-227 621l-228 -621h-65z" />
<glyph unicode="_" horiz-adv-x="571" d="M-6 -82h584v-61h-584v61z" />
<glyph unicode="`" horiz-adv-x="243" d="M0 1434h84l160 -295h-49z" />
<glyph unicode="&#x2cb;" horiz-adv-x="243" d="M0 1434h84l160 -295h-49z" />
<glyph unicode="a" d="M84 305.5q0 145.5 65.5 237.5t176.5 92q119 0 180 -129v207q0 127 -35 186t-123 59q-104 0 -190 -110l-37 47q111 119 227 119q121 0 170 -72t49 -227v-715h-61v109q-63 -133 -180 -134q-111 0 -176.5 92.5t-65.5 238zM152 305q0 -115 44 -194.5t130 -79.5q129 0 180 149 v246q-51 154 -180 154q-86 0 -130 -80t-44 -195z" />
<glyph unicode="b" horiz-adv-x="718" d="M133 0v1366h62v-524q29 84 79 128t101 44q127 0 187.5 -143.5t60.5 -376.5q0 -152 -24 -264.5t-81 -183.5t-143 -71q-49 0 -99.5 46.5t-80.5 121.5v-143h-62zM195 236q18 -82 70 -143.5t110 -61.5q180 0 180 463q0 465 -180 464q-55 0 -108.5 -63.5t-71.5 -144.5v-514z " />
<glyph unicode="c" horiz-adv-x="602" d="M96 495.5q0 227.5 71 373t208 145.5q94 0 172 -92l-43 -43q-59 80 -131 79q-111 0 -160 -133t-49 -329.5t49 -330.5t160 -134q74 0 131 80l43 -43q-68 -92 -172 -93q-137 0 -208 146.5t-71 374z" />
<glyph unicode="d" horiz-adv-x="718" d="M96 494q0 233 60.5 376.5t187.5 143.5q51 0 101.5 -44t78.5 -128v524h62v-1366h-62v143q-31 -76 -81 -122t-99 -46q-86 0 -143.5 71t-81 183.5t-23.5 264.5zM164 494q0 -463 180 -463q57 0 109.5 61.5t70.5 143.5v514q-18 82 -70.5 145t-109.5 63q-180 1 -180 -464z" />
<glyph unicode="e" horiz-adv-x="708" d="M96 496q0 231 64.5 374.5t199.5 143.5q139 0 202 -144.5t63 -373.5v-21h-461q0 -205 60.5 -324.5t170.5 -119.5q98 0 162 139l57 -29q-82 -166 -219 -166q-154 0 -226.5 142.5t-72.5 378.5zM164 530h393q0 109 -15.5 198t-61.5 159.5t-120 70.5q-55 0 -96 -42 t-61.5 -109.5t-29.5 -136t-9 -140.5z" />
<glyph unicode="f" horiz-adv-x="413" d="M57 934v55h103v219q0 80 44 129t117.5 49t114.5 -55l-41 -47q-33 47 -73 47q-100 0 -101 -123v-219h144v-55h-144v-934h-61v934h-103z" />
<glyph unicode="g" horiz-adv-x="718" d="M96 492q0 233 60.5 377.5t187.5 144.5q51 0 101.5 -44t78.5 -128v147h62v-1077q0 -313 -250 -313q-135 0 -225 96l41 53q76 -94 184 -94q188 0 188 258v231q-31 -76 -81 -124t-99 -48q-127 0 -187.5 142.5t-60.5 378.5zM164 492q0 -465 180 -465q57 0 109.5 63.5 t70.5 145.5v514q-18 82 -70.5 145t-109.5 63q-180 1 -180 -466z" />
<glyph unicode="h" d="M133 0v1366h62v-524q37 76 92 124t119 48q86 0 123.5 -48t37.5 -159v-807h-61v807q0 152 -109 151q-61 0 -116.5 -56t-85.5 -136v-766h-62z" />
<glyph unicode="i" horiz-adv-x="327" d="M104 1218.5q0 24.5 18.5 42t41.5 17.5q25 0 42 -17.5t17 -42t-17.5 -42t-41.5 -17.5q-23 0 -41.5 17.5t-18.5 42zM133 0v989h62v-989h-62z" />
<glyph unicode="j" horiz-adv-x="327" d="M-53 -324l55 29q20 -51 61 -51q70 0 70 149v1186h62v-1186q0 -205 -132 -204q-83 -1 -116 77zM104 1218.5q0 24.5 18.5 42t41.5 17.5q25 0 42 -17.5t17 -42t-17.5 -42t-41.5 -17.5q-23 0 -41.5 17.5t-18.5 42z" />
<glyph unicode="k" horiz-adv-x="665" d="M133 0v1366h62v-1001l366 624h64l-263 -446l254 -543h-65l-221 496l-135 -226v-270h-62z" />
<glyph unicode="l" horiz-adv-x="327" d="M133 0v1366h62v-1366h-62z" />
<glyph unicode="m" horiz-adv-x="1073" d="M133 0v989h62v-147q37 76 92 124t119 48q76 0 117.5 -46t41.5 -126q35 74 92.5 123t120.5 49q162 0 162 -207v-807h-61v807q0 152 -109 151q-61 0 -117.5 -56t-85.5 -136v-766h-61v807q0 152 -109 151q-61 0 -116.5 -56t-85.5 -136v-766h-62z" />
<glyph unicode="n" d="M133 0v989h62v-147q37 76 92 124t119 48q84 0 122.5 -50.5t38.5 -156.5v-807h-61v807q0 152 -109 151q-61 0 -116.5 -56t-85.5 -136v-766h-62z" />
<glyph unicode="o" horiz-adv-x="720" d="M96 495.5q0 145.5 23.5 256t85 186.5t155.5 76q139 0 202 -145.5t63 -373t-62.5 -374t-202.5 -146.5q-94 0 -155.5 76t-85 187.5t-23.5 257zM164 496q0 -465 196.5 -465t196.5 465q0 463 -196.5 463t-196.5 -463z" />
<glyph unicode="p" horiz-adv-x="718" d="M133 -377v1366h62v-143q31 76 81 122t99 46q86 0 143 -71t81 -183.5t24 -263.5q0 -233 -60.5 -377t-187.5 -144q-51 0 -101.5 44t-78.5 128v-524h-62zM195 240q18 -82 71 -145.5t109 -63.5q180 0 180 465q0 463 -180 462q-57 0 -109.5 -61t-70.5 -143v-514z" />
<glyph unicode="q" horiz-adv-x="718" d="M96 496q0 152 23.5 264t81 183t143.5 71q49 0 99.5 -46t80.5 -122v143h62v-1366h-62v524q-29 -84 -79 -128t-101 -44q-127 0 -187.5 144t-60.5 377zM164 496q0 -465 180 -465q57 0 109.5 63.5t70.5 145.5v514q-18 82 -70.5 143t-109.5 61q-180 1 -180 -462z" />
<glyph unicode="r" horiz-adv-x="464" d="M133 0v989h62v-174q41 96 95 144.5t140 48.5v-74q-10 2 -31 2q-68 0 -121 -56.5t-83 -140.5v-739h-62z" />
<glyph unicode="s" horiz-adv-x="569" d="M57 96l45 43q74 -109 179 -108q66 0 113.5 51t47.5 133q0 76 -36.5 136.5t-89.5 102.5l-104 86q-52 44 -89 109.5t-37 149.5q0 94 62.5 154.5t152.5 60.5q117 0 191 -105l-41 -41q-57 90 -150 90q-70 0 -112 -46t-42 -113q0 -72 37 -129.5t89 -100.5l105 -88 q52 -45 89 -112.5t37 -153.5q0 -106 -65.5 -173t-157.5 -67q-140 0 -224 121z" />
<glyph unicode="t" horiz-adv-x="434" d="M53 934v55h107v271h61v-271h144v-55h-144v-778q0 -66 15.5 -95.5t54.5 -29.5q43 0 74 43l43 -37q-51 -61 -117 -62q-131 0 -131 181v778h-107z" />
<glyph unicode="u" d="M133 182v807h62v-807q0 -152 108 -151q63 0 118.5 54t84.5 134v770h61v-989h-61v143q-80 -168 -211 -168q-86 0 -124 48t-38 159z" />
<glyph unicode="v" horiz-adv-x="571" d="M33 989h67l185 -917l186 917h68l-220 -989h-71z" />
<glyph unicode="w" horiz-adv-x="991" d="M41 989h68l167 -893l183 893h73l183 -893l168 893h67l-205 -989h-61l-188 901l-189 -901h-61z" />
<glyph unicode="x" horiz-adv-x="585" d="M41 0l217 502l-205 487h68l172 -428l172 428h67l-204 -487l217 -502h-68l-184 444l-184 -444h-68z" />
<glyph unicode="y" horiz-adv-x="571" d="M33 989h67l185 -907l186 907h68l-281 -1241q-18 -82 -52 -115.5t-87 -33.5q-39 0 -64 14l15 55q20 -14 49 -14q37 0 55.5 23.5t34.5 86.5l47 199z" />
<glyph unicode="z" horiz-adv-x="563" d="M84 0v55l324 879h-324v55h387v-55l-319 -879h327v-55h-395z" />
<glyph unicode="{" horiz-adv-x="382" d="M14 469v61q51 0 79 43t28 105v520q0 84 49 137.5t113 53.5h65v-62h-65q-43 0 -72 -36t-29 -93v-520q0 -139 -92 -178q92 -39 92 -178v-521q0 -55 29 -92t72 -37h65v-61h-65q-63 0 -112.5 53t-49.5 137v521q0 61 -28 104t-79 43z" />
<glyph unicode="|" horiz-adv-x="356" d="M147 -41v1448h62v-1448h-62z" />
<glyph unicode="}" horiz-adv-x="382" d="M35 -328h65q43 0 72 37t29 92v521q0 139 92 178q-92 39 -92 178v520q0 57 -29 93t-72 36h-65v62h65q63 0 112.5 -53.5t49.5 -137.5v-520q0 -61 27.5 -104.5t79.5 -43.5v-61q-51 0 -79 -43t-28 -104v-521q0 -84 -49 -137t-113 -53h-65v61z" />
<glyph unicode="~" horiz-adv-x="770" d="M57 893q6 94 15.5 160.5t30 145.5t60.5 121t95 42q63 0 101 -64.5t48.5 -143.5t36 -143.5t68.5 -64.5q63 0 90 93.5t49 326.5l62 -6q-6 -76 -11.5 -128t-19.5 -124t-33.5 -115t-55.5 -74.5t-81 -31.5q-63 0 -101 64.5t-48.5 142t-36 142t-68.5 64.5q-63 0 -90 -93 t-49 -324z" />
<glyph unicode="&#xa1;" horiz-adv-x="425" d="M145 940q0 27 19.5 47.5t48.5 20.5t48.5 -20.5t19.5 -47.5t-20.5 -46.5t-47.5 -19.5t-47.5 19.5t-20.5 46.5zM170 -377l23 1036h40l23 -1036h-86z" />
<glyph unicode="&#xa2;" horiz-adv-x="602" d="M96 496q0 213 60.5 354t181.5 160v147h61v-145q74 -6 148 -90l-43 -43q-51 66 -105 77v-923q57 10 105 78l43 -43q-63 -84 -148 -91v-182h-61v185q-121 18 -181.5 160.5t-60.5 355.5zM164 496q0 -422 174 -461v919q-174 -42 -174 -458z" />
<glyph unicode="&#xa3;" d="M61 547v61h175q-4 8 -41 76t-48.5 96.5t-27 96t-15.5 137.5q0 154 69 263t196 109q176 0 235 -200l-51 -33q-29 80 -71 126t-113 46q-78 0 -137.5 -86t-59.5 -229q0 -88 18.5 -152.5t64.5 -148.5t54 -101h160v-61h-137q20 -66 20 -133q0 -88 -43 -179.5t-106 -146.5 q39 23 80 23q47 0 110.5 -37t95.5 -37q39 0 76 23.5t56 54.5l43 -49q-23 -37 -74 -64t-103 -27q-66 0 -120 41t-91 41q-59 0 -147 -71l-39 59q90 61 143.5 162.5t53.5 208.5q0 63 -25 131h-201z" />
<glyph unicode="&#xa4;" horiz-adv-x="1069" d="M74 281l114 114q-102 129 -102 287q0 162 102 287l-114 116l57 58l117 -115q121 102 287 102q162 0 286 -102l115 115l59 -58l-114 -116q102 -125 102 -287q0 -158 -102 -287l114 -114l-59 -60l-115 117q-123 -104 -286.5 -104.5t-286.5 104.5l-117 -117zM184 682 q0 -145 102.5 -247.5t248 -102.5t248 102.5t102.5 247.5t-102.5 247.5t-248 102.5t-248 -102.5t-102.5 -247.5z" />
<glyph unicode="&#xa5;" horiz-adv-x="659" d="M4 1366h74l252 -694l256 694h69l-270 -713h233v-61h-256v-266h256v-62h-256v-264h-65v264h-258v62h258v266h-258v61h233z" />
<glyph unicode="&#xa6;" horiz-adv-x="356" d="M147 -41v647h62v-647h-62zM147 760v647h62v-647h-62z" />
<glyph unicode="&#xa7;" horiz-adv-x="569" d="M57 -45l45 43q72 -109 179 -109q68 0 114.5 55.5t46.5 129.5q0 76 -36.5 135t-89.5 102l-104 87q-52 44 -89 109.5t-37 149.5q0 74 46 137.5t134 75.5q-100 78 -140 147.5t-40 153.5q0 96 62.5 155.5t142.5 59.5q117 0 201 -104l-46 -41q-39 53 -72.5 71.5t-82.5 18.5 q-61 0 -102.5 -46t-41.5 -114q0 -70 37 -127t89 -100l105 -88q52 -45 89 -113.5t37 -154.5q0 -168 -150 -228q150 -129 150 -286q0 -98 -62.5 -169t-160.5 -71q-74 0 -123.5 27.5t-100.5 93.5zM147 657q0 -72 38 -131t126 -129q131 63 131 191q0 29 -4 54.5t-14 48 t-18.5 37.5t-24.5 33.5t-23.5 26t-25.5 23.5l-19 18q-166 -25 -166 -172z" />
<glyph unicode="&#xa8;" horiz-adv-x="516" d="M76 1224.5q0 22.5 17.5 40t40 17.5t39.5 -17.5t17 -40t-17 -40t-39.5 -17.5t-40 17.5t-17.5 40zM326 1224.5q0 22.5 17 40t40 17.5t40 -17.5t17 -40t-17 -40t-40 -17.5t-40 17.5t-17 40z" />
<glyph unicode="&#xa9;" horiz-adv-x="1593" d="M90 684q0 291 207 499t500 208t499.5 -208t206.5 -499t-206.5 -499t-499.5 -208t-500 208t-207 499zM143 684q0 -268 192.5 -460.5t461 -192.5t461 192.5t192.5 460.5t-192.5 460.5t-461 192.5t-461 -192.5t-192.5 -460.5zM371 684q0 188 123.5 315t304 127t293.5 -131 l-41 -41q-39 53 -109 85t-143 32q-150 0 -259.5 -107.5t-109.5 -279.5q0 -164 110.5 -274.5t258.5 -110.5q74 0 143.5 33t108.5 86l41 -41q-115 -133 -293 -133t-303 128t-125 312z" />
<glyph unicode="&#xaa;" horiz-adv-x="534" d="M68 866.5q0 96.5 46 154.5t124 58q86 0 133 -84v129q0 147 -113 148q-76 0 -135 -76l-31 47q78 84 172 84q92 0 128 -55t36 -176v-428h-57v69q-47 -86 -133 -86q-78 0 -124 59.5t-46 156zM127 866.5q0 -71.5 30.5 -121t88.5 -49.5q88 0 125 95v149q-37 94 -125 94 q-57 0 -88 -48t-31 -119.5z" />
<glyph unicode="&#xab;" horiz-adv-x="559" d="M61 498l185 362h67l-184 -362l184 -369h-67zM246 498l184 362h68l-185 -362l185 -369h-68z" />
<glyph unicode="&#xac;" horiz-adv-x="765" d="M59 856v62h648v-467h-66v405h-582z" />
<glyph unicode="&#xad;" horiz-adv-x="471" d="M61 465v61h349v-61h-349z" />
<glyph unicode="&#xae;" horiz-adv-x="1011" d="M72 952.5q0 180.5 127 307t307 126.5q182 0 308 -125.5t126 -308.5q0 -180 -127 -307t-307 -127t-307 127t-127 307.5zM125 952q0 -158 111.5 -269.5t269.5 -111.5t269.5 112t111.5 269q0 160 -111.5 270.5t-269.5 110.5t-269.5 -110.5t-111.5 -270.5zM342 702v498h203 q63 0 107 -42t44 -109q0 -72 -46 -110t-81 -38l133 -199h-75l-129 197h-97v-197h-59zM401 956h144q33 0 61.5 28t28.5 65q0 41 -28.5 68.5t-61.5 27.5h-144v-189z" />
<glyph unicode="&#xaf;" horiz-adv-x="491" d="M0 1210v56h492v-56h-492z" />
<glyph unicode="&#x203e;" horiz-adv-x="491" d="M0 1210v56h492v-56h-492z" />
<glyph unicode="&#xb0;" horiz-adv-x="559" d="M53 1159q0 94 65.5 160.5t160 66.5t161 -66.5t66.5 -160.5t-66.5 -159.5t-161 -65.5t-160 65.5t-65.5 159.5zM115 1159.5q0 -67.5 48 -116t115.5 -48.5t116.5 48.5t49 116t-49 116.5t-116.5 49t-115.5 -49t-48 -116.5z" />
<glyph unicode="&#xb1;" horiz-adv-x="765" d="M59 123v61h648v-61h-648zM59 659v62h291v319h66v-319h291v-62h-291v-331h-66v331h-291z" />
<glyph unicode="&#xb2;" horiz-adv-x="491" d="M61 1563q68 131 189 131q80 0 130 -53.5t50 -143.5q0 -86 -54 -192.5t-235 -389.5h291v-53h-362v49q195 303 246 401.5t51 184.5q0 66 -33 104.5t-84 38.5q-94 0 -141 -110z" />
<glyph unicode="&#xb3;" horiz-adv-x="491" d="M51 987l49 31q49 -117 142 -117q133 0 133 182q0 94 -41 135.5t-96 41.5q-41 0 -50 -3v56q10 -2 48 -2q57 0 94 42t37 120q0 168 -123 167q-86 0 -135 -106l-50 31q29 59 78 94t107 35q82 0 133 -54.5t51 -160.5q0 -68 -34 -122t-87 -71q51 -12 91 -68.5t40 -136.5 q0 -104 -49 -168.5t-145 -64.5q-134 0 -193 139z" />
<glyph unicode="&#xb4;" horiz-adv-x="243" d="M0 1139l160 295h84l-195 -295h-49z" />
<glyph unicode="&#xb5;" d="M133 -377v1366h62v-807q0 -156 108 -155q61 0 116.5 56t86.5 136v770h61v-989h-61v143q-80 -168 -211 -168q-63 0 -100 25v-377h-62z" />
<glyph unicode="&#x3bc;" d="M133 -377v1366h62v-807q0 -156 108 -155q61 0 116.5 56t86.5 136v770h61v-989h-61v143q-80 -168 -211 -168q-63 0 -100 25v-377h-62z" />
<glyph unicode="&#xb6;" horiz-adv-x="919" d="M55 1013.5q0 145.5 103.5 249t249.5 103.5h323v-1571h-61v1510h-201v-1510h-61v867q-145 0 -249 103t-104 248.5z" />
<glyph unicode="&#xb7;" horiz-adv-x="425" d="M145 501.5q0 26.5 20.5 46t47.5 19.5t47.5 -19.5t20.5 -46t-19.5 -47t-48.5 -20.5t-48.5 20.5t-19.5 47z" />
<glyph unicode="&#x2219;" horiz-adv-x="425" d="M145 501.5q0 26.5 20.5 46t47.5 19.5t47.5 -19.5t20.5 -46t-19.5 -47t-48.5 -20.5t-48.5 20.5t-19.5 47z" />
<glyph unicode="&#xb8;" horiz-adv-x="309" d="M0 -326l27 54q57 -55 116 -56q43 0 75 28t32 73q0 82 -68 82q-33 0 -63 -31l-43 24l63 175h62l-56 -144q23 20 60 21q43 0 73.5 -35t30.5 -92q0 -66 -48 -111t-118 -45q-75 0 -143 57z" />
<glyph unicode="&#xb9;" horiz-adv-x="389" d="M41 1501l170 180h55v-819h-61v737l-127 -137z" />
<glyph unicode="&#xba;" horiz-adv-x="557" d="M78 989.5q0 145.5 50 241.5t150.5 96t150.5 -96t50 -241.5t-50 -242t-150.5 -96.5t-150.5 96.5t-50 242zM139 989q0 -121 33 -202.5t107 -81.5q139 0 139 284q0 283 -139 283q-74 0 -107 -81t-33 -202z" />
<glyph unicode="&#xbb;" horiz-adv-x="559" d="M61 129l185 369l-185 362h68l184 -362l-184 -369h-68zM246 129l184 369l-184 362h67l185 -362l-185 -369h-67z" />
<glyph unicode="&#xbc;" horiz-adv-x="1052" d="M41 1186l170 180h55v-819h-61v737l-127 -137zM211 0l551 1366h67l-553 -1366h-65zM602 231v56l260 532h76v-534h78v-54h-78v-231h-59v231h-277zM657 285h222v454z" />
<glyph unicode="&#xbd;" horiz-adv-x="1114" d="M41 1186l170 180h55v-819h-61v737l-127 -137zM211 0l551 1366h67l-553 -1366h-65zM684 700q68 131 188 131q80 0 130.5 -53t50.5 -143q0 -86 -54.5 -192.5t-234.5 -389.5h291v-53h-363v49q195 303 246 401.5t51 184.5q0 66 -32.5 104.5t-84.5 38.5q-94 0 -141 -110z" />
<glyph unicode="&#xbe;" horiz-adv-x="1126" d="M51 672l49 30q49 -117 142 -116q133 0 133 182q0 94 -41 135t-96 41q-41 0 -50 -2v55q10 -2 48 -2q57 0 94 42t37 120q0 168 -123 168q-86 0 -135 -106l-50 30q29 59 78 94t107 35q82 0 133 -54t51 -161q0 -68 -34 -122t-87 -70q51 -12 91 -68.5t40 -136.5 q0 -104 -49 -169t-145 -65q-134 1 -193 140zM285 0l551 1366h67l-553 -1366h-65zM676 231v56l260 532h76v-534h78v-54h-78v-231h-60v231h-276zM731 285h221v454z" />
<glyph unicode="&#xbf;" horiz-adv-x="524" d="M66 -121q0 98 37.5 184.5t82.5 136.5t83 122.5t38 150.5q0 76 -47 123l55 41q57 -72 58 -164q0 -88 -38 -165t-83 -126t-83 -130t-38 -173q0 -84 53.5 -153.5t137.5 -69.5q86 0 159 74l39 -52q-76 -84 -198 -84q-106 0 -181 84t-75 201zM233 940q0 27 20.5 47.5 t47.5 20.5t47.5 -20.5t20.5 -47.5t-20.5 -46.5t-47.5 -19.5t-47.5 19.5t-20.5 46.5z" />
<glyph unicode="&#xc0;" horiz-adv-x="638" d="M25 0l256 1366h77l256 -1366h-67l-66 367h-323l-66 -367h-67zM158 1786h84l159 -295h-49zM168 428h303l-152 842z" />
<glyph unicode="&#xc1;" horiz-adv-x="638" d="M25 0l256 1366h77l256 -1366h-67l-66 367h-323l-66 -367h-67zM168 428h303l-152 842zM240 1491l159 295h84l-194 -295h-49z" />
<glyph unicode="&#xc2;" horiz-adv-x="638" d="M25 0l256 1366h77l256 -1366h-67l-66 367h-323l-66 -367h-67zM141 1491l140 295h73l146 -295h-47l-136 238l-129 -238h-47zM168 428h303l-152 842z" />
<glyph unicode="&#xc3;" horiz-adv-x="638" d="M25 0l256 1366h77l256 -1366h-67l-66 367h-323l-66 -367h-67zM115 1499q0 274 129 275q39 0 63.5 -36t31.5 -80t23.5 -80t40.5 -36q78 0 78 219h45q0 -274 -129 -274q-39 0 -63.5 36t-31.5 80t-23.5 79.5t-40.5 35.5q-78 0 -78 -219h-45zM168 428h303l-152 842z" />
<glyph unicode="&#xc4;" horiz-adv-x="638" d="M25 0l256 1366h77l256 -1366h-67l-66 367h-323l-66 -367h-67zM137 1564.5q0 22.5 17.5 40t40 17.5t40 -17.5t17.5 -40t-17.5 -40t-40 -17.5t-40 17.5t-17.5 40zM168 428h303l-152 842zM387 1564.5q0 22.5 17.5 40t40 17.5t40 -17.5t17.5 -40t-17.5 -40t-40 -17.5 t-40 17.5t-17.5 40z" />
<glyph unicode="&#xc5;" horiz-adv-x="638" d="M25 0l256 1366h77l256 -1366h-67l-66 367h-323l-66 -367h-67zM162 1576.5q0 65.5 47 113t112.5 47.5t111.5 -47.5t46 -113t-46 -112.5t-111.5 -47t-112.5 47t-47 112.5zM168 428h303l-152 842zM211 1577q0 -45 31.5 -78t79 -33t79 33t31.5 78t-31.5 78t-79 33t-79 -33 t-31.5 -78z" />
<glyph unicode="&#xc6;" horiz-adv-x="1042" d="M45 0l432 1366h457v-61h-365v-572h351v-61h-351v-611h365v-61h-430v367h-279l-112 -367h-68zM244 428h260v842z" />
<glyph unicode="&#xc7;" horiz-adv-x="731" d="M109 682q0 207 26.5 358.5t94.5 249.5q70 99 176 99q162 0 231 -211l-62 -25q-31 88 -67.5 131t-101.5 43q-115 0 -170.5 -178t-55.5 -467t55.5 -467t170.5 -178q72 0 110.5 55t65.5 160l61 -25q-53 -231 -211 -250l-35 -90q23 20 60 21q43 0 73.5 -35t30.5 -92 q0 -66 -48 -111t-118 -45q-76 0 -143 58l27 53q57 -55 116 -55q43 0 75 27.5t32 72.5q0 82 -68 82q-33 0 -63 -31l-43 25l43 120q-262 41 -262 705z" />
<glyph unicode="&#xc8;" horiz-adv-x="675" d="M147 0v1366h431v-61h-365v-572h350v-61h-350v-611h365v-61h-431zM209 1786h84l160 -295h-50z" />
<glyph unicode="&#xc9;" horiz-adv-x="675" d="M147 0v1366h431v-61h-365v-572h350v-61h-350v-611h365v-61h-431zM285 1491l159 295h84l-194 -295h-49z" />
<glyph unicode="&#xca;" horiz-adv-x="675" d="M147 0v1366h431v-61h-365v-572h350v-61h-350v-611h365v-61h-431zM190 1491l140 295h73l146 -295h-47l-135 238l-129 -238h-48z" />
<glyph unicode="&#xcb;" horiz-adv-x="675" d="M147 0v1366h431v-61h-365v-572h350v-61h-350v-611h365v-61h-431zM182 1564.5q0 22.5 17.5 40t40 17.5t40 -17.5t17.5 -40t-17.5 -40t-40 -17.5t-40 17.5t-17.5 40zM432 1564.5q0 22.5 17.5 40t40 17.5t40 -17.5t17.5 -40t-17.5 -40t-40 -17.5t-40 17.5t-17.5 40z" />
<glyph unicode="&#xcc;" horiz-adv-x="360" d="M20 1786h84l160 -295h-49zM147 0v1366h66v-1366h-66z" />
<glyph unicode="&#xcd;" horiz-adv-x="360" d="M102 1491l160 295h84l-194 -295h-50zM147 0v1366h66v-1366h-66z" />
<glyph unicode="&#xce;" horiz-adv-x="360" d="M4 1491l139 295h74l145 -295h-47l-135 238l-129 -238h-47zM147 0v1366h66v-1366h-66z" />
<glyph unicode="&#xcf;" horiz-adv-x="360" d="M4 1564.5q0 22.5 17.5 40t40 17.5t40 -17.5t17.5 -40t-17.5 -40t-40 -17.5t-40 17.5t-17.5 40zM147 0v1366h66v-1366h-66zM254 1564.5q0 22.5 17.5 40t40 17.5t40 -17.5t17.5 -40t-17.5 -40t-40 -17.5t-40 17.5t-17.5 40z" />
<glyph unicode="&#xd0;" horiz-adv-x="823" d="M53 653v62h127v651h191q176 0 260 -184.5t84 -499.5q0 -317 -84 -499.5t-260 -182.5h-191v653h-127zM246 61h125q272 0 272 621q0 623 -272 623h-125v-590h200v-62h-200v-592z" />
<glyph unicode="&#xd1;" horiz-adv-x="808" d="M147 0v1366h66l383 -1165v1165h66v-1366h-66l-383 1178v-1178h-66zM190 1499q0 274 129 275q39 0 64 -36t32 -80t23.5 -80t40.5 -36q78 0 78 219h45q0 -274 -129 -274q-39 0 -63.5 36t-31.5 80t-23.5 79.5t-41.5 35.5q-78 0 -77 -219h-46z" />
<glyph unicode="&#xd2;" horiz-adv-x="811" d="M109 682q0 203 25.5 353.5t94 252t177 101.5t177 -101.5t94 -252t25.5 -353.5t-25.5 -353.5t-94 -252t-177 -101.5t-177 101.5t-94 252t-25.5 353.5zM180 682q0 -283 54.5 -464t171 -181t171 181t54.5 464q0 285 -54.5 465t-171 180t-171 -180t-54.5 -465zM242 1786h84 l159 -295h-49z" />
<glyph unicode="&#xd3;" horiz-adv-x="811" d="M109 682q0 203 25.5 353.5t94 252t177 101.5t177 -101.5t94 -252t25.5 -353.5t-25.5 -353.5t-94 -252t-177 -101.5t-177 101.5t-94 252t-25.5 353.5zM180 682q0 -283 54.5 -464t171 -181t171 181t54.5 464q0 285 -54.5 465t-171 180t-171 -180t-54.5 -465zM326 1491 l159 295h84l-194 -295h-49z" />
<glyph unicode="&#xd4;" horiz-adv-x="811" d="M109 682q0 203 25.5 353.5t94 252t177 101.5t177 -101.5t94 -252t25.5 -353.5t-25.5 -353.5t-94 -252t-177 -101.5t-177 101.5t-94 252t-25.5 353.5zM180 682q0 -283 54.5 -464t171 -181t171 181t54.5 464q0 285 -54.5 465t-171 180t-171 -180t-54.5 -465zM227 1491 l140 295h73l146 -295h-47l-136 238l-129 -238h-47z" />
<glyph unicode="&#xd5;" horiz-adv-x="811" d="M109 682q0 203 25.5 353.5t94 252t177 101.5t177 -101.5t94 -252t25.5 -353.5t-25.5 -353.5t-94 -252t-177 -101.5t-177 101.5t-94 252t-25.5 353.5zM180 682q0 -283 54.5 -464t171 -181t171 181t54.5 464q0 285 -54.5 465t-171 180t-171 -180t-54.5 -465zM201 1499 q0 274 129 275q39 0 63.5 -36t31.5 -80t23.5 -80t40.5 -36q78 0 78 219h45q0 -274 -129 -274q-39 0 -63.5 36t-31.5 80t-23.5 79.5t-40.5 35.5q-78 0 -78 -219h-45z" />
<glyph unicode="&#xd6;" horiz-adv-x="811" d="M109 682q0 203 25.5 353.5t94 252t177 101.5t177 -101.5t94 -252t25.5 -353.5t-25.5 -353.5t-94 -252t-177 -101.5t-177 101.5t-94 252t-25.5 353.5zM180 682q0 -283 54.5 -464t171 -181t171 181t54.5 464q0 285 -54.5 465t-171 180t-171 -180t-54.5 -465zM221 1564.5 q0 22.5 17.5 40t40 17.5t40 -17.5t17.5 -40t-17.5 -40t-40 -17.5t-40 17.5t-17.5 40zM471 1564.5q0 22.5 17.5 40t40 17.5t40 -17.5t17.5 -40t-17.5 -40t-40 -17.5t-40 17.5t-17.5 40z" />
<glyph unicode="&#xd7;" horiz-adv-x="765" d="M109 455l231 229l-231 229l45 45l229 -231l229 231l45 -45l-231 -229l231 -229l-45 -45l-229 231l-229 -231z" />
<glyph unicode="&#xd8;" horiz-adv-x="811" d="M109 682q0 203 25.5 353.5t93.5 252.5q70 101 178 101q113 0 180 -107l30 84h68l-57 -160q76 -186 75 -524q0 -203 -25.5 -353.5t-94 -252t-176.5 -101.5q-111 0 -183 107l-28 -82h-68l55 158q-73 182 -73 524zM180 682q0 -264 41 -420l336 938q-57 127 -151 127 q-117 0 -171.5 -180t-54.5 -465zM254 164q55 -127 152 -127q117 0 171 181t54 464q0 256 -41 420z" />
<glyph unicode="&#xd9;" horiz-adv-x="811" d="M147 315v1051h66v-1051q0 -279 192.5 -278.5t192.5 278.5v1051h66v-1051q0 -340 -258.5 -340t-258.5 340zM242 1786h84l159 -295h-49z" />
<glyph unicode="&#xda;" horiz-adv-x="811" d="M147 315v1051h66v-1051q0 -279 192.5 -278.5t192.5 278.5v1051h66v-1051q0 -340 -258.5 -340t-258.5 340zM324 1491l159 295h84l-194 -295h-49z" />
<glyph unicode="&#xdb;" horiz-adv-x="811" d="M147 315v1051h66v-1051q0 -279 192.5 -278.5t192.5 278.5v1051h66v-1051q0 -340 -258.5 -340t-258.5 340zM225 1491l140 295h73l146 -295h-47l-136 238l-129 -238h-47z" />
<glyph unicode="&#xdc;" horiz-adv-x="811" d="M147 315v1051h66v-1051q0 -279 192.5 -278.5t192.5 278.5v1051h66v-1051q0 -340 -258.5 -340t-258.5 340zM221 1564.5q0 22.5 17.5 40t40 17.5t40 -17.5t17.5 -40t-17.5 -40t-40 -17.5t-40 17.5t-17.5 40zM471 1564.5q0 22.5 17.5 40t40 17.5t40 -17.5t17.5 -40 t-17.5 -40t-40 -17.5t-40 17.5t-17.5 40z" />
<glyph unicode="&#xdd;" horiz-adv-x="659" d="M4 1366h74l252 -694l256 694h69l-293 -774v-592h-65v592zM258 1491l160 295h84l-195 -295h-49z" />
<glyph unicode="&#xde;" horiz-adv-x="698" d="M147 0v1366h66v-264h139q137 0 207 -110.5t70 -278.5t-70 -276.5t-207 -108.5h-139v-328h-66zM213 389h137q104 0 155.5 88t51.5 236q0 150 -52 238.5t-155 88.5h-137v-651z" />
<glyph unicode="&#xdf;" horiz-adv-x="811" d="M160 0v1114q0 123 66.5 197.5t171 74.5t167 -62t62.5 -157q0 -68 -33 -123t-71 -85.5t-70.5 -75.5t-32.5 -97q0 -72 37 -128t89 -97l104 -84q52 -43 89 -109.5t37 -152.5q0 -102 -64.5 -171t-158.5 -69q-131 0 -223 121l45 49q82 -115 178 -114q61 0 111.5 52t50.5 132 q0 76 -37 134.5t-89 99.5l-105 82q-52 42 -89 106.5t-37 148.5q0 59 33 110.5t73 84.5t72.5 82t32.5 104q0 68 -48 116t-124 48q-78 0 -127 -55t-49 -162v-1114h-61z" />
<glyph unicode="&#xe0;" d="M84 305.5q0 145.5 65.5 237.5t176.5 92q119 0 180 -129v207q0 127 -35 186t-123 59q-104 0 -190 -110l-37 47q111 119 227 119q121 0 170 -72t49 -227v-715h-61v109q-63 -133 -180 -134q-111 0 -176.5 92.5t-65.5 238zM152 305q0 -115 44 -194.5t130 -79.5q129 0 180 149 v246q-51 154 -180 154q-86 0 -130 -80t-44 -195zM186 1434h84l160 -295h-49z" />
<glyph unicode="&#xe1;" d="M84 305.5q0 145.5 65.5 237.5t176.5 92q119 0 180 -129v207q0 127 -35 186t-123 59q-104 0 -190 -110l-37 47q111 119 227 119q121 0 170 -72t49 -227v-715h-61v109q-63 -133 -180 -134q-111 0 -176.5 92.5t-65.5 238zM152 305q0 -115 44 -194.5t130 -79.5q129 0 180 149 v246q-51 154 -180 154q-86 0 -130 -80t-44 -195zM272 1139l160 295h84l-194 -295h-50z" />
<glyph unicode="&#xe2;" d="M84 305.5q0 145.5 65.5 237.5t176.5 92q119 0 180 -129v207q0 127 -35 186t-123 59q-104 0 -190 -110l-37 47q111 119 227 119q121 0 170 -72t49 -227v-715h-61v109q-63 -133 -180 -134q-111 0 -176.5 92.5t-65.5 238zM152 305q0 -115 44 -194.5t130 -79.5q129 0 180 149 v246q-51 154 -180 154q-86 0 -130 -80t-44 -195zM174 1139l139 295h74l145 -295h-47l-135 237l-129 -237h-47z" />
<glyph unicode="&#xe3;" d="M84 305.5q0 145.5 65.5 237.5t176.5 92q119 0 180 -129v207q0 127 -35 186t-123 59q-104 0 -190 -110l-37 47q111 119 227 119q121 0 170 -72t49 -227v-715h-61v109q-63 -133 -180 -134q-111 0 -176.5 92.5t-65.5 238zM147 1147q0 274 129 274q39 0 64 -35.5t32 -79.5 t23.5 -80t40.5 -36q78 0 78 219h45q0 -274 -129 -274q-39 0 -63.5 35.5t-31.5 79.5t-23.5 80t-41.5 36q-78 0 -77 -219h-46zM152 305q0 -115 44 -194.5t130 -79.5q129 0 180 149v246q-51 154 -180 154q-86 0 -130 -80t-44 -195z" />
<glyph unicode="&#xe4;" d="M84 305.5q0 145.5 65.5 237.5t176.5 92q119 0 180 -129v207q0 127 -35 186t-123 59q-104 0 -190 -110l-37 47q111 119 227 119q121 0 170 -72t49 -227v-715h-61v109q-63 -133 -180 -134q-111 0 -176.5 92.5t-65.5 238zM152 305q0 -115 44 -194.5t130 -79.5q129 0 180 149 v246q-51 154 -180 154q-86 0 -130 -80t-44 -195zM166 1224.5q0 22.5 17.5 40t40 17.5t40 -17.5t17.5 -40t-17.5 -40t-40 -17.5t-40 17.5t-17.5 40zM416 1224.5q0 22.5 17.5 40t40 17.5t39.5 -17.5t17 -40t-17 -40t-39.5 -17.5t-40 17.5t-17.5 40z" />
<glyph unicode="&#xe5;" d="M84 305.5q0 145.5 65.5 237.5t176.5 92q119 0 180 -129v207q0 127 -35 186t-123 59q-104 0 -190 -110l-37 47q111 119 227 119q121 0 170 -72t49 -227v-715h-61v109q-63 -133 -180 -134q-111 0 -176.5 92.5t-65.5 238zM152 305q0 -115 44 -194.5t130 -79.5q129 0 180 149 v246q-51 154 -180 154q-86 0 -130 -80t-44 -195zM190 1292.5q0 65.5 47.5 112.5t113 47t111.5 -47t46 -112.5t-46 -112.5t-111.5 -47t-113 47t-47.5 112.5zM240 1292q0 -47 31.5 -78.5t78.5 -31.5t79 31.5t32 78.5t-32 79t-79 32t-78.5 -32t-31.5 -79z" />
<glyph unicode="&#xe6;" horiz-adv-x="1112" d="M84 303.5q0 145.5 65.5 238.5t176.5 93q119 0 180 -129v207q0 127 -35 186t-123 59q-104 0 -190 -110l-37 47q111 119 227 119q100 0 146.5 -47t60.5 -140q20 82 75.5 134.5t133.5 52.5q139 0 201.5 -144.5t62.5 -373.5v-21h-461q0 -205 60.5 -324.5t171.5 -119.5 q98 0 162 139l57 -29q-84 -166 -219 -166q-166 0 -248 189q-82 -188 -225 -189q-113 0 -177.5 91.5t-64.5 237zM152 305q0 -129 47 -201.5t127 -72.5q143 0 206 186q-27 98 -26 209q-51 154 -180 154q-80 0 -127 -73t-47 -202zM567 530h394q0 109 -15.5 198t-61.5 159.5 t-120 70.5q-55 0 -96 -42t-61.5 -109.5t-30 -136t-9.5 -140.5z" />
<glyph unicode="&#xe7;" horiz-adv-x="602" d="M96 496q0 227 71 372.5t208 145.5q94 0 172 -92l-43 -43q-59 80 -131 79q-111 0 -160 -133t-49 -329.5t49 -330.5t160 -134q74 0 131 80l43 -43q-59 -80 -141 -91l-35 -94q23 20 59 21q43 0 74 -35t31 -92q0 -66 -48.5 -111t-117.5 -45q-76 0 -144 57l27 54 q57 -55 117 -56q43 0 74.5 28t31.5 73q0 82 -67 82q-33 0 -64 -31l-43 25l45 124q-123 16 -186.5 160t-63.5 359z" />
<glyph unicode="&#xe8;" horiz-adv-x="708" d="M96 496q0 231 64.5 374.5t199.5 143.5q139 0 202 -144.5t63 -373.5v-21h-461q0 -205 60.5 -324.5t170.5 -119.5q98 0 162 139l57 -29q-82 -166 -219 -166q-154 0 -226.5 142.5t-72.5 378.5zM164 530h393q0 109 -15.5 198t-61.5 159.5t-120 70.5q-55 0 -96 -42 t-61.5 -109.5t-29.5 -136t-9 -140.5zM203 1434h84l159 -295h-49z" />
<glyph unicode="&#xe9;" horiz-adv-x="708" d="M96 496q0 231 64.5 374.5t199.5 143.5q139 0 202 -144.5t63 -373.5v-21h-461q0 -205 60.5 -324.5t170.5 -119.5q98 0 162 139l57 -29q-82 -166 -219 -166q-154 0 -226.5 142.5t-72.5 378.5zM164 530h393q0 109 -15.5 198t-61.5 159.5t-120 70.5q-55 0 -96 -42 t-61.5 -109.5t-29.5 -136t-9 -140.5zM281 1139l159 295h84l-194 -295h-49z" />
<glyph unicode="&#xea;" horiz-adv-x="708" d="M96 496q0 231 64.5 374.5t199.5 143.5q139 0 202 -144.5t63 -373.5v-21h-461q0 -205 60.5 -324.5t170.5 -119.5q98 0 162 139l57 -29q-82 -166 -219 -166q-154 0 -226.5 142.5t-72.5 378.5zM164 530h393q0 109 -15.5 198t-61.5 159.5t-120 70.5q-55 0 -96 -42 t-61.5 -109.5t-29.5 -136t-9 -140.5zM184 1139l140 295h73l146 -295h-47l-136 237l-129 -237h-47z" />
<glyph unicode="&#xeb;" horiz-adv-x="708" d="M96 496q0 231 64.5 374.5t199.5 143.5q139 0 202 -144.5t63 -373.5v-21h-461q0 -205 60.5 -324.5t170.5 -119.5q98 0 162 139l57 -29q-82 -166 -219 -166q-154 0 -226.5 142.5t-72.5 378.5zM164 530h393q0 109 -15.5 198t-61.5 159.5t-120 70.5q-55 0 -96 -42 t-61.5 -109.5t-29.5 -136t-9 -140.5zM176 1224.5q0 22.5 17.5 40t40 17.5t40 -17.5t17.5 -40t-17.5 -40t-40 -17.5t-40 17.5t-17.5 40zM426 1224.5q0 22.5 17.5 40t40 17.5t40 -17.5t17.5 -40t-17.5 -40t-40 -17.5t-40 17.5t-17.5 40z" />
<glyph unicode="&#xec;" horiz-adv-x="327" d="M2 1434h84l160 -295h-49zM133 0v989h62v-989h-62z" />
<glyph unicode="&#xed;" horiz-adv-x="327" d="M84 1139l160 295h84l-195 -295h-49zM133 0v989h62v-989h-62z" />
<glyph unicode="&#xee;" horiz-adv-x="327" d="M-14 1139l139 295h74l145 -295h-47l-135 237l-129 -237h-47zM133 0v989h62v-989h-62z" />
<glyph unicode="&#xef;" horiz-adv-x="327" d="M-18 1224.5q0 22.5 17 40t39.5 17.5t40 -17.5t17.5 -40t-17.5 -40t-40 -17.5t-39.5 17.5t-17 40zM133 0v989h62v-989h-62zM231 1224.5q0 22.5 17.5 40t40 17.5t40 -17.5t17.5 -40t-17.5 -40t-40 -17.5t-40 17.5t-17.5 40z" />
<glyph unicode="&#xf0;" horiz-adv-x="720" d="M96 495.5q0 145.5 23.5 256t85 186.5t155.5 76q102 0 154 -113q-39 135 -98 268l-205 -92l-25 51l207 93q-45 88 -74 135l60 33q39 -68 74 -142l149 68l23 -49l-150 -68q150 -346 150 -702q0 -227 -62.5 -374t-202.5 -147q-94 0 -155.5 76t-85 187.5t-23.5 257zM164 496 q0 -465 196.5 -465t196.5 465q0 463 -196.5 463t-196.5 -463z" />
<glyph unicode="&#xf1;" d="M133 0v989h62v-147q37 76 92 124t119 48q84 0 122.5 -50.5t38.5 -156.5v-807h-61v807q0 152 -109 151q-61 0 -116.5 -56t-85.5 -136v-766h-62zM150 1147q0 274 129 274q39 0 63.5 -35.5t31.5 -79.5t23.5 -80t40.5 -36q78 0 78 219h45q0 -274 -129 -274q-39 0 -63.5 35.5 t-31.5 79.5t-23.5 80t-41.5 36q-78 0 -77 -219h-45z" />
<glyph unicode="&#xf2;" horiz-adv-x="720" d="M96 495.5q0 145.5 23.5 256t85 186.5t155.5 76q139 0 202 -145.5t63 -373t-62.5 -374t-202.5 -146.5q-94 0 -155.5 76t-85 187.5t-23.5 257zM164 496q0 -465 196.5 -465t196.5 465q0 463 -196.5 463t-196.5 -463zM201 1434h84l159 -295h-49z" />
<glyph unicode="&#xf3;" horiz-adv-x="720" d="M96 495.5q0 145.5 23.5 256t85 186.5t155.5 76q139 0 202 -145.5t63 -373t-62.5 -374t-202.5 -146.5q-94 0 -155.5 76t-85 187.5t-23.5 257zM164 496q0 -465 196.5 -465t196.5 465q0 463 -196.5 463t-196.5 -463zM281 1139l159 295h84l-194 -295h-49z" />
<glyph unicode="&#xf4;" horiz-adv-x="720" d="M96 495.5q0 145.5 23.5 256t85 186.5t155.5 76q139 0 202 -145.5t63 -373t-62.5 -374t-202.5 -146.5q-94 0 -155.5 76t-85 187.5t-23.5 257zM164 496q0 -465 196.5 -465t196.5 465q0 463 -196.5 463t-196.5 -463zM182 1139l140 295h73l146 -295h-47l-136 237l-129 -237 h-47z" />
<glyph unicode="&#xf5;" horiz-adv-x="720" d="M96 495.5q0 145.5 23.5 256t85 186.5t155.5 76q139 0 202 -145.5t63 -373t-62.5 -374t-202.5 -146.5q-94 0 -155.5 76t-85 187.5t-23.5 257zM156 1147q0 274 129 274q39 0 63.5 -35.5t31.5 -79.5t23.5 -80t40.5 -36q78 0 78 219h45q0 -274 -129 -274q-39 0 -63.5 35.5 t-31.5 79.5t-23.5 80t-40.5 36q-78 0 -78 -219h-45zM164 496q0 -465 196.5 -465t196.5 465q0 463 -196.5 463t-196.5 -463z" />
<glyph unicode="&#xf6;" horiz-adv-x="720" d="M96 495.5q0 145.5 23.5 256t85 186.5t155.5 76q139 0 202 -145.5t63 -373t-62.5 -374t-202.5 -146.5q-94 0 -155.5 76t-85 187.5t-23.5 257zM164 496q0 -465 196.5 -465t196.5 465q0 463 -196.5 463t-196.5 -463zM180 1224.5q0 22.5 17.5 40t40 17.5t40 -17.5t17.5 -40 t-17.5 -40t-40 -17.5t-40 17.5t-17.5 40zM430 1224.5q0 22.5 17.5 40t40 17.5t40 -17.5t17.5 -40t-17.5 -40t-40 -17.5t-40 17.5t-17.5 40z" />
<glyph unicode="&#xf7;" horiz-adv-x="765" d="M59 659v62h648v-62h-648zM319 395.5q0 26.5 20.5 47t47.5 20.5t47.5 -20.5t20.5 -47t-20.5 -47t-47.5 -20.5t-47.5 20.5t-20.5 47zM319 972.5q0 26.5 20.5 47t47.5 20.5t47.5 -20.5t20.5 -47t-20.5 -47t-47.5 -20.5t-47.5 20.5t-20.5 47z" />
<glyph unicode="&#xf8;" horiz-adv-x="720" d="M96 496q0 145 23.5 255.5t85 186.5t155.5 76q98 0 160 -78l25 53h59l-47 -110q68 -133 68 -383q0 -227 -62.5 -374t-202.5 -147q-98 0 -161 80l-23 -55h-59l47 111q-68 135 -68 385zM164 496q0 -193 35 -306l293 678q-47 90 -132 90q-196 1 -196 -462zM227 121 q49 -90 133 -90q197 0 197 465q0 190 -35 303z" />
<glyph unicode="&#xf9;" d="M133 182v807h62v-807q0 -152 108 -151q63 0 118.5 54t84.5 134v770h61v-989h-61v143q-80 -168 -211 -168q-86 0 -124 48t-38 159zM190 1434h84l160 -295h-49z" />
<glyph unicode="&#xfa;" d="M133 182v807h62v-807q0 -152 108 -151q63 0 118.5 54t84.5 134v770h61v-989h-61v143q-80 -168 -211 -168q-86 0 -124 48t-38 159zM270 1139l160 295h84l-195 -295h-49z" />
<glyph unicode="&#xfb;" d="M133 182v807h62v-807q0 -152 108 -151q63 0 118.5 54t84.5 134v770h61v-989h-61v143q-80 -168 -211 -168q-86 0 -124 48t-38 159zM174 1139l139 295h74l145 -295h-47l-135 237l-129 -237h-47z" />
<glyph unicode="&#xfc;" d="M133 182v807h62v-807q0 -152 108 -151q63 0 118.5 54t84.5 134v770h61v-989h-61v143q-80 -168 -211 -168q-86 0 -124 48t-38 159zM172 1224.5q0 22.5 17.5 40t40 17.5t40 -17.5t17.5 -40t-17.5 -40t-40 -17.5t-40 17.5t-17.5 40zM422 1224.5q0 22.5 17.5 40t40 17.5 t40 -17.5t17.5 -40t-17.5 -40t-40 -17.5t-40 17.5t-17.5 40z" />
<glyph unicode="&#xfd;" horiz-adv-x="571" d="M33 989h67l185 -907l186 907h68l-281 -1241q-18 -82 -52 -115.5t-87 -33.5q-39 0 -64 14l15 55q20 -14 49 -14q37 0 55.5 23.5t34.5 86.5l47 199zM205 1139l160 295h84l-195 -295h-49z" />
<glyph unicode="&#xfe;" horiz-adv-x="718" d="M133 -377v1743h62v-510q63 158 180 158q86 0 143 -71t81 -183.5t24 -263.5q0 -233 -60.5 -377t-187.5 -144q-123 0 -180 162v-514h-62zM195 240q18 -82 71 -145.5t109 -63.5q180 0 180 465q0 463 -180 462q-57 0 -109.5 -61t-70.5 -143v-514z" />
<glyph unicode="&#xff;" horiz-adv-x="571" d="M33 989h67l185 -907l186 907h68l-281 -1241q-18 -82 -52 -115.5t-87 -33.5q-39 0 -64 14l15 55q20 -14 49 -14q37 0 55.5 23.5t34.5 86.5l47 199zM102 1224.5q0 22.5 17.5 40t40 17.5t40 -17.5t17.5 -40t-17.5 -40t-40 -17.5t-40 17.5t-17.5 40zM352 1224.5 q0 22.5 17.5 40t40 17.5t40 -17.5t17.5 -40t-17.5 -40t-40 -17.5t-40 17.5t-17.5 40z" />
<glyph unicode="&#x152;" horiz-adv-x="1148" d="M109 682q0 705 297 704q137 0 204 -184v164h430v-61h-364v-572h350v-61h-350v-611h364v-61h-430v164q-70 -188 -204 -189q-297 0 -297 707zM180 682q0 -645 226 -645q74 0 127 81t77 224v682q-53 301 -204 301q-226 0 -226 -643z" />
<glyph unicode="&#x153;" horiz-adv-x="1169" d="M96 495.5q0 145.5 23.5 256t85 186.5t155.5 76q172 0 232 -254q53 254 229 254q139 0 201.5 -144.5t62.5 -373.5v-21h-460q0 -205 60 -324.5t171 -119.5q98 0 162 139l57 -29q-84 -166 -219 -166q-199 0 -262 265q-57 -264 -234 -265q-94 0 -155.5 76t-85 187.5 t-23.5 257zM164 496q0 -90 9 -167t29.5 -147.5t60.5 -111.5t97 -41q197 0 197 467q0 463 -196.5 463t-196.5 -463zM625 530h393q0 109 -15.5 198t-61.5 159.5t-120 70.5q-55 0 -96 -42t-61.5 -109.5t-29.5 -136t-9 -140.5z" />
<glyph unicode="&#x178;" horiz-adv-x="659" d="M4 1366h74l252 -694l256 694h69l-293 -774v-592h-65v592zM156 1564.5q0 22.5 17 40t40 17.5t40 -17.5t17 -40t-17 -40t-40 -17.5t-40 17.5t-17 40zM406 1564.5q0 22.5 17 40t39.5 17.5t40 -17.5t17.5 -40t-17.5 -40t-40 -17.5t-39.5 17.5t-17 40z" />
<glyph unicode="&#x2c6;" horiz-adv-x="358" d="M0 1139l139 295h74l145 -295h-47l-135 237l-129 -237h-47z" />
<glyph unicode="&#x2dc;" horiz-adv-x="411" d="M0 1147q0 274 129 274q39 0 63.5 -35.5t31.5 -79.5t23.5 -80t41.5 -36q78 0 78 219h45q0 -274 -129 -274q-39 0 -63.5 35.5t-32 79.5t-24 80t-40.5 36q-78 0 -78 -219h-45z" />
<glyph unicode="&#x2013;" horiz-adv-x="942" d="M61 465v61h820v-61h-820z" />
<glyph unicode="&#x2014;" horiz-adv-x="1310" d="M61 465v61h1188v-61h-1188z" />
<glyph unicode="&#x2018;" horiz-adv-x="425" d="M141 1139q0 74 37 142.5t90 104.5l45 -36q-49 -37 -78.5 -89.5t-29.5 -99.5q10 2 14 2q29 0 47.5 -19.5t18.5 -47.5q0 -27 -18.5 -46.5t-47.5 -19.5q-33 0 -55.5 29t-22.5 80z" />
<glyph unicode="&#x2019;" horiz-adv-x="425" d="M117 1067q49 37 78.5 89t29.5 99q-10 -2 -14 -2q-29 0 -47.5 19.5t-18.5 48.5q0 27 18.5 46t47.5 19q33 0 55.5 -28.5t22.5 -79.5q0 -74 -37 -142.5t-90 -105.5z" />
<glyph unicode="&#x201a;" horiz-adv-x="425" d="M117 -205q49 37 78.5 89.5t29.5 99.5q-10 -2 -14 -2q-29 0 -47.5 19t-18.5 48q0 27 18.5 46.5t47.5 19.5q33 0 55.5 -29t22.5 -80q0 -74 -37 -142.5t-90 -105.5z" />
<glyph unicode="&#x201c;" horiz-adv-x="677" d="M137 1139q0 74 37 142.5t90 104.5l45 -36q-49 -37 -78.5 -89.5t-29.5 -99.5q10 2 14 2q29 0 47.5 -19.5t18.5 -47.5q0 -27 -18.5 -46.5t-47.5 -19.5q-33 0 -55.5 29t-22.5 80zM389 1139q0 74 37 142.5t90 104.5l45 -36q-49 -37 -78.5 -89.5t-29.5 -99.5q10 2 14 2 q29 0 47 -19.5t18 -47.5q0 -27 -18 -46.5t-47 -19.5q-33 0 -55.5 29t-22.5 80z" />
<glyph unicode="&#x201d;" horiz-adv-x="677" d="M117 1067q49 37 78.5 89t29.5 99q-10 -2 -14 -2q-29 0 -47.5 19.5t-18.5 48.5q0 27 18.5 46t47.5 19q33 0 55.5 -28.5t22.5 -79.5q0 -74 -37 -142.5t-90 -105.5zM369 1067q49 37 78.5 89t29.5 99q-10 -2 -14 -2q-29 0 -47.5 19.5t-18.5 48.5q0 27 18.5 46t47.5 19 q33 0 55.5 -28.5t22.5 -79.5q0 -74 -37 -142.5t-90 -105.5z" />
<glyph unicode="&#x201e;" horiz-adv-x="677" d="M117 -205q49 37 78.5 89.5t29.5 99.5q-10 -2 -14 -2q-29 0 -47.5 19t-18.5 48q0 27 18.5 46.5t47.5 19.5q33 0 55.5 -29t22.5 -80q0 -74 -37 -142.5t-90 -105.5zM369 -205q49 37 78.5 89.5t29.5 99.5q-10 -2 -14 -2q-29 0 -47.5 19t-18.5 48q0 27 18.5 46.5t47.5 19.5 q33 0 55.5 -29t22.5 -80q0 -74 -37 -142.5t-90 -105.5z" />
<glyph unicode="&#x2022;" horiz-adv-x="733" d="M168 496q0 82 59.5 141t141.5 59t141 -59t59 -141t-59 -140.5t-141 -58.5t-141.5 58.5t-59.5 140.5z" />
<glyph unicode="&#x2026;" horiz-adv-x="1277" d="M145 49q0 27 20.5 46.5t47.5 19.5t47.5 -19.5t20.5 -46.5q0 -29 -19.5 -48t-48.5 -19t-48.5 19t-19.5 48zM571 49q0 27 20.5 46.5t47.5 19.5t47.5 -19.5t20.5 -46.5q0 -29 -19.5 -48t-48.5 -19t-48.5 19t-19.5 48zM997 49q0 27 20.5 46.5t47.5 19.5t47.5 -19.5 t20.5 -46.5q0 -29 -19.5 -48t-48.5 -19t-48.5 19t-19.5 48z" />
<glyph unicode="&#x2039;" horiz-adv-x="374" d="M61 498l185 362h67l-184 -362l184 -369h-67z" />
<glyph unicode="&#x203a;" horiz-adv-x="374" d="M61 129l185 369l-185 362h68l184 -362l-184 -369h-68z" />
<glyph unicode="&#x20ac;" horiz-adv-x="749" d="M37 506v61h92q-2 37 -2 115q0 80 2 119h-92v61h96q16 242 87 384.5t204 142.5q162 0 231 -211l-61 -25q-31 88 -68 131t-102 43q-186 0 -219 -465h280v-61h-284q-2 -39 -2 -119q0 -78 2 -115h284v-61h-280q31 -469 219 -469q72 0 110.5 55t65.5 160l62 -25 q-59 -252 -238 -252q-256 0 -291 531h-96z" />
<glyph unicode="&#x2122;" horiz-adv-x="765" d="M35 1313v53h229v-53h-86v-398h-57v398h-86zM338 915v451h88l90 -322l90 322h88v-451h-57v373l-113 -373h-16l-113 373v-373h-57z" />
<glyph unicode="&#xe000;" horiz-adv-x="990" d="M0 990h990v-990h-990v990z" />
<glyph unicode="&#xfb01;" horiz-adv-x="741" d="M57 934v55h103v219q0 78 44 128t107 50q43 0 76 -28l-31 -45q-16 18 -45 18q-41 0 -65.5 -32.5t-24.5 -90.5v-219h144v-55h-144v-934h-61v934h-103zM518 1218.5q0 24.5 18.5 42t41.5 17.5q25 0 42 -17.5t17 -42t-17.5 -42t-41.5 -17.5q-23 0 -41.5 17.5t-18.5 42zM547 0 v989h61v-989h-61z" />
<glyph unicode="&#xfb02;" horiz-adv-x="741" d="M57 934v55h103v219q0 78 44 128t107 50q43 0 76 -28l-31 -45q-16 18 -45 18q-41 0 -65.5 -32.5t-24.5 -90.5v-219h144v-55h-144v-934h-61v934h-103zM547 0v1366h61v-1366h-61z" />
<glyph unicode="&#xfb03;" horiz-adv-x="1155" d="M57 934v55h103v219q0 80 44 129t117.5 49t114.5 -55l-41 -47q-33 47 -73 47q-100 0 -101 -123v-219h144v-55h-144v-934h-61v934h-103zM471 934v55h102v219q0 78 44.5 128t107.5 50q43 0 76 -28l-31 -45q-16 18 -45 18q-41 0 -65.5 -32.5t-24.5 -90.5v-219h143v-55h-143 v-934h-62v934h-102zM932 1218.5q0 24.5 18.5 42t40.5 17.5q25 0 42.5 -17.5t17.5 -42t-17.5 -42t-42.5 -17.5q-23 0 -41 17.5t-18 42zM961 0v989h61v-989h-61z" />
<glyph unicode="&#xfb04;" horiz-adv-x="1155" d="M57 934v55h103v219q0 80 44 129t117.5 49t114.5 -55l-41 -47q-33 47 -73 47q-100 0 -101 -123v-219h144v-55h-144v-934h-61v934h-103zM471 934v55h102v219q0 78 44.5 128t107.5 50q43 0 76 -28l-31 -45q-16 18 -45 18q-41 0 -65.5 -32.5t-24.5 -90.5v-219h143v-55h-143 v-934h-62v934h-102zM961 0v1366h61v-1366h-61z" />
</font>
</defs>
</svg>
