<?xml version="1.0" standalone="no"?>
<!DOCTYPE svg PUBLIC "-//W3C//DTD SVG 1.1//EN" "http://www.w3.org/Graphics/SVG/1.1/DTD/svg11.dtd" >
<svg xmlns="http://www.w3.org/2000/svg">
<metadata>
This is a custom SVG webfont generated by Font Squirrel.
Copyright   : Copyright c Mark Simonson 2005 All rights reserved
Designer    : Mark Simonson
Foundry URL : httpwwwmarksimonsoncom
</metadata>
<defs>
<font id="ProximaNovaCondensedThIt" horiz-adv-x="940" >
<font-face units-per-em="2048" ascent="1618" descent="-430" />
<missing-glyph horiz-adv-x="450" />
<glyph unicode=" "  horiz-adv-x="450" />
<glyph unicode="&#x09;" horiz-adv-x="450" />
<glyph unicode="&#xa0;" horiz-adv-x="450" />
<glyph unicode="!" horiz-adv-x="425" d="M45 43q0 31 21.5 51.5t52.5 20.5q27 0 44 -17.5t17 -44.5q0 -31 -21.5 -51t-52.5 -20q-27 0 -44 17t-17 44zM154 330l206 1036h86l-251 -1036h-41z" />
<glyph unicode="&#x22;" horiz-adv-x="593" d="M244 907l61 412q10 68 64 67q20 0 33.5 -14t13.5 -35q0 -10 -8 -34l-121 -396h-43zM481 907q59 399 62 412q10 67 63 67q20 0 33.5 -14t13.5 -35q0 -10 -8 -34l-121 -396h-43z" />
<glyph unicode="#" horiz-adv-x="985" d="M18 0l199 391h-197l29 60h197l237 464h-198l24 60h203l195 391h67l-194 -391h204l197 391h66l-197 -391h194l-24 -60h-199l-237 -464h202l-26 -60h-205l-197 -391h-67l201 391h-209l-197 -391h-68zM313 451h203l240 464h-207z" />
<glyph unicode="$" horiz-adv-x="901" d="M20 158l58 45q86 -139 254 -162l145 651q-57 41 -90 68.5t-74 70.5t-59 92.5t-18 106.5q0 150 111.5 254.5t260.5 104.5h25l41 184h65l-43 -193q168 -33 236 -145l-53 -45q-70 102 -197 129l-131 -594q111 -82 171 -160t60 -186q0 -166 -109.5 -285t-287.5 -119h-2 l-39 -180h-65l40 185q-98 14 -179 62t-120 116zM305 1030q0 -76 47 -134t142 -128l124 559h-10q-127 0 -215 -89t-88 -208zM397 37q143 2 229.5 100.5t86.5 241.5q0 84 -46 146.5t-132 125.5z" />
<glyph unicode="%" horiz-adv-x="1294" d="M150 0l1013 1366h72l-1016 -1366h-69zM188 975q0 174 97.5 292.5t222.5 118.5q111 0 176.5 -73.5t65.5 -182.5q0 -174 -98.5 -292.5t-223.5 -118.5q-111 0 -175.5 72.5t-64.5 183.5zM256 981q0 -96 48 -151.5t126 -55.5q98 0 175 102.5t77 249.5q0 96 -48 150.5 t-126 54.5q-98 0 -175 -102.5t-77 -247.5zM625 231q0 174 98 293t223 119q111 0 175.5 -72.5t64.5 -183.5q0 -174 -97.5 -293t-222.5 -119q-111 0 -176 73.5t-65 182.5zM692 238q0 -96 48 -151.5t126 -55.5q98 0 175 102.5t77 249.5q0 96 -48 150.5t-126 54.5 q-98 0 -175 -102.5t-77 -247.5z" />
<glyph unicode="&#x26;" horiz-adv-x="1019" d="M47 250q0 96 26.5 174t81 139.5t105.5 102.5t129 90q-33 117 -33 231q0 158 90.5 279t202.5 121q86 0 138.5 -48.5t52.5 -148.5q0 -63 -20.5 -120.5t-48.5 -96.5t-81 -83t-91 -69l-105 -67q-18 -10 -27 -17q33 -102 90 -229q53 -133 107 -238q106 139 198 340l58 -26 q-119 -246 -224 -379l123 -205h-88l-80 150q-160 -174 -323 -175q-123 0 -202 74t-79 201zM119 254q0 -102 59.5 -159.5t149.5 -57.5q137 0 288 176q-88 178 -116 250q-49 115 -92 235q-137 -90 -213 -191t-76 -253zM426 973q0 -86 25 -178q80 49 122.5 79.5t97 81t78 108.5 t23.5 128q0 133 -127 133q-82 0 -150.5 -105.5t-68.5 -246.5z" />
<glyph unicode="'" horiz-adv-x="360" d="M244 907l61 412q10 68 64 67q20 0 33.5 -14t13.5 -35q0 -10 -8 -34l-121 -396h-43z" />
<glyph unicode="(" horiz-adv-x="382" d="M45 66q0 698 467 1337l31 -21q-436 -680 -437 -1368q0 -188 46 -407l-39 -15q-68 230 -68 474z" />
<glyph unicode=")" horiz-adv-x="382" d="M-164 -387q438 680 438 1370q0 186 -45 406l39 14q68 -229 68 -471q0 -700 -467 -1340z" />
<glyph unicode="*" horiz-adv-x="632" d="M174 1030l242 86l-191 131l41 49l174 -151l41 241h64l-68 -245l234 108l18 -55l-240 -86l189 -131l-41 -49l-174 151l-41 -241h-64l68 245l-233 -108z" />
<glyph unicode="+" horiz-adv-x="888" d="M94 659l15 62h352l84 381h65l-84 -381h353l-15 -62h-352l-86 -393h-66l86 393h-352z" />
<glyph unicode="," horiz-adv-x="425" d="M-37 -188q55 31 96 78t52 94h-13q-20 0 -36.5 17t-16.5 40q0 31 21.5 52.5t50.5 21.5q66 0 65 -78q0 -74 -55 -150.5t-127 -115.5z" />
<glyph unicode="-" horiz-adv-x="542" d="M53 465l13 61h419l-12 -61h-420z" />
<glyph unicode="." horiz-adv-x="425" d="M45 43q0 31 21.5 51.5t52.5 20.5q27 0 44 -17.5t17 -44.5q0 -31 -21.5 -51t-52.5 -20q-27 0 -44 17t-17 44z" />
<glyph unicode="/" horiz-adv-x="456" d="M-121 -41l713 1448h67l-716 -1448h-64z" />
<glyph unicode="0" horiz-adv-x="1005" d="M121 397q0 152 37 322t102.5 320.5t171 248.5t225.5 98q150 0 228 -108.5t78 -310.5q0 -152 -37 -322t-102.5 -320.5t-170 -250t-225.5 -99.5q-150 0 -228.5 109.5t-78.5 312.5zM188 387q0 -350 244 -350q133 0 243.5 166t165 379t54.5 395q0 348 -242 348 q-133 0 -243.5 -165t-166 -378t-55.5 -395z" />
<glyph unicode="1" horiz-adv-x="532" d="M172 1083l326 283h61l-301 -1366h-65l280 1272l-266 -236z" />
<glyph unicode="2" horiz-adv-x="948" d="M12 0l17 76l208 208l187 186l146 152q87 91 126 142t82 117.5t58.5 119t15.5 105.5q0 100 -66.5 159.5t-175.5 59.5q-170 0 -286 -154l-52 39q137 176 338 177q135 0 224.5 -71t89.5 -206q0 -51 -16.5 -105.5t-39 -102.5t-73.5 -115l-92 -114q-40 -48 -120 -133 l-136 -140l-163 -162l-178 -177h590l-12 -61h-672z" />
<glyph unicode="3" horiz-adv-x="899" d="M10 254l66 25q27 -115 103.5 -178.5t185.5 -63.5q145 0 235 121t90 284q0 111 -72.5 172.5t-183.5 61.5q-59 0 -78 -2l17 65q16 -2 133 -2q133 0 224 104.5t91 256.5q0 104 -66.5 165.5t-181.5 61.5q-162 0 -284 -162l-49 39q59 82 149 133.5t189 51.5q139 0 226 -76 t87 -213q0 -152 -93 -267.5t-225 -134.5q84 -27 134.5 -99.5t50.5 -166.5q0 -178 -110.5 -316.5t-282.5 -138.5q-131 0 -228.5 75t-126.5 204z" />
<glyph unicode="4" horiz-adv-x="854" d="M29 399l16 70l700 897h89l-201 -905h160l-13 -62h-159l-89 -399h-65l88 399h-526zM113 461h454l181 811z" />
<glyph unicode="5" horiz-adv-x="944" d="M66 252l67 22q53 -238 277 -237q135 0 240.5 150.5t105.5 336.5q0 121 -64.5 187.5t-175.5 66.5q-129 0 -258 -116l-45 36l147 668h592l-12 -61h-526l-125 -564q94 98 241 99q127 0 211 -84t84 -232q0 -213 -123.5 -381t-300.5 -168q-137 0 -216.5 71t-118.5 206z" />
<glyph unicode="6" horiz-adv-x="950" d="M115 367q0 90 17.5 210.5t59 264t102 263.5t157 200.5t213.5 80.5q109 0 186.5 -60t101.5 -167l-61 -29q-18 90 -78.5 142.5t-153.5 52.5q-307 0 -446 -663q-2 -10 -6 -35q55 82 145 143t189 61q133 0 214 -77.5t81 -221.5q0 -203 -119 -380t-303 -177q-154 0 -226.5 106 t-72.5 286zM176 348q0 -143 62.5 -227t185.5 -84q147 0 245.5 161.5t98.5 331.5q0 109 -62.5 174.5t-173.5 65.5q-180 0 -342 -246q-14 -76 -14 -176z" />
<glyph unicode="7" horiz-adv-x="786" d="M96 0l729 1305h-585l12 61h663l-10 -45l-735 -1321h-74z" />
<glyph unicode="8" horiz-adv-x="931" d="M66 266q0 156 100 273.5t274 173.5q-78 43 -135 120.5t-57 172.5q0 158 109.5 269t258.5 111q133 0 223.5 -74.5t90.5 -209.5q0 -160 -100.5 -262.5t-249.5 -141.5q84 -51 144 -134t60 -185q0 -170 -111.5 -287t-269.5 -117q-154 0 -245.5 75t-91.5 216zM137 276 q0 -117 76 -178t188 -61q121 0 218.5 99.5t97.5 246.5q0 109 -68.5 188.5t-142.5 106.5q-154 -27 -261.5 -137.5t-107.5 -264.5zM317 999q0 -88 62.5 -161.5t138.5 -102.5q141 25 240.5 120t99.5 249q0 98 -69.5 158.5t-178.5 60.5q-119 0 -206 -91.5t-87 -232.5z" />
<glyph unicode="9" horiz-adv-x="950" d="M76 205l61 31q20 -92 79.5 -144.5t152.5 -52.5q305 0 448 663q2 14 6 37q-57 -84 -147 -145.5t-189 -61.5q-133 0 -213.5 79t-80.5 223q0 127 49 252.5t149.5 214t222.5 88.5q154 0 227.5 -105.5t73.5 -286.5q0 -90 -17 -210.5t-59 -264t-102.5 -263.5t-158 -201 t-213.5 -81q-109 0 -185.5 61t-103.5 167zM260 834q0 -106 62.5 -173t175.5 -67q176 0 342 246q14 100 14 176q0 143 -62.5 227t-185.5 84q-150 0 -248 -161.5t-98 -331.5z" />
<glyph unicode=":" horiz-adv-x="425" d="M45 43q0 31 21.5 51.5t52.5 20.5q27 0 44 -17.5t17 -44.5q0 -31 -21.5 -51t-52.5 -20q-27 0 -44 17t-17 44zM242 932q0 31 21.5 51.5t51.5 20.5q27 0 44.5 -17.5t17.5 -44.5q0 -31 -21.5 -51.5t-52.5 -20.5q-27 0 -44 17.5t-17 44.5z" />
<glyph unicode=";" horiz-adv-x="425" d="M-37 -188q55 31 96 78t52 94h-13q-20 0 -36.5 17t-16.5 40q0 31 21.5 52.5t50.5 21.5q66 0 65 -78q0 -74 -55 -150.5t-127 -115.5zM242 932q0 31 21.5 51.5t51.5 20.5q27 0 44.5 -17.5t17.5 -44.5q0 -31 -21.5 -51.5t-52.5 -20.5q-27 0 -44 17.5t-17 44.5z" />
<glyph unicode="&#x3c;" horiz-adv-x="888" d="M94 664l10 43l861 403l-19 -78l-764 -352l609 -348l-15 -70z" />
<glyph unicode="=" horiz-adv-x="888" d="M47 451l14 61h770l-14 -61h-770zM137 856l15 62h770l-15 -62h-770z" />
<glyph unicode="&#x3e;" horiz-adv-x="888" d="M6 262l19 78l763 348l-608 352l15 70l679 -403l-10 -43z" />
<glyph unicode="?" horiz-adv-x="788" d="M219 43q0 31 21.5 51.5t52.5 20.5q27 0 44 -17.5t17 -44.5q0 -31 -21.5 -51t-51.5 -20q-27 0 -44.5 17t-17.5 44zM238 1268q133 121 294 121q143 0 228.5 -78t85.5 -189q0 -96 -49 -174t-119 -131t-139.5 -100t-118.5 -104.5t-49 -121t32 -104.5l-55 -41q-43 59 -43 137 q0 68 35 126.5t87 97.5l114 84l113 86q52 41 87 103t35 136q0 90 -65.5 150.5t-178.5 60.5q-143 0 -262 -108z" />
<glyph unicode="@" horiz-adv-x="1384" d="M113 471q0 332 220 585t507 253q229 0 371.5 -163t142.5 -425q0 -242 -88 -394.5t-203 -152.5q-72 0 -113 47t-41 117v12q-119 -176 -280 -176q-106 0 -176 74t-70 211q0 219 129 392t301 173q78 0 131 -47t76 -121l27 131h61l-129 -606q-4 -25 -4 -47q0 -104 86 -105 q31 0 68.5 29t75.5 84t63.5 155.5t25.5 223.5q0 238 -127 382t-329 144q-174 0 -328 -111.5t-243 -290.5t-89 -372q0 -248 139.5 -402.5t354.5 -154.5q170 0 323 117l31 -47q-168 -129 -362 -129q-238 0 -394.5 172t-156.5 442zM451 459q0 -104 46 -167t132 -63 q158 0 299 211l76 348q-18 74 -65.5 127.5t-125.5 53.5q-152 0 -257 -164t-105 -346z" />
<glyph unicode="A" horiz-adv-x="970" d="M-78 0l715 1366h78l112 -1366h-69l-29 367h-543l-188 -367h-76zM219 428h508l-65 852z" />
<glyph unicode="B" horiz-adv-x="983" d="M53 0l301 1366h322q121 0 200.5 -77t79.5 -204q0 -145 -78.5 -257.5t-199.5 -135.5q72 -18 115 -94t43 -162q0 -176 -106.5 -306t-295.5 -130h-381zM131 61h315q143 0 230.5 113t87.5 262q0 111 -60.5 173.5t-171.5 62.5h-266zM281 733h313q143 0 217 110.5t74 241.5 q0 100 -61.5 160t-159.5 60h-256z" />
<glyph unicode="C" horiz-adv-x="1048" d="M125 442.5q0 221.5 78 437.5t221 362.5t313 146.5q264 -1 363 -259l-62 -24q-86 221 -309 221q-141 0 -266 -137t-195.5 -342t-70.5 -410q0 -193 89 -297t249 -104q156 0 307 168l47 -39q-162 -190 -361 -191q-182 0 -292.5 123t-110.5 344.5z" />
<glyph unicode="D" horiz-adv-x="1095" d="M53 0l301 1366h291q164 0 277.5 -128t113.5 -351q0 -100 -23.5 -214t-76.5 -235t-130 -217t-195.5 -158.5t-258.5 -62.5h-299zM131 61h231q115 0 216.5 55.5t171 143.5t120 197.5t74 220t23.5 209.5q0 193 -95.5 305.5t-238.5 112.5h-225z" />
<glyph unicode="E" horiz-adv-x="909" d="M53 0l301 1366h633l-12 -61h-567l-127 -572h553l-15 -61h-553l-135 -611h567l-12 -61h-633z" />
<glyph unicode="F" horiz-adv-x="884" d="M53 0l301 1366h633l-12 -61h-567l-127 -572h553l-15 -61h-553l-147 -672h-66z" />
<glyph unicode="G" horiz-adv-x="1110" d="M125 442q0 221 75.5 437.5t219 363t317.5 146.5q256 0 363 -259l-60 -22q-86 219 -311 219q-143 0 -268 -137t-194.5 -341t-69.5 -411q0 -197 90 -299t248 -102q168 0 309 160l88 399h-385l12 61h451l-109 -491q-174 -190 -373 -191q-186 0 -294.5 124t-108.5 343z" />
<glyph unicode="H" horiz-adv-x="1116" d="M53 0l301 1366h66l-139 -633h657l139 633h66l-301 -1366h-66l148 672h-658l-147 -672h-66z" />
<glyph unicode="I" horiz-adv-x="393" d="M53 0l301 1366h66l-301 -1366h-66z" />
<glyph unicode="J" horiz-adv-x="782" d="M-53 129l55 41q68 -133 223 -133q223 0 285 276l233 1053h66l-234 -1053q-76 -338 -350 -338q-198 0 -278 154z" />
<glyph unicode="K" horiz-adv-x="966" d="M53 0l301 1366h66l-170 -770l723 770h90l-619 -653l361 -713h-76l-330 668l-174 -185l-106 -483h-66z" />
<glyph unicode="L" horiz-adv-x="800" d="M37 0l301 1366h65l-288 -1305h526l-12 -61h-592z" />
<glyph unicode="M" horiz-adv-x="1308" d="M53 0l301 1366h103l125 -1182l647 1182h106l-301 -1366h-65l280 1268l-690 -1268h-29l-131 1268l-280 -1268h-66z" />
<glyph unicode="N" horiz-adv-x="1112" d="M53 0l301 1366h66l383 -1212l270 1212h66l-301 -1366h-66l-381 1227l-272 -1227h-66z" />
<glyph unicode="O" horiz-adv-x="1187" d="M125 442q0 156 44 322t121 305t195.5 229.5t251.5 90.5q182 0 294 -128t112 -339q0 -213 -74 -427t-219 -367t-322 -153q-182 0 -292.5 127t-110.5 340zM197 438q0 -190 93 -295.5t245 -105.5q145 0 271 136t195.5 339t69.5 412q0 190 -94 296.5t-248 106.5 q-145 0 -270 -136t-193.5 -340t-68.5 -413z" />
<glyph unicode="P" horiz-adv-x="917" d="M53 0l301 1366h318q121 0 199.5 -87t78.5 -218q0 -184 -112.5 -326.5t-319.5 -142.5h-268l-131 -592h-66zM262 653h273h-7q168 0 259.5 122t91.5 286q0 109 -62.5 176.5t-157.5 67.5h-251z" />
<glyph unicode="Q" horiz-adv-x="1187" d="M125 442q0 156 44 322t121 305t195.5 229.5t251.5 90.5q182 0 294 -128t112 -339q0 -227 -89 -461t-237 -367l57 -127l-57 -26l-51 112q-113 -78 -238 -78q-182 0 -292.5 127t-110.5 340zM197 438q0 -190 93 -295.5t245 -105.5q102 0 204 76l-129 284l60 27l118 -268 q127 123 205 337t78 431q0 190 -94 296.5t-248 106.5q-145 0 -270 -136t-193.5 -340t-68.5 -413z" />
<glyph unicode="R" horiz-adv-x="968" d="M53 0l301 1366h308q121 0 206.5 -84t85.5 -217q0 -190 -108.5 -322.5t-284.5 -146.5l187 -596h-72l-180 592h-246l-131 -592h-66zM262 653h268h2q164 0 256.5 123t92.5 289q0 111 -63.5 175.5t-155.5 64.5h-254z" />
<glyph unicode="S" horiz-adv-x="915" d="M20 158l58 45q49 -76 130 -121t179 -45q147 0 236.5 98t89.5 244q0 82 -49.5 148.5t-118.5 116.5l-141 101q-71 51 -119.5 124t-48.5 161q0 150 111.5 254.5t260.5 104.5q106 0 193.5 -41t130.5 -113l-53 -45q-88 137 -271 137q-127 0 -215 -89t-88 -208q0 -72 49 -134 t120 -114l140 -104q70 -53 119 -130t49 -169q0 -166 -109.5 -285t-287.5 -119q-117 0 -218.5 52.5t-146.5 130.5z" />
<glyph unicode="T" horiz-adv-x="866" d="M236 1305l12 61h751l-12 -61h-344l-289 -1305h-65l289 1305h-342z" />
<glyph unicode="U" horiz-adv-x="1093" d="M135 313q0 43 10 105l209 948h66l-209 -948q-10 -41 -10 -94q0 -133 78.5 -210t212.5 -77q147 0 229 92t125 289l209 948h65l-209 -948q-49 -225 -146 -334t-276 -109q-162 0 -258 90t-96 248z" />
<glyph unicode="V" horiz-adv-x="970" d="M225 1366h68l98 -1280l662 1280h75l-714 -1366h-78z" />
<glyph unicode="W" horiz-adv-x="1374" d="M238 0l4 1366h69l-12 -1251l543 1251h69l-10 -1251l541 1251h74l-598 -1366h-78l8 1223l-533 -1223h-77z" />
<glyph unicode="X" horiz-adv-x="968" d="M-78 0l567 702l-241 664h74l217 -604l475 604h90l-537 -672l258 -694h-73l-234 637l-508 -637h-88z" />
<glyph unicode="Y" horiz-adv-x="954" d="M215 1366h72l221 -700l530 700h84l-592 -774l-131 -592h-65l131 592z" />
<glyph unicode="Z" horiz-adv-x="909" d="M-20 0l12 63l909 1242h-631l13 61h710l-12 -61l-909 -1244h647l-12 -61h-727z" />
<glyph unicode="[" horiz-adv-x="382" d="M-127 -389l393 1778h279l-15 -62h-217l-366 -1655h217l-14 -61h-277z" />
<glyph unicode="\" horiz-adv-x="456" d="M193 1407h61l82 -1448h-62z" />
<glyph unicode="]" horiz-adv-x="382" d="M-162 -389l15 61h215l366 1655h-217l14 62h279l-395 -1778h-277z" />
<glyph unicode="^" horiz-adv-x="765" d="M78 682l469 684h53l166 -684h-64l-137 625l-415 -625h-72z" />
<glyph unicode="_" horiz-adv-x="864" d="M-147 -143l14 61h874l-14 -61h-874z" />
<glyph unicode="`" horiz-adv-x="331" d="M207 1434h88l178 -295h-55z" />
<glyph unicode="&#x2cb;" horiz-adv-x="331" d="M207 1434h88l178 -295h-55z" />
<glyph unicode="a" d="M84 315q0 150 51 307.5t156.5 274.5t236.5 117q90 0 161 -50.5t108 -140.5l34 166h62l-219 -989h-62l33 147q-113 -172 -278 -172q-129 0 -206 91t-77 249zM152 317q0 -139 59 -212.5t166 -73.5q82 0 161.5 60.5t129.5 148.5l112 514q-23 86 -92.5 145t-161.5 59 q-109 0 -198.5 -110.5t-132.5 -256t-43 -274.5z" />
<glyph unicode="b" d="M45 0l301 1366h62l-115 -522q111 170 278 170q129 0 206 -90t77 -248q0 -152 -51 -309.5t-156.5 -274.5t-236.5 -117q-90 0 -161 51.5t-108 141.5l-35 -168h-61zM158 236q23 -86 92 -145.5t162 -59.5q109 0 198.5 111.5t132.5 256t43 275.5q0 139 -59 211.5t-166 72.5 q-82 0 -162 -60t-129 -148z" />
<glyph unicode="c" horiz-adv-x="806" d="M86 350q0 150 55.5 299.5t166 257t247.5 107.5q174 0 254 -137l-49 -39q-66 121 -205 120q-123 0 -218 -105t-139 -242.5t-44 -270.5q0 -154 70.5 -231.5t187.5 -77.5q121 0 211 104l36 -43q-115 -117 -249 -117q-145 0 -234.5 96.5t-89.5 278.5z" />
<glyph unicode="d" d="M84 315q0 150 51 307.5t156.5 274.5t236.5 117q90 0 161 -50.5t108 -140.5l118 543h62l-303 -1366h-62l33 147q-113 -172 -278 -172q-129 0 -206 91t-77 249zM152 317q0 -139 59 -212.5t166 -73.5q82 0 161.5 60.5t129.5 148.5l112 514q-23 86 -92.5 145t-161.5 59 q-109 0 -198.5 -110.5t-132.5 -256t-43 -274.5z" />
<glyph unicode="e" d="M84 348q0 133 51 281.5t162 266.5t252 118q143 0 226 -93.5t83 -256.5q0 -90 -27 -189h-665q-12 -57 -12 -125q0 -145 72.5 -232t207.5 -87q133 0 248 125l39 -43q-131 -137 -287 -138q-164 0 -257 99.5t-93 273.5zM174 530h596h10q14 72 15 125q0 135 -66.5 219 t-187.5 84q-131 0 -234.5 -132t-132.5 -296z" />
<glyph unicode="f" horiz-adv-x="458" d="M72 0l207 934h-134l13 55h133l35 162q53 236 237 235q92 0 144 -63l-45 -45q-37 53 -105 53q-131 0 -170 -180l-35 -162h172l-12 -55h-172l-207 -934h-61z" />
<glyph unicode="g" d="M-18 -266l51 49q80 -129 270 -129q233 0 299 299l45 194q-117 -172 -287 -172q-123 0 -200.5 87t-77.5 257q0 106 30.5 225.5t85 226t141.5 175t189 68.5q82 0 158 -53.5t111 -137.5l37 166h59l-229 -1036q-80 -354 -363 -354q-217 0 -319 135zM150 319q0 -143 59 -215.5 t164 -72.5q78 0 157.5 58t133.5 142l116 523q-25 84 -98.5 144t-159.5 60q-109 0 -197.5 -110.5t-131.5 -254t-43 -274.5z" />
<glyph unicode="h" horiz-adv-x="890" d="M45 0l301 1366h62l-115 -524q145 172 297 172q98 0 155.5 -48t57.5 -139q0 -37 -12 -77l-164 -750h-62l166 752q10 41 10 67q0 139 -163 139q-78 0 -159 -56t-145 -138l-168 -764h-61z" />
<glyph unicode="i" horiz-adv-x="370" d="M45 0l219 989h62l-220 -989h-61zM283 1212q0 29 21.5 47.5t45.5 18.5q23 0 39.5 -15.5t16.5 -37.5q0 -29 -22 -47.5t-46 -18.5q-23 0 -39 15t-16 38z" />
<glyph unicode="j" horiz-adv-x="370" d="M-301 -317l53 34q31 -63 103 -63q113 0 149 170l260 1165h62l-260 -1165q-27 -123 -77 -174t-132 -51q-115 0 -158 84zM283 1212q0 29 21.5 47.5t45.5 18.5q23 0 39.5 -15.5t16.5 -37.5q0 -29 -22 -47.5t-46 -18.5q-23 0 -39 15t-16 38z" />
<glyph unicode="k" horiz-adv-x="841" d="M45 0l301 1366h62l-218 -983l635 606h82l-473 -446l246 -543h-68l-223 502l-219 -211l-64 -291h-61z" />
<glyph unicode="l" horiz-adv-x="370" d="M45 0l301 1366h62l-302 -1366h-61z" />
<glyph unicode="m" horiz-adv-x="1325" d="M45 0l219 989h62l-33 -147q127 172 274 172q88 0 140.5 -49.5t52.5 -114.5q0 -10 -2 -19q141 182 289 183q84 0 137 -49.5t53 -135.5q0 -27 -12 -79l-164 -750h-62l168 760q8 41 9 59q0 68 -39 103.5t-103 35.5q-70 0 -147.5 -56t-134.5 -138l-168 -764h-62l168 760 q8 57 8 67q0 131 -143 131q-70 0 -144.5 -56t-136.5 -138l-168 -764h-61z" />
<glyph unicode="n" horiz-adv-x="890" d="M45 0l219 989h62l-33 -147q145 172 297 172q98 0 155.5 -47t57.5 -140q0 -41 -12 -77l-164 -750h-62l166 750q10 51 10 69q0 139 -163 139q-78 0 -159 -56t-145 -138l-168 -764h-61z" />
<glyph unicode="o" horiz-adv-x="944" d="M84 334q0 154 54.5 307.5t164 263t244.5 109.5q143 0 227 -92.5t84 -266.5q0 -154 -54 -307t-164 -263t-245 -110q-143 0 -227 92.5t-84 266.5zM152 334q0 -147 64.5 -225t180.5 -78q111 0 205 104.5t141.5 246.5t47.5 273q0 147 -64.5 225t-181.5 78q-111 0 -205 -104 t-141 -246.5t-47 -273.5z" />
<glyph unicode="p" horiz-adv-x="935" d="M-41 -377l305 1366h62l-33 -145q111 170 278 170q129 0 206 -90t77 -248q0 -152 -51 -309.5t-156.5 -274.5t-236.5 -117q-90 0 -161 51.5t-108 141.5l-118 -545h-64zM158 236q23 -86 92 -145.5t162 -59.5q109 0 198.5 111.5t132.5 256t43 275.5q0 139 -59 211.5 t-166 72.5q-82 0 -162 -60t-129 -148z" />
<glyph unicode="q" horiz-adv-x="935" d="M84 315q0 150 51 307.5t156.5 274.5t236.5 117q90 0 161 -50.5t108 -140.5l34 166h62l-303 -1366h-62l117 524q-113 -172 -278 -172q-129 0 -206 91t-77 249zM152 317q0 -139 59 -212.5t166 -73.5q82 0 161.5 60.5t129.5 148.5l112 514q-23 86 -92.5 145t-161.5 59 q-109 0 -198.5 -110.5t-132.5 -256t-43 -274.5z" />
<glyph unicode="r" horiz-adv-x="544" d="M45 0l219 989h62l-37 -158q68 92 141.5 134.5t185.5 42.5l-16 -72q-10 4 -51 4q-80 0 -155 -56.5t-124 -142.5l-164 -741h-61z" />
<glyph unicode="s" horiz-adv-x="749" d="M2 127l53 39q74 -135 242 -135q106 0 176 68.5t70 160.5q0 61 -40 111.5t-97 87.5l-116 73q-58 37 -98 91.5t-40 119.5q0 115 80.5 193t216.5 78q90 0 160.5 -38t103.5 -97l-51 -39q-25 53 -87.5 85.5t-134.5 32.5q-100 0 -162.5 -56t-62.5 -142q0 -57 40 -105.5 t97 -84.5l116 -74q58 -39 98 -94.5t40 -125.5q0 -125 -86 -213t-225 -88q-209 0 -293 152z" />
<glyph unicode="t" horiz-adv-x="479" d="M92 109q0 23 6 57l172 768h-135l12 55h136l59 271h61l-59 -271h172l-12 -55h-172l-172 -768q-6 -27 -6 -55q0 -80 84 -80q51 0 92 41l30 -45q-59 -51 -127 -52q-141 1 -141 134z" />
<glyph unicode="u" horiz-adv-x="890" d="M88 164q0 27 10 78l166 747h62l-166 -749q-10 -47 -10 -68q0 -141 161 -141q78 0 159 54t142 134l172 770h62l-219 -989h-62l33 147q-150 -172 -299 -172q-96 0 -153.5 48.5t-57.5 140.5z" />
<glyph unicode="v" horiz-adv-x="768" d="M137 989h66l82 -917l491 917h74l-541 -989h-71z" />
<glyph unicode="w" horiz-adv-x="1216" d="M152 989h65l29 -893l438 893h61l41 -893l426 893h70l-485 -989h-56l-45 899l-442 -899h-55z" />
<glyph unicode="x" horiz-adv-x="776" d="M-68 0l422 506l-184 483h70l155 -432l353 432h77l-401 -483l199 -506h-70l-170 457l-373 -457h-78z" />
<glyph unicode="y" horiz-adv-x="768" d="M-115 -383l25 57q23 -16 72 -16q39 0 68.5 25.5t68.5 93.5l114 200l-96 1012h66l84 -911l489 911h74l-678 -1233q-86 -158 -205 -157q-49 0 -82 18z" />
<glyph unicode="z" horiz-adv-x="759" d="M-8 0l12 55l668 879h-471l12 55h543l-13 -55l-667 -879h479l-10 -55h-553z" />
<glyph unicode="{" horiz-adv-x="434" d="M-37 -227q0 23 6 53l111 496q6 37 6 38q0 49 -20.5 79t-59.5 30l14 61q109 0 140 148l110 500q25 106 85.5 158.5t144.5 52.5h96l-14 -62h-97q-119 0 -153 -149l-113 -506q-29 -141 -131 -178q59 -31 59 -109q0 -37 -8 -70l-108 -493q-4 -25 -4 -39q0 -49 28.5 -80 t69.5 -31h90l-14 -61h-80q-63 0 -110.5 44t-47.5 118z" />
<glyph unicode="|" horiz-adv-x="389" d="M205 -41v1448h61v-1448h-61z" />
<glyph unicode="}" horiz-adv-x="434" d="M-164 -389l14 61h97q123 0 153 150l113 508q29 137 131 178q-59 29 -59 108q0 37 8 70l108 492q4 25 5 39q0 49 -28 79.5t-71 30.5h-90l14 62h80q63 0 110.5 -45.5t47.5 -118.5q0 -27 -6 -51l-111 -496q-4 -20 -4 -39q0 -47 19.5 -78t58.5 -31l-14 -61q-104 0 -140 -147 l-110 -500q-47 -211 -230 -211h-96z" />
<glyph unicode="~" horiz-adv-x="892" d="M143 893q115 469 320 469q80 0 115 -65q34 -63 33 -138q0 -86 21 -148q22 -65 79 -65q152 0 254 420l61 -6q-113 -473 -319 -473q-66 0 -100 43t-42 103.5t-12 120.5t-26.5 103t-69.5 43q-150 0 -254 -417z" />
<glyph unicode="&#xa1;" horiz-adv-x="425" d="M-25 -377l252 1036h41l-207 -1036h-86zM242 936q0 31 21.5 51.5t51.5 20.5q27 0 44.5 -17.5t17.5 -44.5q0 -31 -21.5 -51.5t-52.5 -20.5q-27 0 -44 17.5t-17 44.5z" />
<glyph unicode="&#xa2;" horiz-adv-x="806" d="M86 350q0 145 53.5 293t161 255.5t240.5 113.5l32 145h62l-33 -147q137 -14 207 -133l-49 -39q-55 100 -170 118l-205 -925h27q121 0 211 104l36 -43q-115 -117 -249 -117q-6 0 -18.5 1t-18.5 1l-41 -182h-62l43 193q-104 29 -165.5 120.5t-61.5 241.5zM154 340 q0 -244 172 -297l202 913q-88 -8 -161.5 -71.5t-118.5 -155.5t-69.5 -194.5t-24.5 -194.5z" />
<glyph unicode="&#xa3;" horiz-adv-x="854" d="M-8 49q139 66 241.5 193t102.5 252q0 29 -6 53h-271l13 61h241q-10 27 -42.5 87.5t-50 111.5t-17.5 113q0 184 117.5 325t281.5 141q109 0 194 -59t101 -153l-59 -29q-16 80 -79 130t-157 50q-129 0 -229.5 -112.5t-100.5 -288.5q0 -59 18.5 -112.5t48.5 -111t42 -92.5 h231l-12 -61h-203q4 -33 4 -47q0 -117 -74.5 -225.5t-168.5 -172.5q49 18 86 19q61 0 150 -43t136 -43q96 0 172 84l27 -53q-96 -92 -205 -93q-80 0 -162.5 45t-152.5 45q-78 0 -197 -77z" />
<glyph unicode="&#xa4;" horiz-adv-x="1069" d="M23 283l157 129q-63 115 -63 221q0 195 164 354l-76 100l65 54l80 -99q123 88 273 88q166 0 292 -116l160 131l51 -62l-159 -131q63 -104 63 -221q0 -186 -164 -354l78 -98l-70 -56l-75 101q-125 -90 -271 -91q-170 0 -297 121l-161 -135zM217 645q0 -139 89 -226 t229 -87q158 0 276.5 115.5t118.5 271.5q0 139 -89 226t-229 87q-158 0 -276.5 -115.5t-118.5 -271.5z" />
<glyph unicode="&#xa5;" horiz-adv-x="954" d="M-12 264l14 62h412l59 266h-412l13 61h379l-230 713h72l221 -700l531 700h83l-544 -713h360l-12 -61h-395l-60 -266h395l-14 -62h-395l-57 -264h-66l57 264h-411z" />
<glyph unicode="&#xa6;" horiz-adv-x="389" d="M205 -41v647h61v-647h-61zM205 760v647h61v-647h-61z" />
<glyph unicode="&#xa7;" horiz-adv-x="749" d="M-43 -23l55 41q74 -129 254 -129q102 0 172 70t70 172q0 59 -40 106.5t-96 80.5l-113 71q-56 37 -96 92.5t-40 126.5q0 102 74.5 178t205.5 88q-170 98 -170 240q0 111 81 191.5t206 80.5q199 0 285 -131l-51 -36q-70 113 -234 112q-92 0 -157.5 -60.5t-65.5 -146.5 q0 -61 40 -109t96 -82l114 -70q57 -36 97 -92t40 -130q0 -98 -59.5 -173t-178.5 -110q125 -84 125 -217q0 -125 -82.5 -216t-220.5 -91q-213 0 -311 143zM184 614q0 -68 53.5 -120t159.5 -105q225 70 226 244q0 121 -160 205q-143 -16 -211 -79t-68 -145z" />
<glyph unicode="&#xa8;" horiz-adv-x="516" d="M195 1219q0 27 18 45t45 18q20 0 35.5 -14.5t15.5 -36.5q0 -27 -18.5 -45.5t-44.5 -18.5q-20 0 -35.5 14.5t-15.5 37.5zM526 1219q0 27 18.5 45t45.5 18q20 0 35.5 -14.5t15.5 -36.5q0 -27 -18.5 -45.5t-44.5 -18.5q-20 0 -36 14.5t-16 37.5z" />
<glyph unicode="&#xa9;" horiz-adv-x="1593" d="M131 684q0 293 206 500t498.5 207t500.5 -207t208 -500t-208 -500t-500 -207q-291 0 -498 207t-207 500zM184 684q0 -268 191.5 -460.5t460.5 -192.5q270 0 462.5 192.5t192.5 460.5q0 270 -192.5 461.5t-462.5 191.5q-268 0 -460 -191.5t-192 -461.5zM401 629 q0 207 148.5 352t337.5 145q217 0 313 -163l-49 -35q-76 143 -264 143q-162 0 -294 -129t-132 -313q0 -137 94 -233.5t240 -96.5q141 0 237 96l31 -47q-125 -104 -268 -104q-182 0 -288 110.5t-106 274.5z" />
<glyph unicode="&#xaa;" horiz-adv-x="696" d="M182 895q0 156 86 294t217 138q61 0 112.5 -31.5t76.5 -85.5l20 101h58l-142 -643h-57l22 102q-86 -119 -196 -119q-88 0 -142.5 61.5t-54.5 182.5zM242 895q0 -94 41 -144.5t110 -50.5q109 0 197 134l72 323q-16 51 -64.5 86t-108.5 35q-102 0 -174.5 -124t-72.5 -259z " />
<glyph unicode="&#xab;" horiz-adv-x="653" d="M59 498l338 362h80l-344 -371l168 -360h-68zM260 498l338 362h80l-346 -371l170 -360h-68z" />
<glyph unicode="&#xac;" horiz-adv-x="888" d="M137 856l15 62h770l-105 -467h-65l90 405h-705z" />
<glyph unicode="&#xad;" horiz-adv-x="542" d="M53 465l13 61h419l-12 -61h-420z" />
<glyph unicode="&#xae;" horiz-adv-x="1011" d="M172 952.5q0 180.5 127 307t307 126.5t307 -125.5t127 -308.5q0 -180 -128 -307t-308 -127t-306 127t-126 307.5zM225 952q0 -158 110.5 -269.5t268.5 -111.5t270.5 112t112.5 269q0 160 -111.5 270.5t-271.5 110.5q-158 0 -268.5 -110.5t-110.5 -270.5zM387 702l109 498 h186q57 0 98 -35t41 -96q0 -72 -51 -120t-113 -48l91 -199h-72l-86 197h-101l-43 -197h-59zM502 956h143q47 0 80 31t33 74q0 39 -24.5 61.5t-59.5 22.5h-131z" />
<glyph unicode="&#xaf;" horiz-adv-x="618" d="M158 1210l12 56h616l-12 -56h-616z" />
<glyph unicode="&#x203e;" horiz-adv-x="618" d="M158 1210l12 56h616l-12 -56h-616z" />
<glyph unicode="&#xb0;" horiz-adv-x="559" d="M199 1159q0 94 65.5 160.5t159.5 66.5t160.5 -66.5t66.5 -160.5t-66.5 -159.5t-160.5 -65.5t-159.5 65.5t-65.5 159.5zM260 1159.5q0 -67.5 47 -116t114.5 -48.5t118 48.5t50.5 116t-49 116.5t-117 49t-116 -49t-48 -116.5z" />
<glyph unicode="&#xb1;" horiz-adv-x="888" d="M-39 61l12 62h772l-12 -62h-772zM94 659l15 62h352l84 381h65l-84 -381h353l-15 -62h-352l-86 -393h-66l86 393h-352z" />
<glyph unicode="&#xb2;" horiz-adv-x="634" d="M170 862l10 53l103 90l95 81l81 72q49 44 73 69l59 60q34 36 50 59.5t33.5 53.5t24 54.5t6.5 50.5q0 66 -45.5 100.5t-108.5 34.5q-115 0 -193 -102l-39 39q98 117 232 117q84 0 149.5 -47.5t65.5 -141.5q0 -37 -10.5 -71.5t-40.5 -77.5l-53 -73q-23 -30 -81 -84l-89 -82 l-112 -98l-118 -104h377l-10 -53h-459z" />
<glyph unicode="&#xb3;" horiz-adv-x="634" d="M193 995l51 29q53 -123 188 -123q88 0 139.5 67.5t51.5 155.5q0 63 -46.5 99.5t-115.5 36.5q-41 0 -53 -3l12 56q20 -2 86 -2q82 0 138 53t56 139q0 61 -45 99t-114 38q-100 0 -191 -100l-37 39q98 115 230 115q96 0 156.5 -48.5t60.5 -138.5q0 -86 -55.5 -150.5 t-143.5 -78.5q51 -12 87 -58t36 -112q0 -96 -68.5 -178t-183.5 -82q-180 0 -239 147z" />
<glyph unicode="&#xb4;" horiz-adv-x="331" d="M137 1139l309 295h93l-342 -295h-60z" />
<glyph unicode="&#xb5;" horiz-adv-x="890" d="M-41 -377l305 1366h62l-166 -749q-10 -44 -10 -80q0 -134 143 -133q80 0 170 55t147 133l174 774h62l-219 -989h-62l31 143q-154 -168 -322 -168q-121 0 -161 60l-90 -412h-64z" />
<glyph unicode="&#x3bc;" horiz-adv-x="890" d="M-41 -377l305 1366h62l-166 -749q-10 -44 -10 -80q0 -134 143 -133q80 0 170 55t147 133l174 774h62l-219 -989h-62l31 143q-154 -168 -322 -168q-121 0 -161 60l-90 -412h-64z" />
<glyph unicode="&#xb6;" horiz-adv-x="919" d="M162 981q0 150 115.5 267.5t281.5 117.5h363l-349 -1571h-61l336 1510h-201l-336 -1510h-61l192 867q-117 0 -198.5 91t-81.5 228z" />
<glyph unicode="&#xb7;" horiz-adv-x="425" d="M145 496q0 31 21.5 51t52.5 20q27 0 44.5 -17.5t17.5 -43.5q0 -31 -21.5 -51.5t-52.5 -20.5q-27 0 -44.5 17.5t-17.5 44.5z" />
<glyph unicode="&#x2219;" horiz-adv-x="425" d="M145 496q0 31 21.5 51t52.5 20q27 0 44.5 -17.5t17.5 -43.5q0 -31 -21.5 -51.5t-52.5 -20.5q-27 0 -44.5 17.5t-17.5 44.5z" />
<glyph unicode="&#xb8;" horiz-adv-x="350" d="M-182 -311l39 51q53 -68 141 -68q61 0 97 34t36 83q0 68 -74 68q-41 0 -73 -35l-37 26l102 175h62l-86 -144q25 23 61 23q47 0 75.5 -30t28.5 -81q0 -74 -56 -124t-142 -50q-113 0 -174 72z" />
<glyph unicode="&#xb9;" horiz-adv-x="391" d="M262 1501l211 180h55l-180 -819h-61l159 729l-151 -133z" />
<glyph unicode="&#xba;" horiz-adv-x="694" d="M184 901q0 150 89 288t227 138q106 0 165.5 -66.5t59.5 -183.5q0 -147 -89 -286.5t-226 -139.5q-106 0 -166 66.5t-60 183.5zM246 901q0 -90 44 -143t120 -53q113 0 184.5 122.5t71.5 249.5q0 90 -45.5 142.5t-122.5 52.5q-113 0 -182.5 -122t-69.5 -249z" />
<glyph unicode="&#xbb;" horiz-adv-x="653" d="M-23 129l347 373l-170 358h67l174 -368l-338 -363h-80zM178 129l344 373l-168 358h68l174 -368l-338 -363h-80z" />
<glyph unicode="&#xbc;" horiz-adv-x="1259" d="M80 0l1014 1366h71l-1015 -1366h-70zM193 1186l210 180h56l-180 -819h-62l160 729l-152 -133zM635 231l10 56l438 532h78l-119 -534h103l-10 -54h-103l-51 -231h-59l51 231h-338zM707 285h276l102 456z" />
<glyph unicode="&#xbd;" horiz-adv-x="1331" d="M80 0l1014 1366h71l-1015 -1366h-70zM193 1186l210 180h56l-180 -819h-62l160 729l-152 -133zM676 0l10 53l102 89l96 82l81 72q49 44 73 69l59 60q34 36 50 59.5t33.5 53t23.5 54t6 51.5q0 66 -45 100.5t-108 34.5q-115 0 -193 -102l-39 39q96 117 232 116 q84 0 149.5 -47t65.5 -141q0 -37 -10.5 -71.5t-40.5 -77.5l-54 -73q-23 -30 -81 -84l-89 -82l-111 -98l-118 -104h377l-10 -53h-459z" />
<glyph unicode="&#xbe;" horiz-adv-x="1425" d="M123 680l51 29q53 -123 188 -123q88 0 139.5 67.5t51.5 155.5q0 63 -46 99t-116 36q-41 0 -53 -2l12 55q20 -2 86 -2q82 0 138.5 53.5t56.5 139.5q0 61 -45 99t-115 38q-100 0 -190 -100l-37 39q98 115 229 114q96 0 156.5 -48t60.5 -138q0 -86 -55 -150.5t-143 -78.5 q51 -12 86.5 -58.5t35.5 -111.5q0 -96 -68.5 -178.5t-183.5 -82.5q-180 1 -239 148zM246 0l1014 1366h71l-1016 -1366h-69zM801 231l10 56l438 532h78l-119 -534h103l-11 -54h-102l-51 -231h-60l52 231h-338zM872 285h277l102 456z" />
<glyph unicode="&#xbf;" horiz-adv-x="663" d="M-63 -133q0 96 49 174t119.5 131t140 100t119 104.5t49.5 121t-33 106.5l55 41q43 -59 43 -139t-48 -145.5t-118 -112.5l-139 -96q-70 -49 -118 -120t-48 -159q0 -90 65.5 -150.5t178.5 -60.5q143 0 262 109l33 -50q-133 -121 -295 -120q-143 0 -229 77.5t-86 188.5z M430 936q0 31 21.5 51.5t52.5 20.5q27 0 44 -17.5t17 -44.5q0 -31 -21.5 -51.5t-51.5 -20.5q-27 0 -44.5 17.5t-17.5 44.5z" />
<glyph unicode="&#xc0;" horiz-adv-x="970" d="M-78 0l715 1366h78l112 -1366h-69l-29 367h-543l-188 -367h-76zM219 428h508l-65 852zM535 1786h88l178 -295h-56z" />
<glyph unicode="&#xc1;" horiz-adv-x="970" d="M-78 0l715 1366h78l112 -1366h-69l-29 367h-543l-188 -367h-76zM219 428h508l-65 852zM608 1491l310 295h92l-342 -295h-60z" />
<glyph unicode="&#xc2;" horiz-adv-x="970" d="M-78 0l715 1366h78l112 -1366h-69l-29 367h-543l-188 -367h-76zM219 428h508l-65 852zM498 1491l235 295h74l111 -295h-48l-108 242l-207 -242h-57z" />
<glyph unicode="&#xc3;" horiz-adv-x="970" d="M-78 0l715 1366h78l112 -1366h-69l-29 367h-543l-188 -367h-76zM219 428h508l-65 852zM440 1499q61 274 203 275q47 0 71.5 -36t30 -80t23.5 -80t53 -36q90 0 140 219h51q-57 -274 -203 -274q-49 0 -73.5 36t-30 80t-23.5 79.5t-53 35.5q-88 0 -137 -219h-52z" />
<glyph unicode="&#xc4;" horiz-adv-x="970" d="M-78 0l715 1366h78l112 -1366h-69l-29 367h-543l-188 -367h-76zM219 428h508l-65 852zM500 1559q0 27 18.5 45t44.5 18q23 0 37 -14.5t14 -36.5q0 -27 -18 -45.5t-45 -18.5q-23 0 -37 14.5t-14 37.5zM831 1559q0 27 18.5 45t45.5 18q23 0 37 -14.5t14 -36.5 q0 -27 -18.5 -45.5t-44.5 -18.5q-23 0 -37.5 14.5t-14.5 37.5z" />
<glyph unicode="&#xc5;" horiz-adv-x="970" d="M-78 0l715 1366h78l112 -1366h-69l-29 367h-543l-188 -367h-76zM219 428h508l-65 852zM553 1577q0 78 57.5 135t134.5 57q70 0 114 -45t44 -114q0 -78 -57.5 -135.5t-134.5 -57.5q-70 0 -114 45t-44 115zM602 1579q0 -47 31 -80t78 -33q59 0 101 41t42 99 q0 49 -30.5 81.5t-78.5 32.5q-59 0 -101 -42t-42 -99z" />
<glyph unicode="&#xc6;" horiz-adv-x="1474" d="M-68 0l955 1366h657l-12 -61h-567l-127 -572h553l-15 -61h-553l-135 -611h567l-12 -61h-633l80 367h-428l-252 -367h-78zM303 428h402l186 844z" />
<glyph unicode="&#xc7;" horiz-adv-x="1048" d="M125 442q0 221 78 437.5t221 363t313 146.5q264 -1 363 -259l-62 -24q-86 221 -309 221q-141 0 -266 -137t-195.5 -342t-70.5 -410q0 -193 89 -297t249 -104q156 0 307 168l47 -39q-162 -190 -361 -191h-14l-57 -96q25 23 61 23q47 0 76 -30t29 -81q0 -74 -56.5 -124 t-142.5 -50q-113 0 -174 72l39 51q53 -68 141 -68q61 0 97 34t36 83q0 68 -74 68q-41 0 -73 -35l-37 26l78 134q-154 23 -243 142t-89 318z" />
<glyph unicode="&#xc8;" horiz-adv-x="909" d="M53 0l301 1366h633l-12 -61h-567l-127 -572h553l-15 -61h-553l-135 -611h567l-12 -61h-633zM532 1786h89l178 -295h-56z" />
<glyph unicode="&#xc9;" horiz-adv-x="909" d="M53 0l301 1366h633l-12 -61h-567l-127 -572h553l-15 -61h-553l-135 -611h567l-12 -61h-633zM602 1491l309 295h93l-342 -295h-60z" />
<glyph unicode="&#xca;" horiz-adv-x="909" d="M53 0l301 1366h633l-12 -61h-567l-127 -572h553l-15 -61h-553l-135 -611h567l-12 -61h-633zM492 1491l235 295h74l110 -295h-47l-108 242l-207 -242h-57z" />
<glyph unicode="&#xcb;" horiz-adv-x="909" d="M53 0l301 1366h633l-12 -61h-567l-127 -572h553l-15 -61h-553l-135 -611h567l-12 -61h-633zM492 1559q0 27 18 45t45 18q23 0 37 -14.5t14 -36.5q0 -27 -18.5 -45.5t-44.5 -18.5q-23 0 -37 14.5t-14 37.5zM823 1559q0 27 18.5 45t45.5 18q23 0 37 -14.5t14 -36.5 q0 -27 -18.5 -45.5t-45.5 -18.5q-23 0 -37 14.5t-14 37.5z" />
<glyph unicode="&#xcc;" horiz-adv-x="393" d="M53 0l301 1366h66l-301 -1366h-66zM246 1786h88l178 -295h-55z" />
<glyph unicode="&#xcd;" horiz-adv-x="393" d="M53 0l301 1366h66l-301 -1366h-66zM319 1491l310 295h92l-342 -295h-60z" />
<glyph unicode="&#xce;" horiz-adv-x="393" d="M53 0l301 1366h66l-301 -1366h-66zM209 1491l235 295h74l111 -295h-47l-109 242l-207 -242h-57z" />
<glyph unicode="&#xcf;" horiz-adv-x="393" d="M53 0l301 1366h66l-301 -1366h-66zM213 1559q0 27 18.5 45t44.5 18q23 0 37.5 -14.5t14.5 -36.5q0 -27 -18.5 -45.5t-45.5 -18.5q-23 0 -37 14.5t-14 37.5zM545 1559q0 27 18.5 45t44.5 18q23 0 37 -14.5t14 -36.5q0 -27 -18 -45.5t-45 -18.5q-23 0 -37 14.5t-14 37.5z " />
<glyph unicode="&#xd0;" horiz-adv-x="1144" d="M72 653l14 62h174l143 651h291q164 0 277.5 -128t113.5 -351q0 -100 -23.5 -214t-76.5 -235t-130 -217t-195.5 -158.5t-258.5 -62.5h-299l144 653h-174zM180 61h232q115 0 216 55.5t170.5 143.5t120 197.5t74 220t23.5 209.5q0 193 -95.5 305.5t-238.5 112.5h-225 l-131 -590h290l-14 -62h-291z" />
<glyph unicode="&#xd1;" horiz-adv-x="1112" d="M53 0l301 1366h66l383 -1212l270 1212h66l-301 -1366h-66l-381 1227l-272 -1227h-66zM514 1499q61 274 203 275q47 0 71.5 -36t29.5 -80t23.5 -80t53.5 -36q90 0 139 219h51q-57 -274 -202 -274q-49 0 -74 36t-30 80t-23.5 79.5t-53.5 35.5q-88 0 -137 -219h-51z" />
<glyph unicode="&#xd2;" horiz-adv-x="1187" d="M125 442q0 156 44 322t121 305t195.5 229.5t251.5 90.5q182 0 294 -128t112 -339q0 -213 -74 -427t-219 -367t-322 -153q-182 0 -292.5 127t-110.5 340zM197 438q0 -190 93 -295.5t245 -105.5q145 0 271 136t195.5 339t69.5 412q0 190 -94 296.5t-248 106.5 q-145 0 -270 -136t-193.5 -340t-68.5 -413zM645 1786h88l178 -295h-55z" />
<glyph unicode="&#xd3;" horiz-adv-x="1187" d="M125 442q0 156 44 322t121 305t195.5 229.5t251.5 90.5q182 0 294 -128t112 -339q0 -213 -74 -427t-219 -367t-322 -153q-182 0 -292.5 127t-110.5 340zM197 438q0 -190 93 -295.5t245 -105.5q145 0 271 136t195.5 339t69.5 412q0 190 -94 296.5t-248 106.5 q-145 0 -270 -136t-193.5 -340t-68.5 -413zM717 1491l309 295h92l-342 -295h-59z" />
<glyph unicode="&#xd4;" horiz-adv-x="1187" d="M125 442q0 156 44 322t121 305t195.5 229.5t251.5 90.5q182 0 294 -128t112 -339q0 -213 -74 -427t-219 -367t-322 -153q-182 0 -292.5 127t-110.5 340zM197 438q0 -190 93 -295.5t245 -105.5q145 0 271 136t195.5 339t69.5 412q0 190 -94 296.5t-248 106.5 q-145 0 -270 -136t-193.5 -340t-68.5 -413zM606 1491l236 295h73l111 -295h-47l-109 242l-206 -242h-58z" />
<glyph unicode="&#xd5;" horiz-adv-x="1187" d="M125 442q0 156 44 322t121 305t195.5 229.5t251.5 90.5q182 0 294 -128t112 -339q0 -213 -74 -427t-219 -367t-322 -153q-182 0 -292.5 127t-110.5 340zM197 438q0 -190 93 -295.5t245 -105.5q145 0 271 136t195.5 339t69.5 412q0 190 -94 296.5t-248 106.5 q-145 0 -270 -136t-193.5 -340t-68.5 -413zM559 1499q61 274 203 275q47 0 71.5 -36t29.5 -80t23.5 -80t53.5 -36q90 0 139 219h51q-57 -274 -202 -274q-49 0 -74 36t-30 80t-23.5 79.5t-52.5 35.5q-88 0 -138 -219h-51z" />
<glyph unicode="&#xd6;" horiz-adv-x="1187" d="M125 442q0 156 44 322t121 305t195.5 229.5t251.5 90.5q182 0 294 -128t112 -339q0 -213 -74 -427t-219 -367t-322 -153q-182 0 -292.5 127t-110.5 340zM197 438q0 -190 93 -295.5t245 -105.5q145 0 271 136t195.5 339t69.5 412q0 190 -94 296.5t-248 106.5 q-145 0 -270 -136t-193.5 -340t-68.5 -413zM604 1559q0 27 18.5 45t45.5 18q20 0 35.5 -14.5t15.5 -36.5q0 -27 -18.5 -45.5t-45.5 -18.5q-20 0 -35.5 14.5t-15.5 37.5zM936 1559q0 27 18.5 45t44.5 18q20 0 36 -14.5t16 -36.5q0 -27 -18.5 -45.5t-45.5 -18.5 q-20 0 -35.5 14.5t-15.5 37.5z" />
<glyph unicode="&#xd7;" horiz-adv-x="888" d="M104 414l338 274l-213 273l52 38l208 -272l338 277l37 -48l-336 -276l211 -270l-49 -41l-211 272l-336 -276z" />
<glyph unicode="&#xd8;" horiz-adv-x="1187" d="M123 0l90 129q-88 123 -88 313q0 156 44 322t121 305t195.5 229.5t251.5 90.5q166 0 277 -111l61 88h72l-94 -133q90 -125 90 -311q0 -213 -74 -427t-219 -367t-322 -153q-168 0 -276 109l-59 -84h-70zM197 438q0 -150 59 -250l719 1035q-94 104 -246 104 q-145 0 -270 -136t-193.5 -340t-68.5 -413zM291 139q90 -102 244 -102q145 0 271 136t195.5 339t69.5 412q0 143 -61 247z" />
<glyph unicode="&#xd9;" horiz-adv-x="1093" d="M135 313q0 43 10 105l209 948h66l-209 -948q-10 -41 -10 -94q0 -133 78.5 -210t212.5 -77q147 0 229 92t125 289l209 948h65l-209 -948q-49 -225 -146 -334t-276 -109q-162 0 -258 90t-96 248zM596 1786h88l178 -295h-55z" />
<glyph unicode="&#xda;" horiz-adv-x="1093" d="M135 313q0 43 10 105l209 948h66l-209 -948q-10 -41 -10 -94q0 -133 78.5 -210t212.5 -77q147 0 229 92t125 289l209 948h65l-209 -948q-49 -225 -146 -334t-276 -109q-162 0 -258 90t-96 248zM666 1491l309 295h92l-342 -295h-59z" />
<glyph unicode="&#xdb;" horiz-adv-x="1093" d="M135 313q0 43 10 105l209 948h66l-209 -948q-10 -41 -10 -94q0 -133 78.5 -210t212.5 -77q147 0 229 92t125 289l209 948h65l-209 -948q-49 -225 -146 -334t-276 -109q-162 0 -258 90t-96 248zM559 1491l236 295h73l111 -295h-47l-109 242l-207 -242h-57z" />
<glyph unicode="&#xdc;" horiz-adv-x="1093" d="M135 313q0 43 10 105l209 948h66l-209 -948q-10 -41 -10 -94q0 -133 78.5 -210t212.5 -77q147 0 229 92t125 289l209 948h65l-209 -948q-49 -225 -146 -334t-276 -109q-162 0 -258 90t-96 248zM559 1559q0 27 18.5 45t45.5 18q20 0 35.5 -14.5t15.5 -36.5 q0 -27 -18.5 -45.5t-45.5 -18.5q-20 0 -35.5 14.5t-15.5 37.5zM891 1559q0 27 18.5 45t44.5 18q20 0 36 -14.5t16 -36.5q0 -27 -18.5 -45.5t-45.5 -18.5q-20 0 -35.5 14.5t-15.5 37.5z" />
<glyph unicode="&#xdd;" horiz-adv-x="954" d="M215 1366h72l221 -700l530 700h84l-592 -774l-131 -592h-65l131 592zM608 1491l310 295h92l-342 -295h-60z" />
<glyph unicode="&#xde;" horiz-adv-x="917" d="M53 0l301 1366h66l-58 -264h250q121 0 200 -87t79 -218q0 -80 -25.5 -160t-75 -150.5t-135.5 -114.5t-196 -44h-269l-71 -328h-66zM205 389h264q168 0 259 122t91 286q0 106 -61.5 174.5t-157.5 68.5h-252z" />
<glyph unicode="&#xdf;" horiz-adv-x="976" d="M57 0l242 1090q31 137 116 216.5t203 79.5q106 0 179 -57t73 -149q0 -70 -37.5 -122t-93.5 -83l-109 -61q-54 -30 -92 -74.5t-38 -106.5q0 -57 40 -102t97 -79l115 -69q57 -35 97 -90t40 -125q0 -115 -83 -204t-224 -89q-199 0 -310 156l56 41q92 -141 256 -141 q106 0 173.5 68.5t67.5 166.5q0 57 -40 103.5t-97 79.5l-114 66q-56 34 -96 87t-40 123q0 74 38 128t92 87l110 64q55 31 93 72.5t38 97.5q0 72 -57.5 114.5t-135.5 42.5q-90 0 -160.5 -62.5t-95.5 -178.5l-241 -1090h-62z" />
<glyph unicode="&#xe0;" d="M84 315q0 150 51 307.5t156.5 274.5t236.5 117q90 0 161 -50.5t108 -140.5l34 166h62l-219 -989h-62l33 147q-113 -172 -278 -172q-129 0 -206 91t-77 249zM152 317q0 -139 59 -212.5t166 -73.5q82 0 161.5 60.5t129.5 148.5l112 514q-23 86 -92.5 145t-161.5 59 q-109 0 -198.5 -110.5t-132.5 -256t-43 -274.5zM410 1434h88l178 -295h-55z" />
<glyph unicode="&#xe1;" d="M84 315q0 150 51 307.5t156.5 274.5t236.5 117q90 0 161 -50.5t108 -140.5l34 166h62l-219 -989h-62l33 147q-113 -172 -278 -172q-129 0 -206 91t-77 249zM152 317q0 -139 59 -212.5t166 -73.5q82 0 161.5 60.5t129.5 148.5l112 514q-23 86 -92.5 145t-161.5 59 q-109 0 -198.5 -110.5t-132.5 -256t-43 -274.5zM485 1139l310 295h92l-342 -295h-60z" />
<glyph unicode="&#xe2;" d="M84 315q0 150 51 307.5t156.5 274.5t236.5 117q90 0 161 -50.5t108 -140.5l34 166h62l-219 -989h-62l33 147q-113 -172 -278 -172q-129 0 -206 91t-77 249zM152 317q0 -139 59 -212.5t166 -73.5q82 0 161.5 60.5t129.5 148.5l112 514q-23 86 -92.5 145t-161.5 59 q-109 0 -198.5 -110.5t-132.5 -256t-43 -274.5zM373 1139l235 295h74l111 -295h-48l-108 241l-207 -241h-57z" />
<glyph unicode="&#xe3;" d="M84 315q0 150 51 307.5t156.5 274.5t236.5 117q90 0 161 -50.5t108 -140.5l34 166h62l-219 -989h-62l33 147q-113 -172 -278 -172q-129 0 -206 91t-77 249zM152 317q0 -139 59 -212.5t166 -73.5q82 0 161.5 60.5t129.5 148.5l112 514q-23 86 -92.5 145t-161.5 59 q-109 0 -198.5 -110.5t-132.5 -256t-43 -274.5zM326 1147q61 274 202 274q47 0 72 -35.5t30 -79.5t23.5 -80t53.5 -36q90 0 139 219h51q-57 -274 -203 -274q-49 0 -73.5 35.5t-29.5 79.5t-23.5 80t-53.5 36q-88 0 -137 -219h-51z" />
<glyph unicode="&#xe4;" d="M84 315q0 150 51 307.5t156.5 274.5t236.5 117q90 0 161 -50.5t108 -140.5l34 166h62l-219 -989h-62l33 147q-113 -172 -278 -172q-129 0 -206 91t-77 249zM152 317q0 -139 59 -212.5t166 -73.5q82 0 161.5 60.5t129.5 148.5l112 514q-23 86 -92.5 145t-161.5 59 q-109 0 -198.5 -110.5t-132.5 -256t-43 -274.5zM379 1219q0 27 18.5 45t44.5 18q20 0 36 -14.5t16 -36.5q0 -27 -18.5 -45.5t-45.5 -18.5q-20 0 -35.5 14.5t-15.5 37.5zM711 1219q0 27 18.5 45t44.5 18q20 0 35.5 -14.5t15.5 -36.5q0 -27 -18.5 -45.5t-44.5 -18.5 q-20 0 -35.5 14.5t-15.5 37.5z" />
<glyph unicode="&#xe5;" d="M84 315q0 150 51 307.5t156.5 274.5t236.5 117q90 0 161 -50.5t108 -140.5l34 166h62l-219 -989h-62l33 147q-113 -172 -278 -172q-129 0 -206 91t-77 249zM152 317q0 -139 59 -212.5t166 -73.5q82 0 161.5 60.5t129.5 148.5l112 514q-23 86 -92.5 145t-161.5 59 q-109 0 -198.5 -110.5t-132.5 -256t-43 -274.5zM444 1292q0 76 58.5 134.5t134.5 58.5q70 0 114 -45t44 -115q0 -78 -57.5 -135t-135.5 -57q-70 0 -114 44.5t-44 114.5zM494 1294q0 -47 30.5 -79.5t77.5 -32.5q59 0 101 41t42 98q0 49 -30.5 82t-77.5 33q-59 0 -101 -42.5 t-42 -99.5z" />
<glyph unicode="&#xe6;" horiz-adv-x="1548" d="M84 315q0 150 51 307.5t156.5 274.5t236.5 117q90 0 161 -50.5t108 -140.5l34 166h62l-51 -225q137 250 325 250q143 0 221 -92.5t78 -257.5q0 -90 -26 -189h-658q-12 -57 -12 -125q0 -143 74 -231t209 -88q127 0 239 125l39 -43q-127 -137 -276 -138q-137 0 -220 76 t-102 217l-59 -268h-62l33 147q-113 -172 -278 -172q-129 0 -206 91t-77 249zM152 317q0 -139 59 -212.5t166 -73.5q82 0 161.5 60.5t129.5 148.5l112 514q-23 86 -92.5 145t-161.5 59q-109 0 -198.5 -110.5t-132.5 -256t-43 -274.5zM791 530h598q14 72 14 125 q0 137 -60.5 220t-181.5 83q-133 0 -236 -132t-134 -296z" />
<glyph unicode="&#xe7;" horiz-adv-x="806" d="M86 350q0 150 55.5 299.5t166 257t247.5 107.5q174 0 254 -137l-49 -39q-66 121 -205 120q-123 0 -218 -105t-139 -242.5t-44 -270.5q0 -154 70.5 -231.5t187.5 -77.5q121 0 211 104l36 -43q-115 -117 -249 -117h-15l-57 -96q25 23 61 23q47 0 76 -30t29 -81 q0 -74 -56.5 -124t-142.5 -50q-113 0 -174 72l39 51q53 -68 141 -68q61 0 97 34t36 83q0 68 -73 68q-41 0 -74 -35l-37 26l78 136q-117 20 -184.5 113t-67.5 253z" />
<glyph unicode="&#xe8;" d="M84 348q0 133 51 281.5t162 266.5t252 118q143 0 226 -93.5t83 -256.5q0 -90 -27 -189h-665q-12 -57 -12 -125q0 -145 72.5 -232t207.5 -87q133 0 248 125l39 -43q-131 -137 -287 -138q-164 0 -257 99.5t-93 273.5zM174 530h596h10q14 72 15 125q0 135 -66.5 219 t-187.5 84q-131 0 -234.5 -132t-132.5 -296zM449 1434h88l178 -295h-56z" />
<glyph unicode="&#xe9;" d="M84 348q0 133 51 281.5t162 266.5t252 118q143 0 226 -93.5t83 -256.5q0 -90 -27 -189h-665q-12 -57 -12 -125q0 -145 72.5 -232t207.5 -87q133 0 248 125l39 -43q-131 -137 -287 -138q-164 0 -257 99.5t-93 273.5zM174 530h596h10q14 72 15 125q0 135 -66.5 219 t-187.5 84q-131 0 -234.5 -132t-132.5 -296zM518 1139l309 295h93l-342 -295h-60z" />
<glyph unicode="&#xea;" d="M84 348q0 133 51 281.5t162 266.5t252 118q143 0 226 -93.5t83 -256.5q0 -90 -27 -189h-665q-12 -57 -12 -125q0 -145 72.5 -232t207.5 -87q133 0 248 125l39 -43q-131 -137 -287 -138q-164 0 -257 99.5t-93 273.5zM174 530h596h10q14 72 15 125q0 135 -66.5 219 t-187.5 84q-131 0 -234.5 -132t-132.5 -296zM410 1139l235 295h74l110 -295h-47l-108 241l-207 -241h-57z" />
<glyph unicode="&#xeb;" d="M84 348q0 133 51 281.5t162 266.5t252 118q143 0 226 -93.5t83 -256.5q0 -90 -27 -189h-665q-12 -57 -12 -125q0 -145 72.5 -232t207.5 -87q133 0 248 125l39 -43q-131 -137 -287 -138q-164 0 -257 99.5t-93 273.5zM174 530h596h10q14 72 15 125q0 135 -66.5 219 t-187.5 84q-131 0 -234.5 -132t-132.5 -296zM412 1219q0 27 18.5 45t44.5 18q20 0 35.5 -14.5t15.5 -36.5q0 -27 -18.5 -45.5t-44.5 -18.5q-20 0 -35.5 14.5t-15.5 37.5zM743 1219q0 27 18.5 45t45.5 18q20 0 35.5 -14.5t15.5 -36.5q0 -27 -18.5 -45.5t-44.5 -18.5 q-20 0 -36 14.5t-16 37.5z" />
<glyph unicode="&#xec;" horiz-adv-x="370" d="M45 0l219 989h62l-220 -989h-61zM154 1434h88l178 -295h-55z" />
<glyph unicode="&#xed;" horiz-adv-x="370" d="M45 0l219 989h62l-220 -989h-61zM229 1139l310 295h92l-342 -295h-60z" />
<glyph unicode="&#xee;" horiz-adv-x="370" d="M45 0l219 989h62l-220 -989h-61zM117 1139l235 295h74l111 -295h-48l-108 241l-207 -241h-57z" />
<glyph unicode="&#xef;" horiz-adv-x="370" d="M45 0l219 989h62l-220 -989h-61zM121 1219q0 27 18.5 45t44.5 18q20 0 36 -14.5t16 -36.5q0 -27 -18.5 -45.5t-45.5 -18.5q-20 0 -35.5 14.5t-15.5 37.5zM453 1219q0 27 18 45t45 18q20 0 35.5 -14.5t15.5 -36.5q0 -27 -18.5 -45.5t-44.5 -18.5q-20 0 -35.5 14.5 t-15.5 37.5z" />
<glyph unicode="&#xf0;" horiz-adv-x="944" d="M86 336q0 158 57.5 312.5t164 260t231.5 105.5q78 0 148.5 -42t103.5 -132q-45 174 -136 334l-280 -84l-13 51l265 80q-51 80 -107 141l58 37q78 -100 112 -158l205 62l12 -52l-188 -57q141 -246 141 -471q0 -172 -52 -340t-159.5 -288t-245.5 -120q-147 0 -232 97.5 t-85 263.5zM154 338q0 -150 66.5 -228.5t182.5 -78.5q106 0 198.5 107.5t139.5 253t47 274.5q0 115 -62 203.5t-187 88.5q-106 0 -197.5 -104t-139.5 -245.5t-48 -270.5z" />
<glyph unicode="&#xf1;" horiz-adv-x="890" d="M45 0l219 989h62l-33 -147q145 172 297 172q98 0 155.5 -47t57.5 -140q0 -41 -12 -77l-164 -750h-62l166 750q10 51 10 69q0 139 -163 139q-78 0 -159 -56t-145 -138l-168 -764h-61zM336 1147q61 274 203 274q47 0 71.5 -35.5t29.5 -79.5t23.5 -80t53.5 -36q90 0 139 219 h51q-57 -274 -202 -274q-49 0 -74 35.5t-30 79.5t-23.5 80t-53.5 36q-88 0 -137 -219h-51z" />
<glyph unicode="&#xf2;" horiz-adv-x="944" d="M84 334q0 154 54.5 307.5t164 263t244.5 109.5q143 0 227 -92.5t84 -266.5q0 -154 -54 -307t-164 -263t-245 -110q-143 0 -227 92.5t-84 266.5zM152 334q0 -147 64.5 -225t180.5 -78q111 0 205 104.5t141.5 246.5t47.5 273q0 147 -64.5 225t-181.5 78q-111 0 -205 -104 t-141 -246.5t-47 -273.5zM444 1434h88l179 -295h-56z" />
<glyph unicode="&#xf3;" horiz-adv-x="944" d="M84 334q0 154 54.5 307.5t164 263t244.5 109.5q143 0 227 -92.5t84 -266.5q0 -154 -54 -307t-164 -263t-245 -110q-143 0 -227 92.5t-84 266.5zM152 334q0 -147 64.5 -225t180.5 -78q111 0 205 104.5t141.5 246.5t47.5 273q0 147 -64.5 225t-181.5 78q-111 0 -205 -104 t-141 -246.5t-47 -273.5zM516 1139l309 295h93l-343 -295h-59z" />
<glyph unicode="&#xf4;" horiz-adv-x="944" d="M84 334q0 154 54.5 307.5t164 263t244.5 109.5q143 0 227 -92.5t84 -266.5q0 -154 -54 -307t-164 -263t-245 -110q-143 0 -227 92.5t-84 266.5zM152 334q0 -147 64.5 -225t180.5 -78q111 0 205 104.5t141.5 246.5t47.5 273q0 147 -64.5 225t-181.5 78q-111 0 -205 -104 t-141 -246.5t-47 -273.5zM406 1139l235 295h74l110 -295h-47l-108 241l-207 -241h-57z" />
<glyph unicode="&#xf5;" horiz-adv-x="944" d="M84 334q0 154 54.5 307.5t164 263t244.5 109.5q143 0 227 -92.5t84 -266.5q0 -154 -54 -307t-164 -263t-245 -110q-143 0 -227 92.5t-84 266.5zM152 334q0 -147 64.5 -225t180.5 -78q111 0 205 104.5t141.5 246.5t47.5 273q0 147 -64.5 225t-181.5 78q-111 0 -205 -104 t-141 -246.5t-47 -273.5zM360 1147q61 274 203 274q47 0 71.5 -35.5t30 -79.5t24 -80t52.5 -36q90 0 140 219h51q-57 -274 -203 -274q-49 0 -73.5 35.5t-29.5 79.5t-23.5 80t-53.5 36q-88 0 -137 -219h-52z" />
<glyph unicode="&#xf6;" horiz-adv-x="944" d="M84 334q0 154 54.5 307.5t164 263t244.5 109.5q143 0 227 -92.5t84 -266.5q0 -154 -54 -307t-164 -263t-245 -110q-143 0 -227 92.5t-84 266.5zM152 334q0 -147 64.5 -225t180.5 -78q111 0 205 104.5t141.5 246.5t47.5 273q0 147 -64.5 225t-181.5 78q-111 0 -205 -104 t-141 -246.5t-47 -273.5zM410 1219q0 27 18 45t45 18q23 0 37 -14.5t14 -36.5q0 -27 -18.5 -45.5t-44.5 -18.5q-23 0 -37 14.5t-14 37.5zM741 1219q0 27 18.5 45t45.5 18q23 0 37 -14.5t14 -36.5q0 -27 -18.5 -45.5t-44.5 -18.5q-23 0 -37.5 14.5t-14.5 37.5z" />
<glyph unicode="&#xf7;" horiz-adv-x="907" d="M94 659l15 62h788l-14 -62h-789zM350 330q0 31 21.5 51t52.5 20q27 0 44 -17t17 -44q0 -31 -21.5 -51.5t-51.5 -20.5q-27 0 -44.5 17.5t-17.5 44.5zM506 1030q0 31 21.5 51.5t52.5 20.5q27 0 44 -17.5t17 -44.5q0 -31 -21.5 -51t-52.5 -20q-27 0 -44 17t-17 44z" />
<glyph unicode="&#xf8;" horiz-adv-x="944" d="M33 0l98 121q-47 84 -47 213q0 154 54.5 307.5t164 263t244.5 109.5q143 0 227 -94l57 69h68l-92 -115q51 -86 51 -219q0 -154 -54 -307t-164 -263t-245 -110q-152 0 -233 101l-62 -76h-67zM152 334q0 -92 24 -156l559 690q-66 90 -190 90q-111 0 -205 -104t-141 -246.5 t-47 -273.5zM203 127q61 -96 194 -96q111 0 205 104.5t141.5 246.5t47.5 273q0 94 -29 164z" />
<glyph unicode="&#xf9;" horiz-adv-x="890" d="M88 164q0 27 10 78l166 747h62l-166 -749q-10 -47 -10 -68q0 -141 161 -141q78 0 159 54t142 134l172 770h62l-219 -989h-62l33 147q-150 -172 -299 -172q-96 0 -153.5 48.5t-57.5 140.5zM420 1434h88l178 -295h-55z" />
<glyph unicode="&#xfa;" horiz-adv-x="890" d="M88 164q0 27 10 78l166 747h62l-166 -749q-10 -47 -10 -68q0 -141 161 -141q78 0 159 54t142 134l172 770h62l-219 -989h-62l33 147q-150 -172 -299 -172q-96 0 -153.5 48.5t-57.5 140.5zM492 1139l309 295h92l-342 -295h-59z" />
<glyph unicode="&#xfb;" horiz-adv-x="890" d="M88 164q0 27 10 78l166 747h62l-166 -749q-10 -47 -10 -68q0 -141 161 -141q78 0 159 54t142 134l172 770h62l-219 -989h-62l33 147q-150 -172 -299 -172q-96 0 -153.5 48.5t-57.5 140.5zM379 1139l235 295h74l111 -295h-47l-109 241l-207 -241h-57z" />
<glyph unicode="&#xfc;" horiz-adv-x="890" d="M88 164q0 27 10 78l166 747h62l-166 -749q-10 -47 -10 -68q0 -141 161 -141q78 0 159 54t142 134l172 770h62l-219 -989h-62l33 147q-150 -172 -299 -172q-96 0 -153.5 48.5t-57.5 140.5zM389 1219q0 27 18.5 45t45.5 18q23 0 37 -14.5t14 -36.5q0 -27 -18.5 -45.5 t-45.5 -18.5q-23 0 -37 14.5t-14 37.5zM721 1219q0 27 18.5 45t44.5 18q23 0 37.5 -14.5t14.5 -36.5q0 -27 -18.5 -45.5t-45.5 -18.5q-23 0 -37 14.5t-14 37.5z" />
<glyph unicode="&#xfd;" horiz-adv-x="768" d="M-115 -383l25 57q23 -16 72 -16q39 0 68.5 25.5t68.5 93.5l114 200l-96 1012h66l84 -911l489 911h74l-678 -1233q-86 -158 -205 -157q-49 0 -82 18zM428 1139l309 295h92l-342 -295h-59z" />
<glyph unicode="&#xfe;" horiz-adv-x="935" d="M-41 -377l387 1743h62l-115 -522q111 170 278 170q129 0 206 -90t77 -248q0 -152 -51 -309.5t-156.5 -274.5t-236.5 -117q-90 0 -161 51.5t-108 141.5l-118 -545h-64zM158 236q23 -86 92 -145.5t162 -59.5q109 0 198.5 111.5t132.5 256t43 275.5q0 139 -59 211.5 t-166 72.5q-82 0 -162 -60t-129 -148z" />
<glyph unicode="&#xff;" horiz-adv-x="768" d="M-115 -383l25 57q23 -16 72 -16q39 0 68.5 25.5t68.5 93.5l114 200l-96 1012h66l84 -911l489 911h74l-678 -1233q-86 -158 -205 -157q-49 0 -82 18zM322 1219q0 27 18 45t45 18q20 0 35.5 -14.5t15.5 -36.5q0 -27 -18.5 -45.5t-44.5 -18.5q-20 0 -35.5 14.5t-15.5 37.5z M653 1219q0 27 18.5 45t45.5 18q20 0 35.5 -14.5t15.5 -36.5q0 -27 -18.5 -45.5t-44.5 -18.5q-20 0 -36 14.5t-16 37.5z" />
<glyph unicode="&#x152;" horiz-adv-x="1726" d="M125 442q0 145 46 308t125 306.5t202 236.5t260 93q281 0 348 -284l57 264h633l-12 -61h-567l-127 -572h552l-14 -61h-553l-135 -611h567l-12 -61h-633l45 211q-152 -236 -399 -236q-178 0 -280.5 129t-102.5 338zM197 438q0 -180 86 -290.5t237 -110.5q123 0 235.5 87 t186.5 238l129 588q-14 182 -98 278.5t-230 96.5q-150 0 -279.5 -145.5t-198 -348.5t-68.5 -393z" />
<glyph unicode="&#x153;" horiz-adv-x="1597" d="M84 334q0 160 55.5 314.5t163 260t240.5 105.5q141 0 217 -89t78 -206q133 295 372 295q143 0 224.5 -93.5t81.5 -256.5q0 -98 -25 -189h-660q-12 -55 -12 -125q0 -150 73 -234.5t204 -84.5q135 0 243 125l39 -43q-127 -137 -280.5 -137.5t-241.5 90t-92 210.5 q-139 -301 -373 -301q-141 0 -224 93.5t-83 265.5zM152 334q0 -143 62 -223t179 -80q109 0 202 104.5t140 246.5t47 273q0 154 -66.5 228.5t-175 74.5t-200.5 -103t-140 -245.5t-48 -275.5zM840 530h598q14 53 14 125q0 139 -64.5 221t-183.5 82q-139 0 -238 -135t-126 -293 z" />
<glyph unicode="&#x178;" horiz-adv-x="954" d="M215 1366h72l221 -700l530 700h84l-592 -774l-131 -592h-65l131 592zM498 1559q0 27 18.5 45t44.5 18q20 0 35.5 -14.5t15.5 -36.5q0 -27 -18.5 -45.5t-44.5 -18.5q-20 0 -35.5 14.5t-15.5 37.5zM829 1559q0 27 18.5 45t45.5 18q20 0 35.5 -14.5t15.5 -36.5 q0 -27 -18.5 -45.5t-44.5 -18.5q-20 0 -36 14.5t-16 37.5z" />
<glyph unicode="&#x2c6;" horiz-adv-x="419" d="M141 1139l236 295h74l110 -295h-47l-108 241l-207 -241h-58z" />
<glyph unicode="&#x2dc;" horiz-adv-x="514" d="M143 1147q61 274 203 274q47 0 71.5 -35.5t30 -79.5t23.5 -80t53 -36q90 0 140 219h51q-57 -274 -203 -274q-49 0 -73.5 35.5t-30 79.5t-23.5 80t-53 36q-88 0 -137 -219h-52z" />
<glyph unicode="&#x2013;" horiz-adv-x="1079" d="M53 465l13 61h956l-12 -61h-957z" />
<glyph unicode="&#x2014;" horiz-adv-x="1509" d="M53 465l13 61h1386l-12 -61h-1387z" />
<glyph unicode="&#x2018;" horiz-adv-x="425" d="M268 1120q0 74 55.5 151t127.5 115l36 -40q-55 -31 -96 -78t-51 -94h12q20 0 37 -17.5t17 -40.5q0 -31 -22 -52.5t-50 -21.5q-66 0 -66 78z" />
<glyph unicode="&#x2019;" horiz-adv-x="425" d="M246 1083q55 31 96 78t51 94h-12q-20 0 -36.5 17.5t-16.5 40.5q0 31 21.5 52t49.5 21q66 0 66 -77q0 -74 -55.5 -151t-126.5 -116z" />
<glyph unicode="&#x201a;" horiz-adv-x="425" d="M-37 -188q55 31 96 78t52 94h-13q-20 0 -36.5 17t-16.5 40q0 31 21.5 52.5t50.5 21.5q66 0 65 -78q0 -74 -55 -150.5t-127 -115.5z" />
<glyph unicode="&#x201c;" horiz-adv-x="677" d="M281 1120q0 74 55 151t127 115l37 -40q-55 -31 -96.5 -78t-51.5 -94h13q20 0 36.5 -17.5t16.5 -40.5q0 -31 -21.5 -52.5t-50.5 -21.5q-65 0 -65 78zM530 1120q0 74 55.5 151t127.5 115l37 -40q-55 -31 -96.5 -78t-51.5 -94h12q20 0 37 -17.5t17 -40.5q0 -31 -21.5 -52.5 t-50.5 -21.5q-66 0 -66 78z" />
<glyph unicode="&#x201d;" horiz-adv-x="677" d="M246 1083q55 31 96 78t51 94h-12q-20 0 -36.5 17.5t-16.5 40.5q0 31 21.5 52t49.5 21q66 0 66 -77q0 -74 -55.5 -151t-126.5 -116zM496 1083q55 31 96 78t51 94h-12q-20 0 -36.5 17.5t-16.5 40.5q0 31 21.5 52t49.5 21q66 0 66 -77q0 -74 -55.5 -151t-127.5 -116z" />
<glyph unicode="&#x201e;" horiz-adv-x="677" d="M-37 -188q55 31 96 78t52 94h-13q-20 0 -36.5 17t-16.5 40q0 31 21.5 52.5t50.5 21.5q66 0 65 -78q0 -74 -55 -150.5t-127 -115.5zM213 -188q55 31 96 78t51 94h-12q-20 0 -36.5 17t-16.5 40q0 31 21.5 52.5t50.5 21.5q66 0 65 -78q0 -74 -55 -150.5t-127 -115.5z" />
<glyph unicode="&#x2022;" horiz-adv-x="733" d="M164 477q0 88 67.5 153.5t157.5 65.5q78 0 129 -51t51 -129q0 -88 -67.5 -153.5t-157.5 -65.5q-78 0 -129 52t-51 128z" />
<glyph unicode="&#x2026;" horiz-adv-x="1277" d="M45 43q0 31 21.5 51.5t52.5 20.5q27 0 44 -17.5t17 -44.5q0 -31 -21.5 -51t-52.5 -20q-27 0 -44 17t-17 44zM471 43q0 31 21.5 51.5t52.5 20.5q27 0 44 -17.5t17 -44.5q0 -31 -21.5 -51t-52.5 -20q-27 0 -44 17t-17 44zM897 43q0 31 21.5 51.5t52.5 20.5q27 0 44 -17.5 t17 -44.5q0 -31 -21.5 -51t-52.5 -20q-27 0 -44 17t-17 44z" />
<glyph unicode="&#x2039;" horiz-adv-x="452" d="M59 498l338 362h80l-344 -371l168 -360h-68z" />
<glyph unicode="&#x203a;" horiz-adv-x="452" d="M-23 129l347 373l-170 358h67l174 -368l-338 -363h-80z" />
<glyph unicode="&#x20ac;" horiz-adv-x="1075" d="M59 506l15 61h90q12 117 47 234h-86l14 61h90q80 229 223.5 378t317.5 149q264 0 363 -259l-62 -24q-86 221 -309 221q-139 0 -261 -130t-196 -335h508l-14 -61h-514q-35 -117 -47 -234h510l-15 -61h-502q-2 -23 -2 -68q0 -193 89.5 -297t248.5 -104q156 0 307 168 l48 -39q-162 -190 -361 -191q-182 0 -292.5 123t-110.5 344q0 41 2 64h-101z" />
<glyph unicode="&#x2122;" horiz-adv-x="847" d="M215 1313l10 53h271l-11 -53h-106l-88 -398h-58l89 398h-107zM471 915l98 451h88l41 -324l181 324h88l-99 -451h-57l82 373l-215 -373h-16l-52 373l-82 -373h-57z" />
<glyph unicode="&#xe000;" horiz-adv-x="990" d="M0 990h990v-990h-990v990z" />
<glyph unicode="&#xfb01;" horiz-adv-x="829" d="M72 0l207 934h-134l13 55h133l35 162q51 236 237 235q63 0 105 -28l-33 -51q-31 25 -78 24q-131 0 -170 -180l-35 -162h172l-12 -55h-172l-207 -934h-61zM504 0l219 989h61l-219 -989h-61zM741 1212q0 29 21.5 47.5t46.5 18.5q23 0 39 -15.5t16 -37.5q0 -29 -21.5 -47.5 t-45.5 -18.5q-23 0 -39.5 15t-16.5 38z" />
<glyph unicode="&#xfb02;" horiz-adv-x="829" d="M72 0l207 934h-134l13 55h133l35 162q51 236 237 235q63 0 105 -28l-33 -51q-31 25 -78 24q-131 0 -170 -180l-35 -162h172l-12 -55h-172l-207 -934h-61zM504 0l301 1366h61l-301 -1366h-61z" />
<glyph unicode="&#xfb03;" horiz-adv-x="1288" d="M72 0l207 934h-134l13 55h133l35 162q53 236 237 235q92 0 144 -63l-45 -45q-37 53 -105 53q-131 0 -170 -180l-35 -162h172l-12 -55h-172l-207 -934h-61zM530 0l207 934h-133l12 55h134l34 162q51 236 238 235q63 0 104 -28l-32 -51q-31 25 -78 24q-131 0 -170 -180 l-35 -162h172l-12 -55h-172l-207 -934h-62zM963 0l219 989h61l-219 -989h-61zM1200 1212q0 29 21.5 47.5t46.5 18.5q23 0 39 -15.5t16 -37.5q0 -29 -21.5 -47.5t-46.5 -18.5q-23 0 -39 15t-16 38z" />
<glyph unicode="&#xfb04;" horiz-adv-x="1288" d="M72 0l207 934h-134l13 55h133l35 162q53 236 237 235q92 0 144 -63l-45 -45q-37 53 -105 53q-131 0 -170 -180l-35 -162h172l-12 -55h-172l-207 -934h-61zM530 0l207 934h-133l12 55h134l34 162q51 236 238 235q63 0 104 -28l-32 -51q-31 25 -78 24q-131 0 -170 -180 l-35 -162h172l-12 -55h-172l-207 -934h-62zM963 0l301 1366h61l-301 -1366h-61z" />
</font>
</defs>
</svg>
