<?xml version="1.0" standalone="no"?>
<!DOCTYPE svg PUBLIC "-//W3C//DTD SVG 1.1//EN" "http://www.w3.org/Graphics/SVG/1.1/DTD/svg11.dtd" >
<svg xmlns="http://www.w3.org/2000/svg">
<metadata>
This is a custom SVG webfont generated by Font Squirrel.
Copyright   : Copyright c Mark Simonson 2005 All rights reserved
Designer    : Mark Simonson
Foundry URL : httpwwwmarksimonsoncom
</metadata>
<defs>
<font id="ProximaNovaExtraCondenseSBdIt" horiz-adv-x="823" >
<font-face units-per-em="2048" ascent="1618" descent="-430" />
<missing-glyph horiz-adv-x="337" />
<glyph unicode=" "  horiz-adv-x="337" />
<glyph unicode="&#x09;" horiz-adv-x="337" />
<glyph unicode="&#xa0;" horiz-adv-x="337" />
<glyph unicode="!" horiz-adv-x="489" d="M25 98q0 57 43 100.5t100 43.5q51 0 86 -36t35 -85q0 -59 -43 -101.5t-103 -42.5q-49 0 -83.5 35t-34.5 86zM141 406l176 960h236l-248 -960h-164z" />
<glyph unicode="&#x22;" horiz-adv-x="749" d="M236 817q33 418 32 438q4 57 40 94t89 37q41 0 70 -28.5t29 -71.5q0 -8 -2 -18.5t-6.5 -20.5t-4.5 -14l-159 -416h-88zM563 817q33 418 33 438q2 57 38 94t89 37q41 0 69.5 -28.5t28.5 -71.5q0 -23 -12 -53l-158 -416h-88z" />
<glyph unicode="#" horiz-adv-x="903" d="M-33 0l164 362h-129l57 130h131l175 382h-134l56 127h133l166 365h147l-164 -365h136l163 365h148l-164 -365h129l-55 -127h-131l-177 -382h138l-58 -130h-137l-164 -362h-149l168 362h-137l-164 -362h-148zM338 492h133l174 382h-133z" />
<glyph unicode="$" horiz-adv-x="755" d="M-41 125l127 158q33 -51 88 -84t113 -33q74 0 129 61.5t55 161.5q0 63 -47 131t-103.5 122t-103.5 141t-47 184q0 162 100.5 280.5t247.5 136.5l43 189h150l-45 -197q121 -31 188 -110l-117 -158q-68 90 -174 90q-74 0 -120 -57.5t-46 -136.5q0 -57 46 -125t101.5 -123.5 t101.5 -145.5t46 -186q0 -168 -93 -292t-243 -150l-41 -187h-149l41 189q-168 26 -248 141z" />
<glyph unicode="%" horiz-adv-x="1187" d="M154 0l866 1366h96l-868 -1366h-94zM162 963q0 174 94 298.5t215 124.5q106 0 164.5 -71.5t58.5 -179.5q0 -174 -94 -299t-215 -125q-106 0 -164.5 71.5t-58.5 180.5zM297 975q0 -141 96 -141q61 0 113.5 86t52.5 202q0 139 -96 140q-61 0 -113.5 -86t-52.5 -201z M571 227q0 174 94.5 299t217.5 125q106 0 164.5 -71.5t58.5 -180.5q0 -174 -95.5 -299t-215.5 -125q-106 0 -165 71.5t-59 180.5zM707 240q0 -139 96 -140q61 0 113.5 86t52.5 201q0 141 -95 141q-61 0 -114 -86.5t-53 -201.5z" />
<glyph unicode="&#x26;" horiz-adv-x="872" d="M16 254q0 125 47.5 227.5t105.5 160.5t148 124q-16 109 -16 192q0 174 93 301t216 127q94 0 151.5 -59t57.5 -174q0 -63 -20.5 -121.5t-43 -96.5t-76.5 -87t-80 -69.5l-95 -71.5q8 -39 39 -148l45 -156q49 88 123 256l141 -79q-102 -223 -201 -357l94 -223h-194l-31 78 q-119 -102 -246 -103q-117 0 -187.5 73t-70.5 206zM215 281q0 -66 27.5 -108t74.5 -42q68 0 150 92q-35 98 -68 209q-27 88 -43 156q-141 -135 -141 -307zM473 946q0 -47 2 -69q84 66 129 129t45 147q0 51 -13 70.5t-42 19.5q-47 0 -84 -93t-37 -204z" />
<glyph unicode="'" horiz-adv-x="425" d="M236 817q33 418 32 438q4 57 40 94t89 37q41 0 70 -28.5t29 -71.5q0 -8 -2 -18.5t-6.5 -20.5t-4.5 -14l-159 -416h-88z" />
<glyph unicode="(" horiz-adv-x="485" d="M43 51q0 723 465 1352l123 -74q-176 -301 -283.5 -669.5t-107.5 -712.5q0 -156 16 -307l-147 -48q-66 213 -66 459z" />
<glyph unicode=")" horiz-adv-x="485" d="M-147 -334q176 301 283.5 670t107.5 713q0 156 -17 307l148 47q66 -213 65 -459q0 -723 -465 -1352z" />
<glyph unicode="*" horiz-adv-x="641" d="M137 1012l228 82l-181 125l72 84l166 -144l41 227h106l-63 -237l221 102l31 -96l-226 -82l181 -125l-74 -84l-166 144l-39 -228h-106l63 238l-223 -103z" />
<glyph unicode="+" horiz-adv-x="780" d="M88 627l27 127h262l63 293h140l-64 -293h260l-28 -127h-261l-69 -305h-137l67 305h-260z" />
<glyph unicode="," horiz-adv-x="493" d="M-37 -176q59 29 111.5 76t70.5 96q-2 -2 -18 -2q-41 0 -70.5 29.5t-29.5 76.5q0 57 44 99.5t99 42.5q53 0 90 -36t37 -100q0 -102 -76 -204.5t-184 -155.5z" />
<glyph unicode="-" horiz-adv-x="489" d="M41 412l37 168h364l-34 -168h-367z" />
<glyph unicode="." horiz-adv-x="489" d="M27 98q0 57 42 100.5t101 43.5q51 0 86 -36t35 -85q0 -59 -43 -101.5t-103 -42.5q-51 0 -84.5 35t-33.5 86z" />
<glyph unicode="/" horiz-adv-x="442" d="M-121 -41l621 1448h145l-622 -1448h-144z" />
<glyph unicode="0" horiz-adv-x="892" d="M72 383q0 221 65.5 450.5t191.5 391t275 161.5q135 0 216 -103t81 -304q0 -221 -65.5 -450.5t-192.5 -391.5t-276 -162q-133 0 -214 104.5t-81 303.5zM281 346q0 -180 106 -180q84 0 157.5 167t109.5 360.5t36 322.5q0 180 -106 180q-84 0 -158 -167t-109.5 -359.5 t-35.5 -323.5z" />
<glyph unicode="1" horiz-adv-x="663" d="M127 1012l424 354h186l-301 -1366h-213l240 1087l-240 -206z" />
<glyph unicode="2" horiz-adv-x="858" d="M-16 0l47 217l144 157l127 136l104 113q57 63 88 100l67 82q37 45 54.5 73.5t34 61.5t22.5 60.5t6 54.5q0 66 -36 103.5t-97 37.5q-123 0 -223 -137l-115 137q156 190 358 190q150 0 244 -80.5t94 -224.5q0 -158 -113.5 -319.5t-453.5 -538.5q-23 -23 -33 -35h410 l-41 -188h-688z" />
<glyph unicode="3" horiz-adv-x="856" d="M-18 250l176 104q43 -188 198 -188q92 0 145.5 91t53.5 202q0 72 -42 108.5t-103 36.5q-51 0 -70 -4l43 195q14 -2 100 -2q92 0 143.5 79.5t51.5 186.5q0 137 -148 137q-119 0 -200 -127l-119 125q147 193 354 192q150 0 242 -75.5t92 -212.5q0 -143 -86 -260t-209 -144 q162 -55 162 -258q0 -184 -119 -322.5t-291 -138.5q-133 0 -236 72t-138 203z" />
<glyph unicode="4" horiz-adv-x="825" d="M-10 324l45 206l586 836h260l-191 -854h107l-41 -188h-107l-69 -324h-213l69 324h-446zM211 512h266l133 592z" />
<glyph unicode="5" horiz-adv-x="866" d="M-2 248l174 102q39 -184 184 -184q88 0 156 116.5t68 256.5q0 70 -32 109.5t-93 39.5q-92 0 -179 -102l-147 59l162 721h637l-41 -188h-424l-90 -408q76 94 194 94q106 0 171 -79.5t65 -219.5q0 -233 -127 -411.5t-320 -178.5q-276 1 -358 273z" />
<glyph unicode="6" horiz-adv-x="862" d="M66 373q0 123 33.5 284.5t98 330.5t182.5 283.5t263 114.5q98 0 175 -53t108 -143l-148 -135q-25 141 -147 141q-184 0 -301 -457q-2 -6 -11 -49q47 78 113 126t135 48q104 0 171 -76.5t67 -214t-48 -271.5t-149.5 -230.5t-230.5 -96.5q-156 0 -233.5 107t-77.5 291z M270 348q0 -182 115 -182q61 0 109.5 68.5t69 152.5t20.5 154q0 66 -28 106.5t-85 40.5q-98 0 -184 -176q-17 -86 -17 -164z" />
<glyph unicode="7" horiz-adv-x="745" d="M37 0l577 1178h-426l41 188h668l-33 -147l-592 -1219h-235z" />
<glyph unicode="8" horiz-adv-x="858" d="M16 268q0 141 82 265t238 188q-61 39 -102 113.5t-41 158.5q0 158 114.5 275.5t270.5 117.5q137 0 233 -70.5t96 -217.5q0 -152 -86 -260.5t-211 -147.5q74 -47 114 -127t40 -168q0 -182 -111.5 -301t-285.5 -119q-351 0 -351 293zM240 311q0 -72 33.5 -108.5t91.5 -36.5 q74 0 131 78t57 188q0 76 -32 128t-64 69q-86 -27 -151.5 -114t-65.5 -204zM401 952q0 -55 27 -104t61 -74q80 31 139.5 102.5t59.5 188.5q0 61 -30.5 96t-88.5 35q-72 0 -120 -72t-48 -172z" />
<glyph unicode="9" horiz-adv-x="862" d="M14 174l148 135q10 -66 49 -103.5t98 -37.5q184 0 301 457q8 35 13 49q-104 -174 -250 -174q-104 0 -170 76.5t-66 214t48 271.5t149.5 230.5t230.5 96.5q156 0 234 -106.5t78 -291.5q0 -94 -19.5 -218t-66 -265t-110 -258t-164.5 -195t-218 -78q-98 0 -175 53.5 t-110 143.5zM358 823q0 -147 111 -147q100 0 186 176q16 86 17 164q0 182 -115 182q-61 0 -109.5 -68.5t-69 -152.5t-20.5 -154z" />
<glyph unicode=":" horiz-adv-x="487" d="M27 98q0 59 43 101.5t102 42.5q49 0 84 -36t35 -85q0 -59 -42 -101.5t-102 -42.5q-51 0 -85.5 35t-34.5 86zM195 860q0 57 42 100.5t101 43.5q51 0 86 -36t35 -85q0 -59 -42 -101.5t-102 -42.5q-51 0 -85.5 35t-34.5 86z" />
<glyph unicode=";" horiz-adv-x="489" d="M-37 -176q59 29 111.5 76t70.5 96q-2 -2 -18 -2q-41 0 -70.5 29.5t-29.5 76.5q0 57 44 99.5t99 42.5q53 0 90 -36t37 -100q0 -102 -76 -204.5t-184 -155.5zM195 860q0 57 42 100.5t101 43.5q51 0 86 -36t35 -85q0 -59 -42 -101.5t-102 -42.5q-51 0 -85.5 35t-34.5 86z " />
<glyph unicode="&#x3c;" horiz-adv-x="780" d="M84 616l31 138l727 293l-37 -158l-555 -211l463 -211l-33 -143z" />
<glyph unicode="=" horiz-adv-x="780" d="M41 424l29 127h661l-29 -127h-661zM129 817l29 127h659l-26 -127h-662z" />
<glyph unicode="&#x3e;" horiz-adv-x="780" d="M18 324l37 157l557 209l-462 213l30 144l596 -293l-31 -138z" />
<glyph unicode="?" horiz-adv-x="655" d="M115 98q0 57 43 100.5t100 43.5q51 0 86 -36t35 -85q0 -59 -43 -101.5t-103 -42.5q-49 0 -83.5 35t-34.5 86zM211 520q0 80 32.5 147.5t80 117t94.5 93.5t79.5 97t32.5 110q0 51 -29.5 86t-82.5 35q-70 0 -125 -49l-62 143q115 88 248 89q119 0 196 -72t77 -176 q0 -84 -37 -158t-89.5 -128l-105.5 -103.5t-90 -104.5t-37 -108.5t15 -81.5l-175 -64q-22 55 -22 127z" />
<glyph unicode="@" horiz-adv-x="1269" d="M113 440q0 219 94 420t256 325t348 124q190 0 309 -134.5t119 -363.5q0 -262 -98.5 -449.5t-229.5 -187.5q-68 0 -111.5 38t-51.5 101l-3 17q-100 -156 -227 -156q-80 0 -135 60.5t-55 197.5q0 141 46 275.5t136 224.5t201 90q115 0 147 -139l23 106h172l-115 -538 q-6 -31 -6 -58q0 -84 59 -84q23 0 51.5 34t55 94.5t45 159.5t18.5 212q0 203 -96 314.5t-258 111.5q-164 0 -308.5 -117t-226.5 -299t-82 -377q0 -231 106.5 -372.5t301.5 -141.5q147 0 293 115l37 -57q-164 -129 -340 -129q-221 0 -348 156.5t-127 426.5zM508 459 q0 -145 90 -146q53 0 91 38t77 106l65 303q-25 121 -96 121q-70 0 -124 -73t-78.5 -167t-24.5 -182z" />
<glyph unicode="A" horiz-adv-x="815" d="M-104 0l579 1366h246l-23 -1366h-213l15 279h-273l-106 -279h-225zM295 467h219l35 655z" />
<glyph unicode="B" horiz-adv-x="882" d="M6 0l301 1366h297q143 0 223 -81t80 -206q0 -139 -74.5 -255.5t-195.5 -137.5q74 -23 110.5 -91.5t36.5 -152.5q0 -174 -98 -308t-274 -134h-406zM260 188h115q84 0 139 81t55 190q0 143 -139 143h-78zM393 791h109q82 0 130 80.5t48 168.5q0 137 -137 138h-64z" />
<glyph unicode="C" horiz-adv-x="843" d="M70 389q0 100 18 223t62.5 261.5t105.5 252t158.5 188.5t212.5 75q150 0 222.5 -101.5t80.5 -257.5l-199 -39q-14 207 -119 207q-74 0 -138 -96t-102 -232.5t-60.5 -267.5t-22.5 -219q0 -217 114 -217q90 0 181 170l170 -74q-139 -287 -363 -287q-154 0 -237.5 107.5 t-83.5 306.5z" />
<glyph unicode="D" horiz-adv-x="931" d="M6 0l301 1366h299q133 0 227.5 -110.5t94.5 -319.5q0 -68 -12.5 -156t-39 -196.5t-74.5 -209t-112.5 -186.5t-162 -137t-214.5 -51h-307zM260 188h90q92 0 166 91.5t113 221.5t59.5 244.5t20.5 188.5q0 123 -41 183.5t-103 60.5h-86z" />
<glyph unicode="E" horiz-adv-x="751" d="M6 0l301 1366h559l-41 -188h-346l-86 -387h332l-43 -189h-330l-92 -414h346l-41 -188h-559z" />
<glyph unicode="F" horiz-adv-x="747" d="M6 0l301 1366h559l-41 -188h-346l-86 -387h332l-43 -189h-330l-133 -602h-213z" />
<glyph unicode="G" horiz-adv-x="890" d="M70 389q0 137 33.5 301t98 324t176 267.5t249.5 107.5q147 0 216.5 -95.5t76.5 -238.5l-183 -43q-12 186 -125 186q-94 0 -172 -156.5t-114.5 -340t-36.5 -318.5q0 -117 27.5 -167t89.5 -50q70 0 147 100l57 269h-166l43 188h357l-119 -533q-139 -215 -334 -215 q-156 0 -238.5 107.5t-82.5 306.5z" />
<glyph unicode="H" horiz-adv-x="948" d="M6 0l301 1366h213l-125 -569h289l125 569h215l-301 -1366h-215l135 608h-291l-133 -608h-213z" />
<glyph unicode="I" horiz-adv-x="446" d="M6 0l301 1366h213l-301 -1366h-213z" />
<glyph unicode="J" horiz-adv-x="690" d="M-76 70l92 168q47 -72 136 -72q70 0 110.5 39t61.5 125l229 1036h213l-231 -1047q-41 -180 -128.5 -262t-238.5 -82q-162 1 -244 95z" />
<glyph unicode="K" horiz-adv-x="917" d="M6 0l301 1366h213l-139 -635l440 635h248l-479 -645l205 -721h-228l-135 557l-131 -180l-82 -377h-213z" />
<glyph unicode="L" horiz-adv-x="718" d="M6 0l301 1366h213l-260 -1178h346l-41 -188h-559z" />
<glyph unicode="M" horiz-adv-x="1210" d="M6 0l301 1366h273l24 -844l404 844h278l-301 -1366h-211l209 952l-451 -952h-75l-27 952l-211 -952h-213z" />
<glyph unicode="N" horiz-adv-x="948" d="M6 0l301 1366h213l101 -852l188 852h215l-301 -1366h-203l-108 879l-193 -879h-213z" />
<glyph unicode="O" horiz-adv-x="940" d="M70 389q0 127 32.5 288t95 324.5t176 275.5t253.5 112q160 0 240.5 -117t80.5 -301q0 -96 -19.5 -220t-63.5 -261.5t-105.5 -251t-158.5 -188.5t-210 -75q-162 0 -241.5 115t-79.5 299zM289 383q0 -217 114 -217q94 0 173 157.5t116 341t37 312.5q0 221 -117 221 q-94 0 -173 -158.5t-114.5 -342t-35.5 -314.5z" />
<glyph unicode="P" horiz-adv-x="856" d="M6 0l301 1366h303q135 0 218 -92t83 -238q0 -207 -121.5 -360.5t-340.5 -153.5h-115l-115 -522h-213zM375 711h90q104 0 163.5 93t59.5 212q0 78 -35 120t-92 42h-82z" />
<glyph unicode="Q" horiz-adv-x="940" d="M70 389q0 127 32.5 288t95 324.5t176 275.5t253.5 112q160 0 240.5 -117t80.5 -301q0 -225 -91 -511t-257 -413l14 -90l-161 -29l-9 52q-37 -4 -53 -5q-162 0 -241.5 115t-79.5 299zM289 383q0 -217 114 -217h11l-43 274l161 29l29 -176q74 129 121 337t47 347 q0 221 -117 221q-94 0 -173 -158.5t-114.5 -342t-35.5 -314.5z" />
<glyph unicode="R" horiz-adv-x="897" d="M6 0l301 1366h301q133 0 219 -94t86 -236q0 -168 -80.5 -303t-189.5 -172l66 -561h-224l-43 522h-108l-115 -522h-213zM375 711h94q100 0 159.5 93t59.5 214q0 160 -125 160h-84z" />
<glyph unicode="S" horiz-adv-x="774" d="M-41 125l127 158q33 -51 88 -84t113 -33q74 0 129 61.5t55 161.5q0 63 -47 131t-103.5 122t-103.5 141t-47 184q0 176 116.5 299t278.5 123q184 0 289 -123l-117 -158q-68 90 -174 90q-74 0 -120 -57.5t-46 -136.5q0 -57 46 -125t101.5 -123.5t101.5 -145.5t46 -186 q0 -188 -114.5 -318.5t-290.5 -130.5q-102 0 -191.5 41t-136.5 109z" />
<glyph unicode="T" horiz-adv-x="710" d="M137 0l260 1178h-211l41 188h637l-43 -188h-211l-260 -1178h-213z" />
<glyph unicode="U" horiz-adv-x="950" d="M80 293q0 45 10 92l217 981h213l-221 -999q-6 -43 -6 -66q0 -66 34.5 -101.5t92.5 -35.5q66 0 106.5 47t65.5 156l219 999h213l-217 -989q-90 -401 -404 -402q-141 0 -232 86.5t-91 231.5z" />
<glyph unicode="V" horiz-adv-x="815" d="M174 0l23 1366h213l-58 -1090l422 1090h225l-579 -1366h-246z" />
<glyph unicode="W" horiz-adv-x="1202" d="M145 0l74 1366h215l-92 -989l360 989h172l-75 -989l344 989h221l-528 -1366h-220l86 954l-337 -954h-220z" />
<glyph unicode="X" horiz-adv-x="835" d="M-109 0l453 707l-135 659h225l64 -471l264 471h248l-432 -680l147 -686h-225l-78 494l-285 -494h-246z" />
<glyph unicode="Y" horiz-adv-x="829" d="M184 1366h219l64 -584l324 584h235l-489 -795l-125 -571h-213l125 571z" />
<glyph unicode="Z" horiz-adv-x="737" d="M-47 0l39 182l567 996h-346l41 188h598l-39 -174l-573 -1004h366l-41 -188h-612z" />
<glyph unicode="[" horiz-adv-x="399" d="M-125 -389l393 1778h291l-29 -136h-147l-336 -1507h148l-31 -135h-289z" />
<glyph unicode="\" horiz-adv-x="442" d="M182 -41v1448h140v-1448h-140z" />
<glyph unicode="]" horiz-adv-x="399" d="M-162 -389l31 135h147l334 1507h-147l28 136h293l-395 -1778h-291z" />
<glyph unicode="^" horiz-adv-x="684" d="M78 682l383 684h143l80 -684h-139l-43 526l-275 -526h-149z" />
<glyph unicode="_" horiz-adv-x="571" d="M-164 -217l31 135h582l-31 -135h-582z" />
<glyph unicode="`" horiz-adv-x="335" d="M207 1434h174l96 -295h-123z" />
<glyph unicode="&#x2cb;" horiz-adv-x="335" d="M207 1434h174l96 -295h-123z" />
<glyph unicode="a" horiz-adv-x="831" d="M37 281q0 100 24.5 222t70.5 238.5t124 194.5t172 78q147 0 190 -158l29 133h191l-220 -989h-192l29 123q-92 -147 -209 -148q-102 0 -155.5 78t-53.5 228zM236 303q0 -158 104 -158q39 0 81 40t68 98l95 422q-6 59 -39 99t-76 40q-72 0 -129 -105.5t-80.5 -225.5 t-23.5 -210z" />
<glyph unicode="b" horiz-adv-x="831" d="M-6 0l299 1366h192l-110 -500q92 147 209 148q102 0 155.5 -78t53.5 -227q0 -100 -25 -222t-71 -239t-123.5 -195t-172.5 -78q-145 0 -188 158l-29 -133h-190zM246 285q6 -59 38.5 -99.5t77.5 -40.5q72 0 128.5 105.5t80 225.5t23.5 210q0 158 -105 158q-39 0 -80.5 -40 t-68.5 -97z" />
<glyph unicode="c" horiz-adv-x="681" d="M43 332q0 152 50 304t157.5 265t245.5 113q152 0 231 -101l-96 -143q-41 74 -123 74q-80 0 -143.5 -88t-93 -200t-29.5 -210q0 -201 147 -201q68 0 123 60l39 -152q-86 -78 -203 -78q-143 0 -224 91.5t-81 265.5z" />
<glyph unicode="d" horiz-adv-x="831" d="M37 281q0 100 24.5 222t70.5 238.5t124 194.5t172 78q147 0 190 -158l111 510h193l-304 -1366h-192l29 123q-92 -147 -209 -148q-102 0 -155.5 78t-53.5 228zM236 303q0 -158 104 -158q39 0 81 40t68 98l95 422q-6 59 -39 99t-76 40q-72 0 -129 -105.5t-80.5 -225.5 t-23.5 -210z" />
<glyph unicode="e" horiz-adv-x="800" d="M41 334q0 70 15.5 155.5t51 179t86 170t126 126t163.5 49.5q283 0 283 -324q0 -102 -39 -258h-494q-12 -59 -12 -108q0 -82 41 -136.5t129 -54.5q90 0 172 96l74 -118q-119 -135 -279 -136q-150 0 -233.5 92.5t-83.5 266.5zM260 569h305h8q16 66 17 123q0 72 -32 118 t-89 46q-82 0 -135.5 -88t-73.5 -199z" />
<glyph unicode="f" horiz-adv-x="489" d="M23 0l182 821h-94l39 168h92l26 129q57 268 273 268q121 0 174 -59l-84 -147q-25 37 -70 37q-76 0 -100 -99l-27 -129h129l-39 -168h-127l-182 -821h-192z" />
<glyph unicode="g" horiz-adv-x="831" d="M-72 -281l105 150q70 -100 190 -100q145 0 201 225l39 156q-88 -147 -211 -148q-100 0 -156.5 74t-56.5 219q0 98 22.5 215t67.5 233.5t124 193.5t177 77q59 0 116.5 -42t71.5 -116l29 133h191l-222 -995q-47 -215 -145 -305t-244 -90q-201 -1 -299 120zM238 332 q0 -160 106 -160q41 0 82 40t70 97l88 396q-8 55 -42 97t-77 42q-70 0 -125 -97.5t-78.5 -212t-23.5 -202.5z" />
<glyph unicode="h" d="M-8 0l301 1366h192l-110 -504q111 152 246 152q82 0 127 -44t45 -116q0 -20 -9 -61l-174 -793h-192l162 727q6 25 6 45q0 72 -70 72q-47 0 -95 -43t-83 -105l-154 -696h-192z" />
<glyph unicode="i" horiz-adv-x="397" d="M-8 0l219 989h192l-219 -989h-192zM236 1223q0 61 44 100t95 39q47 0 78.5 -32t31.5 -75q0 -61 -44 -99t-95 -38q-47 0 -78.5 31t-31.5 74z" />
<glyph unicode="j" horiz-adv-x="397" d="M-258 -340l84 141q12 -33 51 -32q63 0 88 120l246 1100h192l-245 -1100q-35 -156 -96.5 -223t-176.5 -67q-102 0 -143 61zM236 1223q0 61 44 100t95 39q47 0 78.5 -32t31.5 -75q0 -61 -44 -99t-95 -38q-47 0 -78.5 31t-31.5 74z" />
<glyph unicode="k" horiz-adv-x="788" d="M-8 0l301 1366h192l-190 -860l362 483h215l-340 -440l125 -549h-204l-74 424l-143 -184l-52 -240h-192z" />
<glyph unicode="l" horiz-adv-x="397" d="M-8 0l301 1366h192l-301 -1366h-192z" />
<glyph unicode="m" horiz-adv-x="1249" d="M-8 0l219 989h192l-28 -127q47 68 112.5 110t133.5 42q76 0 124 -42t48 -102q0 -10 -2 -20q113 164 253 164q80 0 127.5 -42t47.5 -116q0 -31 -9 -63l-174 -793h-192l160 727q8 25 8 45q0 72 -70 72q-90 0 -180 -148l-152 -696h-192l162 727q6 37 6 47q0 70 -70 70 q-92 0 -178 -148l-154 -696h-192z" />
<glyph unicode="n" d="M-8 0l219 989h192l-28 -127q111 152 246 152q80 0 126 -43t46 -117q0 -37 -9 -61l-174 -793h-192l162 727q6 37 6 45q0 72 -70 72q-47 0 -95 -43t-83 -105l-154 -696h-192z" />
<glyph unicode="o" d="M41 319q0 152 48 306.5t153.5 271.5t242.5 117q141 0 217 -88t76 -256q0 -152 -48 -306.5t-153.5 -271.5t-242.5 -117q-141 0 -217 89t-76 255zM236 315q0 -170 110 -170q72 0 129 101.5t83 219.5t26 206q0 172 -109 172q-72 0 -130 -101.5t-83.5 -220.5t-25.5 -207z" />
<glyph unicode="p" horiz-adv-x="831" d="M-90 -377l301 1366h192l-28 -123q92 147 209 148q102 0 155.5 -78t53.5 -227q0 -100 -25 -222t-71 -239t-123.5 -195t-172.5 -78q-145 0 -188 158l-113 -510h-190zM246 285q6 -59 38.5 -99.5t77.5 -40.5q72 0 128.5 105.5t80 225.5t23.5 210q0 158 -105 158 q-39 0 -80.5 -40t-68.5 -97z" />
<glyph unicode="q" horiz-adv-x="831" d="M37 281q0 100 24.5 222t70.5 238.5t124 194.5t172 78q147 0 190 -158l27 133h193l-303 -1366h-193l113 500q-92 -147 -209 -148q-102 0 -155.5 78t-53.5 228zM236 303q0 -158 104 -158q39 0 81 40t68 98l95 422q-6 59 -39 99t-76 40q-72 0 -129 -105.5t-80.5 -225.5 t-23.5 -210z" />
<glyph unicode="r" horiz-adv-x="548" d="M-8 0l219 989h192l-28 -133q90 156 260 156l-45 -193q-25 8 -49 8q-117 0 -207 -147l-150 -680h-192z" />
<glyph unicode="s" horiz-adv-x="675" d="M-43 117l109 125q66 -113 190 -113q59 0 100 42t41 99q0 41 -29.5 78t-71.5 70t-84 69.5t-71.5 92t-29.5 122.5q0 129 85 220.5t232 91.5q78 0 151.5 -35t118.5 -94l-104 -121q-20 39 -68.5 67.5t-101.5 28.5q-57 0 -92 -34.5t-35 -90.5q0 -43 46 -89t100.5 -84 t100.5 -105.5t46 -149.5q0 -137 -94.5 -234.5t-243.5 -97.5q-98 0 -178 39.5t-117 102.5z" />
<glyph unicode="t" horiz-adv-x="505" d="M59 139q0 39 11 80l135 602h-96l36 168h97l59 271h193l-60 -271h129l-39 -168h-127l-127 -569q-8 -23 -8 -51q0 -55 57 -56q31 0 56 27l12 -158q-51 -39 -125 -39q-203 0 -203 164z" />
<glyph unicode="u" d="M29 135q0 37 8 62l174 792h192l-161 -727q-6 -43 -6 -45q0 -72 69 -72q92 0 176 142l156 702h192l-219 -989h-192l28 127q-111 -152 -245 -152q-80 0 -126 43t-46 117z" />
<glyph unicode="v" horiz-adv-x="731" d="M119 989h198l-16 -749l320 749h208l-471 -989h-208z" />
<glyph unicode="w" horiz-adv-x="1185" d="M127 989h192l-24 -725l303 725h186l-10 -725l297 725h207l-442 -989h-201l6 727l-311 -727h-201z" />
<glyph unicode="x" horiz-adv-x="720" d="M-96 0l336 500l-107 489h199l53 -344l209 344h209l-326 -489l119 -500h-201l-61 354l-219 -354h-211z" />
<glyph unicode="y" horiz-adv-x="731" d="M-117 -379l64 160q12 -12 47 -12q51 0 90 79l63 132l-28 1009h198l-16 -745l320 745h208l-565 -1182q-59 -119 -116.5 -163.5t-139.5 -44.5q-72 -1 -125 22z" />
<glyph unicode="z" horiz-adv-x="657" d="M-49 0l31 147l444 674h-293l37 168h526l-30 -141l-447 -680h303l-37 -168h-534z" />
<glyph unicode="{" horiz-adv-x="434" d="M-37 -209q0 31 8 55l101 455q4 20 4 39q0 100 -80 100l27 119q106 0 137 139l102 459q51 231 275 232h59l-31 -136h-59q-80 0 -100 -96l-109 -491q-16 -74 -46 -117t-87 -66q59 -29 59 -112q0 -37 -8 -70l-98 -448q0 -4 -2 -11.5t-3 -13.5t-1 -12q0 -33 18 -52.5 t43 -19.5h59l-30 -133h-45q-76 0 -133.5 50t-59.5 130z" />
<glyph unicode="|" horiz-adv-x="366" d="M158 -41v1448h133v-1448h-133z" />
<glyph unicode="}" horiz-adv-x="434" d="M-164 -389l31 135h59q80 0 101 96l108 492q16 74 46 117t87 65q-59 29 -59 113q0 37 8 69l98 449q0 4 2 11t3.5 13.5t1.5 12.5q0 33 -17.5 52t-44.5 19h-59l30 134h45q76 0 134.5 -51.5t58.5 -131.5q0 -29 -8 -53l-101 -455q-4 -20 -4 -41q0 -98 80 -98l-26 -119 q-106 0 -138 -139l-102 -459q-51 -231 -274 -231h-60z" />
<glyph unicode="~" horiz-adv-x="833" d="M135 870q100 494 328 494q80 0 112 -59q30 -54 30 -119v-12q-1 -22 -1 -42q0 -48 5 -90q7 -59 42 -59q94 0 180 383l136 -12q-100 -496 -326 -496q-66 0 -99.5 39t-38.5 95.5t-5 111.5t-9.5 94t-37.5 39q-94 0 -181 -381z" />
<glyph unicode="&#xa1;" horiz-adv-x="489" d="M-66 -377l248 961h164l-176 -961h-236zM199 868q0 59 43 101.5t102 42.5q49 0 84 -35t35 -86q0 -59 -43 -101t-101 -42q-51 0 -85.5 35.5t-34.5 84.5z" />
<glyph unicode="&#xa2;" horiz-adv-x="681" d="M43 332q0 145 47 294.5t148.5 262t232.5 123.5l33 145h145l-37 -164q72 -29 115 -80l-96 -143q-20 35 -56 55l-151 -675q47 10 88 55l39 -152q-70 -63 -164 -76l-41 -182h-145l43 195q-201 59 -201 342zM242 346q0 -111 45 -160l141 633q-84 -55 -135 -199.5t-51 -273.5z " />
<glyph unicode="&#xa3;" horiz-adv-x="829" d="M8 135q104 61 175 171t71 222q0 23 -2 33h-178l28 129h123q-35 127 -35 205q0 205 129.5 348t288.5 143q127 0 212 -70.5t89 -201.5l-184 -55q-10 152 -115 151q-76 0 -134 -101t-58 -241q0 -31 5 -59.5t15.5 -68.5t12.5 -50h149l-29 -129h-112q-12 -113 -66.5 -210 t-128.5 -146q39 18 72 18q47 0 110.5 -28.5t98.5 -28.5q78 0 139 65l25 -172q-80 -84 -203 -84q-80 0 -164 42t-131 42q-72 0 -168 -73z" />
<glyph unicode="&#xa4;" horiz-adv-x="1069" d="M23 283l157 129q-63 115 -63 221q0 195 164 354l-76 100l65 54l80 -99q123 88 273 88q166 0 292 -116l160 131l51 -62l-159 -131q63 -104 63 -221q0 -186 -164 -354l78 -98l-70 -56l-75 101q-125 -90 -271 -91q-170 0 -297 121l-161 -135zM217 645q0 -139 89 -226 t229 -87q158 0 276.5 115.5t118.5 271.5q0 139 -89 226t-229 87q-158 0 -276.5 -115.5t-118.5 -271.5z" />
<glyph unicode="&#xa5;" horiz-adv-x="829" d="M-10 246l28 127h263l45 198h-263l27 127h213l-117 668h220l63 -584l324 584h235l-412 -668h205l-26 -127h-256l-45 -198h256l-29 -127h-254l-53 -246h-213l53 246h-264z" />
<glyph unicode="&#xa6;" horiz-adv-x="366" d="M158 -41v647h133v-647h-133zM158 760v647h133v-647h-133z" />
<glyph unicode="&#xa7;" horiz-adv-x="677" d="M-86 -33l111 123q61 -111 190 -110q63 0 106.5 49t43.5 118q0 45 -29 82t-70 68l-83 65.5t-70.5 90t-28.5 122.5q0 102 60.5 180.5t164.5 100.5q-113 92 -112.5 223t90.5 219t215 88q195 0 289 -126l-107 -107q-59 94 -172 94q-57 0 -94 -43t-37 -102q0 -43 29.5 -82 t71.5 -70.5t83 -67.5t71 -88.5t30 -115.5q0 -102 -53.5 -181t-155.5 -120q96 -84 96 -203q0 -141 -93 -240.5t-235 -99.5q-227 0 -311 133zM262 612q0 -98 96 -161q127 49 127 182q0 82 -67 149q-156 -27 -156 -170z" />
<glyph unicode="&#xa8;" horiz-adv-x="557" d="M174 1231q0 47 38 84t87 37q41 0 69.5 -28t28.5 -71q0 -47 -37.5 -83.5t-87.5 -36.5q-41 0 -69.5 27.5t-28.5 70.5zM487 1231q0 47 38 84t87 37q41 0 70 -28t29 -71q0 -47 -38 -83.5t-87 -36.5q-41 0 -70 27.5t-29 70.5z" />
<glyph unicode="&#xa9;" horiz-adv-x="1593" d="M131 684q0 293 207 500t498 207q293 0 500.5 -208t207.5 -499t-208 -499t-500 -208q-291 0 -498 207t-207 500zM199 684q0 -262 187 -450.5t449.5 -188.5t452 188.5t189.5 450.5t-189.5 450.5t-452 188.5t-449.5 -188.5t-187 -450.5zM408 629q0 205 146 348t335 143 q221 0 321 -164l-67 -49q-76 141 -256 142q-152 0 -275 -122t-123 -296q0 -129 86.5 -219t225.5 -90q133 0 235 98l43 -62q-127 -109 -278 -108q-178 0 -285.5 107.5t-107.5 271.5z" />
<glyph unicode="&#xaa;" horiz-adv-x="622" d="M145 872q0 98 31 200t95.5 178.5t146.5 76.5q43 0 81 -25.5t56 -72.5l18 82h144l-142 -643h-143l19 84q-63 -100 -150 -101q-156 0 -156 221zM293 883q0 -117 76 -117q55 0 106 92l57 270q-4 35 -26.5 59.5t-52.5 24.5q-68 0 -114 -111.5t-46 -217.5z" />
<glyph unicode="&#xab;" horiz-adv-x="735" d="M59 498l267 362h157l-272 -371l100 -360h-149zM334 498l266 362h158l-273 -371l101 -360h-150z" />
<glyph unicode="&#xac;" horiz-adv-x="780" d="M129 817l29 127h659l-115 -520h-131l86 393h-528z" />
<glyph unicode="&#xad;" horiz-adv-x="489" d="M41 412l37 168h364l-34 -168h-367z" />
<glyph unicode="&#xae;" horiz-adv-x="1011" d="M172 952.5q0 180.5 127 307t307 126.5t307 -125.5t127 -308.5q0 -180 -128 -307t-308 -127t-306 127t-126 307.5zM233 952q0 -154 109 -263t262 -109q156 0 265.5 109.5t109.5 262.5q0 156 -109.5 264.5t-265 108.5t-263.5 -108.5t-108 -264.5zM385 702l109 498h188 q63 0 104 -36t41 -95q0 -72 -51 -120t-112 -48l90 -199h-80l-86 197h-92l-43 -197h-68zM508 961h137q45 0 78 28.5t33 71.5q0 39 -23.5 59.5t-62.5 20.5h-121z" />
<glyph unicode="&#xaf;" horiz-adv-x="520" d="M158 1210l24 117h518l-24 -117h-518z" />
<glyph unicode="&#x203e;" horiz-adv-x="520" d="M158 1210l24 117h518l-24 -117h-518z" />
<glyph unicode="&#xb0;" horiz-adv-x="610" d="M184 1126q0 109 76 184.5t182.5 75.5t183 -76.5t76.5 -183t-75.5 -182.5t-184.5 -76q-106 0 -182 76t-76 182zM299 1126.5q0 -59.5 41 -101.5t100 -42q61 0 105.5 42t44.5 101.5t-44 103.5t-103.5 44t-101.5 -44t-42 -103.5z" />
<glyph unicode="&#xb1;" horiz-adv-x="780" d="M-37 72l29 125h661l-28 -125h-662zM88 627l27 127h262l63 293h140l-64 -293h260l-28 -127h-261l-69 -305h-137l67 305h-260z" />
<glyph unicode="&#xb2;" horiz-adv-x="575" d="M139 862l27 119q266 240 348 334t82 166q0 43 -25.5 67.5t-68.5 24.5q-86 0 -158 -96l-76 96q106 121 244 121q100 0 168 -52.5t68 -146.5q0 -53 -19.5 -102.5t-83 -120t-114.5 -119.5l-181 -170h291l-27 -121h-475z" />
<glyph unicode="&#xb3;" horiz-adv-x="575" d="M152 991l112 82q33 -104 133 -104q59 0 92 51t33 110q0 45 -26.5 69t-67.5 24q-45 0 -55 -2l24 120q10 -2 66 -2q57 0 94 39t37 105q0 41 -25.5 65.5t-70.5 24.5q-80 0 -150 -86l-78 84q100 123 240 123q109 0 171 -50.5t62 -140.5q0 -78 -50 -147.5t-136 -81.5 q111 -33 111 -164q0 -98 -73 -180t-192 -82q-90 0 -157 37.5t-94 105.5z" />
<glyph unicode="&#xb4;" horiz-adv-x="335" d="M137 1139l228 295h178l-277 -295h-129z" />
<glyph unicode="&#xb5;" d="M-90 -377l301 1366h192l-163 -731q-6 -26 -6 -46q0 -69 65 -69q47 0 97 42t83 100l158 704h192l-219 -989h-192l26 123q-45 -63 -117.5 -105.5t-142.5 -42.5h-8l-76 -352h-190z" />
<glyph unicode="&#x3bc;" d="M-90 -377l301 1366h192l-163 -731q-6 -26 -6 -46q0 -69 65 -69q47 0 97 42t83 100l158 704h192l-219 -989h-192l26 123q-45 -63 -117.5 -105.5t-142.5 -42.5h-8l-76 -352h-190z" />
<glyph unicode="&#xb6;" horiz-adv-x="919" d="M162 981q0 150 115.5 267.5t281.5 117.5h424l-348 -1571h-105l326 1467h-174l-328 -1467h-104l192 867q-117 0 -198.5 91t-81.5 228z" />
<glyph unicode="&#xb7;" horiz-adv-x="489" d="M113 489q0 59 42 101.5t101 42.5q51 0 86 -36t35 -85q0 -59 -43 -101t-103 -42q-49 0 -83.5 34.5t-34.5 85.5z" />
<glyph unicode="&#x2219;" horiz-adv-x="489" d="M113 489q0 59 42 101.5t101 42.5q51 0 86 -36t35 -85q0 -59 -43 -101t-103 -42q-49 0 -83.5 34.5t-34.5 85.5z" />
<glyph unicode="&#xb8;" horiz-adv-x="358" d="M-182 -317l57 79q49 -66 125 -65q41 0 66.5 26.5t25.5 63.5q0 49 -47 49q-31 0 -53 -26l-68 43l103 170h104l-84 -134q20 20 49 21q45 0 74 -33t29 -84q0 -80 -58.5 -134t-142.5 -54q-112 0 -180 78z" />
<glyph unicode="&#xb9;" horiz-adv-x="475" d="M233 1454l275 227h129l-180 -819h-150l135 619l-137 -117z" />
<glyph unicode="&#xba;" horiz-adv-x="614" d="M152 891q0 94 32.5 190.5t106.5 171t170 74.5q106 0 161.5 -64.5t55.5 -175.5q0 -94 -33 -190t-106.5 -171t-169.5 -75q-106 0 -161.5 64.5t-55.5 175.5zM295 883q0 -115 80 -115q51 0 89 66.5t53 137t15 122.5q0 115 -79 114q-51 0 -89 -65.5t-53.5 -137t-15.5 -122.5z " />
<glyph unicode="&#xbb;" horiz-adv-x="735" d="M-23 129l273 371l-100 360h149l102 -368l-266 -363h-158zM252 129l272 371l-100 360h149l103 -368l-266 -363h-158z" />
<glyph unicode="&#xbc;" horiz-adv-x="1263" d="M164 1139l274 227h129l-180 -819h-149l135 618l-137 -116zM188 0l867 1366h96l-868 -1366h-95zM651 195l25 118l377 506h180l-111 -506h70l-25 -118h-71l-43 -195h-148l41 195h-295zM805 313h168l74 332z" />
<glyph unicode="&#xbd;" horiz-adv-x="1333" d="M164 1139l274 227h129l-180 -819h-149l135 618l-137 -116zM188 0l867 1366h96l-868 -1366h-95zM707 0l26 119q266 240 348 334t82 165q0 43 -25.5 68t-68.5 25q-86 0 -158 -97l-75 97q106 121 243 120q100 0 168 -52t68 -146q0 -53 -19.5 -102.5t-83 -120t-113.5 -119.5 l-181 -170h290l-26 -121h-475z" />
<glyph unicode="&#xbe;" horiz-adv-x="1337" d="M82 676l113 82q33 -104 133 -105q59 0 92 51.5t33 110.5q0 45 -27 68.5t-68 23.5q-45 0 -55 -2l25 121q10 -2 65 -2q57 0 94 39t37 104q0 41 -25.5 65.5t-70.5 24.5q-80 0 -149 -86l-78 84q100 123 239 123q109 0 171.5 -50t62.5 -140q0 -78 -50.5 -147.5t-136.5 -82.5 q111 -33 111 -163q0 -98 -72.5 -180.5t-191.5 -82.5q-90 0 -157.5 38t-94.5 106zM262 0l866 1366h97l-869 -1366h-94zM725 195l25 118l376 506h181l-111 -506h70l-25 -118h-72l-43 -195h-147l41 195h-295zM879 313h168l73 332z" />
<glyph unicode="&#xbf;" horiz-adv-x="573" d="M-100 -152q0 102 56 192.5t122.5 147t123 127t56.5 136.5q0 51 -14 81l176 62q20 -49 20 -125q0 -80 -32.5 -147.5t-78.5 -116.5t-93.5 -93t-80 -97.5t-32.5 -110.5q0 -51 28.5 -86t81.5 -35q70 0 125 47l62 -141q-111 -88 -246 -88q-121 0 -197.5 71.5t-76.5 175.5z M272 868q0 57 43 99.5t103 42.5q51 0 85 -35t34 -86q0 -57 -42 -99t-102 -42q-51 0 -86 34.5t-35 85.5z" />
<glyph unicode="&#xc0;" horiz-adv-x="815" d="M-104 0l579 1366h246l-23 -1366h-213l15 279h-273l-106 -279h-225zM295 467h219l35 655zM477 1786h174l97 -295h-123z" />
<glyph unicode="&#xc1;" horiz-adv-x="815" d="M-104 0l579 1366h246l-23 -1366h-213l15 279h-273l-106 -279h-225zM295 467h219l35 655zM506 1491l227 295h178l-276 -295h-129z" />
<glyph unicode="&#xc2;" horiz-adv-x="815" d="M-104 0l579 1366h246l-23 -1366h-213l15 279h-273l-106 -279h-225zM295 467h219l35 655zM406 1491l196 295h178l72 -295h-107l-73 201l-152 -201h-114z" />
<glyph unicode="&#xc3;" horiz-adv-x="815" d="M-104 0l579 1366h246l-23 -1366h-213l15 279h-273l-106 -279h-225zM295 467h219l35 655zM369 1499q61 274 209 275q43 0 65.5 -27t26.5 -58.5t17 -58t40 -26.5q57 0 92 157h107q-61 -274 -213 -274q-41 0 -63.5 26.5t-27 58.5t-17.5 58.5t-40 26.5q-57 0 -92 -158h-104z " />
<glyph unicode="&#xc4;" horiz-adv-x="815" d="M-104 0l579 1366h246l-23 -1366h-213l15 279h-273l-106 -279h-225zM295 467h219l35 655zM381 1581q0 47 38 84t87 37q41 0 69.5 -27.5t28.5 -70.5q0 -47 -38 -84t-87 -37q-41 0 -69.5 27.5t-28.5 70.5zM694 1581q0 47 38 84t87 37q41 0 70 -27.5t29 -70.5q0 -47 -38 -84 t-87 -37q-41 0 -70 27.5t-29 70.5z" />
<glyph unicode="&#xc5;" horiz-adv-x="815" d="M-104 0l579 1366h246l-23 -1366h-213l15 279h-273l-106 -279h-225zM295 467h219l35 655zM471 1577q0 78 59.5 138.5t137.5 60.5q70 0 113.5 -46.5t43.5 -115.5q0 -78 -59 -137.5t-137 -59.5q-70 0 -114 45t-44 115zM563 1587q0 -35 21.5 -57.5t54.5 -22.5q39 0 68.5 30 t29.5 69q0 35 -21 57q-22 23 -54 23q-39 0 -69 -30t-30 -69z" />
<glyph unicode="&#xc6;" horiz-adv-x="1196" d="M-92 0l754 1366h651l-41 -188h-344l-86 -387h332l-44 -189h-331l-90 -414h344l-41 -188h-559l61 279h-238l-143 -279h-225zM371 467h186l139 633z" />
<glyph unicode="&#xc7;" horiz-adv-x="843" d="M70 389q0 100 18 223t62.5 261.5t105.5 252t158.5 188.5t212.5 75q150 0 222.5 -101.5t80.5 -257.5l-199 -39q-14 207 -119 207q-74 0 -138 -96t-102 -232.5t-60.5 -267.5t-22.5 -219q0 -217 114 -217q90 0 181 170l170 -74q-139 -285 -361 -287l-53 -86q20 20 49 21 q45 0 74 -33t29 -84q0 -80 -58.5 -134t-142.5 -54q-113 0 -180 78l57 79q49 -66 125 -65q41 0 66.5 26.5t25.5 63.5q0 49 -47 49q-31 0 -53 -26l-68 43l80 135q-227 61 -227 401z" />
<glyph unicode="&#xc8;" horiz-adv-x="751" d="M6 0l301 1366h559l-41 -188h-346l-86 -387h332l-43 -189h-330l-92 -414h346l-41 -188h-559zM471 1786h174l96 -295h-123z" />
<glyph unicode="&#xc9;" horiz-adv-x="751" d="M6 0l301 1366h559l-41 -188h-346l-86 -387h332l-43 -189h-330l-92 -414h346l-41 -188h-559zM500 1491l227 295h178l-276 -295h-129z" />
<glyph unicode="&#xca;" horiz-adv-x="751" d="M6 0l301 1366h559l-41 -188h-346l-86 -387h332l-43 -189h-330l-92 -414h346l-41 -188h-559zM395 1491l197 295h178l72 -295h-107l-73 201l-152 -201h-115z" />
<glyph unicode="&#xcb;" horiz-adv-x="751" d="M6 0l301 1366h559l-41 -188h-346l-86 -387h332l-43 -189h-330l-92 -414h346l-41 -188h-559zM373 1581q0 47 38 84t87 37q41 0 69.5 -27.5t28.5 -70.5q0 -47 -38 -84t-87 -37q-41 0 -69.5 27.5t-28.5 70.5zM686 1581q0 47 38 84t87 37q41 0 69.5 -27.5t28.5 -70.5 q0 -47 -37.5 -84t-87.5 -37q-41 0 -69.5 27.5t-28.5 70.5z" />
<glyph unicode="&#xcc;" horiz-adv-x="446" d="M6 0l301 1366h213l-301 -1366h-213zM291 1786h174l96 -295h-123z" />
<glyph unicode="&#xcd;" horiz-adv-x="446" d="M6 0l301 1366h213l-301 -1366h-213zM324 1491l227 295h178l-276 -295h-129z" />
<glyph unicode="&#xce;" horiz-adv-x="446" d="M6 0l301 1366h213l-301 -1366h-213zM221 1491l197 295h178l72 -295h-107l-74 201l-151 -201h-115z" />
<glyph unicode="&#xcf;" horiz-adv-x="446" d="M6 0l301 1366h213l-301 -1366h-213zM201 1579q0 47 37.5 84t87.5 37q41 0 69.5 -27.5t28.5 -70.5q0 -47 -38 -84t-87 -37q-41 0 -69.5 27.5t-28.5 70.5zM514 1579q0 47 38 84t87 37q41 0 69.5 -27.5t28.5 -70.5q0 -47 -37.5 -84t-87.5 -37q-41 0 -69.5 27.5t-28.5 70.5z " />
<glyph unicode="&#xd0;" horiz-adv-x="974" d="M49 0l131 596h-123l39 174h123l131 596h299q133 0 227.5 -110.5t94.5 -319.5q0 -68 -12.5 -156t-39 -196.5t-74.5 -209t-112.5 -186.5t-162 -137t-214.5 -51h-307zM303 188h90q92 0 166 91.5t113 221.5t59.5 244.5t20.5 188.5q0 123 -41 183.5t-103 60.5h-86l-90 -408 h156l-39 -174h-156z" />
<glyph unicode="&#xd1;" horiz-adv-x="948" d="M6 0l301 1366h213l101 -852l188 852h215l-301 -1366h-203l-108 879l-193 -879h-213zM442 1499q61 274 209 275q43 0 65.5 -27t27 -58.5t17.5 -58t40 -26.5q57 0 92 157h106q-61 -274 -213 -274q-41 0 -63.5 26.5t-26.5 58.5t-17 58.5t-40 26.5q-57 0 -92 -158h-105z" />
<glyph unicode="&#xd2;" horiz-adv-x="940" d="M70 389q0 127 32.5 288t95 324.5t176 275.5t253.5 112q160 0 240.5 -117t80.5 -301q0 -96 -19.5 -220t-63.5 -261.5t-105.5 -251t-158.5 -188.5t-210 -75q-162 0 -241.5 115t-79.5 299zM289 383q0 -217 114 -217q94 0 173 157.5t116 341t37 312.5q0 221 -117 221 q-94 0 -173 -158.5t-114.5 -342t-35.5 -314.5zM537 1786h174l96 -295h-123z" />
<glyph unicode="&#xd3;" horiz-adv-x="940" d="M70 389q0 127 32.5 288t95 324.5t176 275.5t253.5 112q160 0 240.5 -117t80.5 -301q0 -96 -19.5 -220t-63.5 -261.5t-105.5 -251t-158.5 -188.5t-210 -75q-162 0 -241.5 115t-79.5 299zM289 383q0 -217 114 -217q94 0 173 157.5t116 341t37 312.5q0 221 -117 221 q-94 0 -173 -158.5t-114.5 -342t-35.5 -314.5zM567 1491l228 295h178l-277 -295h-129z" />
<glyph unicode="&#xd4;" horiz-adv-x="940" d="M70 389q0 127 32.5 288t95 324.5t176 275.5t253.5 112q160 0 240.5 -117t80.5 -301q0 -96 -19.5 -220t-63.5 -261.5t-105.5 -251t-158.5 -188.5t-210 -75q-162 0 -241.5 115t-79.5 299zM289 383q0 -217 114 -217q94 0 173 157.5t116 341t37 312.5q0 221 -117 221 q-94 0 -173 -158.5t-114.5 -342t-35.5 -314.5zM469 1491l197 295h178l71 -295h-106l-74 201l-151 -201h-115z" />
<glyph unicode="&#xd5;" horiz-adv-x="940" d="M70 389q0 127 32.5 288t95 324.5t176 275.5t253.5 112q160 0 240.5 -117t80.5 -301q0 -96 -19.5 -220t-63.5 -261.5t-105.5 -251t-158.5 -188.5t-210 -75q-162 0 -241.5 115t-79.5 299zM289 383q0 -217 114 -217q94 0 173 157.5t116 341t37 312.5q0 221 -117 221 q-94 0 -173 -158.5t-114.5 -342t-35.5 -314.5zM444 1499q61 274 209 275q43 0 65.5 -27t27 -58.5t17.5 -58t40 -26.5q57 0 92 157h106q-61 -274 -213 -274q-41 0 -63.5 26.5t-26.5 58.5t-17 58.5t-40 26.5q-57 0 -92 -158h-105z" />
<glyph unicode="&#xd6;" horiz-adv-x="940" d="M70 389q0 127 32.5 288t95 324.5t176 275.5t253.5 112q160 0 240.5 -117t80.5 -301q0 -96 -19.5 -220t-63.5 -261.5t-105.5 -251t-158.5 -188.5t-210 -75q-162 0 -241.5 115t-79.5 299zM289 383q0 -217 114 -217q94 0 173 157.5t116 341t37 312.5q0 221 -117 221 q-94 0 -173 -158.5t-114.5 -342t-35.5 -314.5zM442 1581q0 47 38 84t87 37q41 0 70 -27.5t29 -70.5q0 -47 -38 -84t-87 -37q-41 0 -70 27.5t-29 70.5zM756 1581q0 47 37.5 84t87.5 37q41 0 69.5 -27.5t28.5 -70.5q0 -47 -38 -84t-87 -37q-41 0 -69.5 27.5t-28.5 70.5z" />
<glyph unicode="&#xd7;" horiz-adv-x="780" d="M78 477l264 215l-162 207l101 82l159 -207l265 215l77 -98l-262 -215l160 -207l-100 -82l-162 207l-262 -215z" />
<glyph unicode="&#xd8;" horiz-adv-x="940" d="M-14 0l118 176q-35 86 -34.5 213t33 288t95 324.5t176 275.5t253.5 112q141 0 227 -101l51 78h131l-123 -182q35 -98 35 -213q0 -96 -19.5 -220t-63.5 -261.5t-105.5 -251t-158.5 -188.5t-210 -75q-143 0 -227 97l-47 -72h-131zM291 453l428 637q-27 109 -107 108 q-66 0 -125 -79t-98 -197.5t-64.5 -240.5t-33.5 -228zM299 270q23 -104 104 -104q86 0 160 134t112 296t50 307z" />
<glyph unicode="&#xd9;" horiz-adv-x="950" d="M80 293q0 45 10 92l217 981h213l-221 -999q-6 -43 -6 -66q0 -66 34.5 -101.5t92.5 -35.5q66 0 106.5 47t65.5 156l219 999h213l-217 -989q-90 -401 -404 -402q-141 0 -232 86.5t-91 231.5zM545 1786h174l96 -295h-123z" />
<glyph unicode="&#xda;" horiz-adv-x="950" d="M80 293q0 45 10 92l217 981h213l-221 -999q-6 -43 -6 -66q0 -66 34.5 -101.5t92.5 -35.5q66 0 106.5 47t65.5 156l219 999h213l-217 -989q-90 -401 -404 -402q-141 0 -232 86.5t-91 231.5zM573 1491l228 295h178l-277 -295h-129z" />
<glyph unicode="&#xdb;" horiz-adv-x="950" d="M80 293q0 45 10 92l217 981h213l-221 -999q-6 -43 -6 -66q0 -66 34.5 -101.5t92.5 -35.5q66 0 106.5 47t65.5 156l219 999h213l-217 -989q-90 -401 -404 -402q-141 0 -232 86.5t-91 231.5zM473 1491l197 295h178l72 -295h-107l-74 201l-151 -201h-115z" />
<glyph unicode="&#xdc;" horiz-adv-x="950" d="M80 293q0 45 10 92l217 981h213l-221 -999q-6 -43 -6 -66q0 -66 34.5 -101.5t92.5 -35.5q66 0 106.5 47t65.5 156l219 999h213l-217 -989q-90 -401 -404 -402q-141 0 -232 86.5t-91 231.5zM449 1581q0 47 37.5 84t86.5 37q41 0 70 -27.5t29 -70.5q0 -47 -38 -84t-87 -37 q-41 0 -69.5 27.5t-28.5 70.5zM762 1581q0 47 38 84t87 37q41 0 69.5 -27.5t28.5 -70.5q0 -47 -38 -84t-87 -37q-41 0 -69.5 27.5t-28.5 70.5z" />
<glyph unicode="&#xdd;" horiz-adv-x="829" d="M184 1366h219l64 -584l324 584h235l-489 -795l-125 -571h-213l125 571zM518 1491l227 295h179l-277 -295h-129z" />
<glyph unicode="&#xde;" horiz-adv-x="856" d="M6 0l301 1366h213l-51 -236h88q133 0 217 -92t84 -237q0 -90 -27.5 -178t-81 -165t-145.5 -124t-209 -47h-112l-64 -287h-213zM324 475h90q100 0 160.5 92t60.5 213q0 76 -34 119t-93 43h-82z" />
<glyph unicode="&#xdf;" horiz-adv-x="1001" d="M8 0l225 1028q37 164 138.5 261t255.5 97q137 0 230 -74.5t93 -191.5q0 -84 -45 -148.5t-98 -96t-98 -75.5t-45 -93q0 -37 27.5 -71t65.5 -62.5t76.5 -62.5t66.5 -87t28 -119q0 -127 -90 -228.5t-234 -101.5q-197 0 -293 138l103 125q68 -106 170 -107q53 0 94 42t41 106 q0 37 -25.5 70.5t-62.5 63t-74 63.5t-62.5 84t-25.5 112q0 72 28.5 127t70.5 89t84 62.5t71 65.5t29 84q0 53 -38 85t-104 32q-141 0 -184 -189l-227 -1028h-191z" />
<glyph unicode="&#xe0;" horiz-adv-x="831" d="M37 281q0 100 24.5 222t70.5 238.5t124 194.5t172 78q147 0 190 -158l29 133h191l-220 -989h-192l29 123q-92 -147 -209 -148q-102 0 -155.5 78t-53.5 228zM236 303q0 -158 104 -158q39 0 81 40t68 98l95 422q-6 59 -39 99t-76 40q-72 0 -129 -105.5t-80.5 -225.5 t-23.5 -210zM367 1434h174l96 -295h-123z" />
<glyph unicode="&#xe1;" horiz-adv-x="831" d="M37 281q0 100 24.5 222t70.5 238.5t124 194.5t172 78q147 0 190 -158l29 133h191l-220 -989h-192l29 123q-92 -147 -209 -148q-102 0 -155.5 78t-53.5 228zM236 303q0 -158 104 -158q39 0 81 40t68 98l95 422q-6 59 -39 99t-76 40q-72 0 -129 -105.5t-80.5 -225.5 t-23.5 -210zM397 1139l228 295h178l-277 -295h-129z" />
<glyph unicode="&#xe2;" horiz-adv-x="831" d="M37 281q0 100 24.5 222t70.5 238.5t124 194.5t172 78q147 0 190 -158l29 133h191l-220 -989h-192l29 123q-92 -147 -209 -148q-102 0 -155.5 78t-53.5 228zM236 303q0 -158 104 -158q39 0 81 40t68 98l95 422q-6 59 -39 99t-76 40q-72 0 -129 -105.5t-80.5 -225.5 t-23.5 -210zM295 1139l197 295h178l71 -295h-106l-74 200l-151 -200h-115z" />
<glyph unicode="&#xe3;" horiz-adv-x="831" d="M37 281q0 100 24.5 222t70.5 238.5t124 194.5t172 78q147 0 190 -158l29 133h191l-220 -989h-192l29 123q-92 -147 -209 -148q-102 0 -155.5 78t-53.5 228zM236 303q0 -158 104 -158q39 0 81 40t68 98l95 422q-6 59 -39 99t-76 40q-72 0 -129 -105.5t-80.5 -225.5 t-23.5 -210zM268 1147q61 274 209 274q43 0 65.5 -26.5t26.5 -58t17.5 -58.5t40.5 -27q57 0 92 158h106q-61 -274 -213 -274q-41 0 -63.5 26.5t-26.5 58t-17 58.5t-40 27q-57 0 -92 -158h-105z" />
<glyph unicode="&#xe4;" horiz-adv-x="831" d="M37 281q0 100 24.5 222t70.5 238.5t124 194.5t172 78q147 0 190 -158l29 133h191l-220 -989h-192l29 123q-92 -147 -209 -148q-102 0 -155.5 78t-53.5 228zM236 303q0 -158 104 -158q39 0 81 40t68 98l95 422q-6 59 -39 99t-76 40q-72 0 -129 -105.5t-80.5 -225.5 t-23.5 -210zM270 1231q0 47 38 84t87 37q41 0 70 -28t29 -71q0 -47 -38 -83.5t-87 -36.5q-41 0 -70 27.5t-29 70.5zM584 1231q0 47 37.5 84t87.5 37q41 0 69.5 -28t28.5 -71q0 -47 -38 -83.5t-87 -36.5q-41 0 -69.5 27.5t-28.5 70.5z" />
<glyph unicode="&#xe5;" horiz-adv-x="831" d="M37 281q0 100 24.5 222t70.5 238.5t124 194.5t172 78q147 0 190 -158l29 133h191l-220 -989h-192l29 123q-92 -147 -209 -148q-102 0 -155.5 78t-53.5 228zM236 303q0 -158 104 -158q39 0 81 40t68 98l95 422q-6 59 -39 99t-76 40q-72 0 -129 -105.5t-80.5 -225.5 t-23.5 -210zM367 1274q0 78 59 138.5t137 60.5q70 0 114 -46.5t44 -115.5q0 -78 -59.5 -137.5t-137.5 -59.5q-70 0 -113.5 45t-43.5 115zM459 1284q0 -35 21.5 -57.5t54.5 -22.5q39 0 68.5 30t29.5 69q0 35 -21.5 57t-54.5 22q-39 0 -68.5 -29.5t-29.5 -68.5z" />
<glyph unicode="&#xe6;" horiz-adv-x="1282" d="M37 281q0 100 24.5 222t70.5 238.5t125 194.5t173 78q145 0 188 -158l29 133h191l-27 -119q102 143 217 144q219 0 219 -309q0 -137 -39 -273h-489q-12 -59 -12 -108q0 -82 43 -135.5t129 -53.5t170 98l71 -133q-109 -125 -239 -125q-186 0 -226 193l-37 -168h-190 l27 123q-88 -147 -209 -148q-102 0 -155.5 78t-53.5 228zM236 303q0 -158 104 -158q41 0 82 40t70 98l94 422q-8 61 -40 100t-77 39q-72 0 -128 -105.5t-80.5 -225.5t-24.5 -210zM745 569h312q14 76 14 123q0 74 -29.5 119t-85.5 45q-82 0 -136.5 -88t-74.5 -199z" />
<glyph unicode="&#xe7;" horiz-adv-x="681" d="M43 332q0 152 50 304t157.5 265t245.5 113q152 0 231 -101l-96 -143q-41 74 -123 74q-80 0 -143.5 -88t-93 -200t-29.5 -210q0 -201 147 -201q68 0 123 60l39 -152q-86 -78 -203 -78l-53 -86q20 20 49 21q45 0 73.5 -33t28.5 -84q0 -80 -58 -134t-142 -54q-113 0 -180 78 l57 79q49 -66 125 -65q41 0 66.5 26.5t25.5 63.5q0 49 -47 49q-31 0 -53 -26l-68 43l80 135q-209 57 -209 344z" />
<glyph unicode="&#xe8;" horiz-adv-x="800" d="M41 334q0 70 15.5 155.5t51 179t86 170t126 126t163.5 49.5q283 0 283 -324q0 -102 -39 -258h-494q-12 -59 -12 -108q0 -82 41 -136.5t129 -54.5q90 0 172 96l74 -118q-119 -135 -279 -136q-150 0 -233.5 92.5t-83.5 266.5zM260 569h305h8q16 66 17 123q0 72 -32 118 t-89 46q-82 0 -135.5 -88t-73.5 -199zM403 1434h175l96 -295h-123z" />
<glyph unicode="&#xe9;" horiz-adv-x="800" d="M41 334q0 70 15.5 155.5t51 179t86 170t126 126t163.5 49.5q283 0 283 -324q0 -102 -39 -258h-494q-12 -59 -12 -108q0 -82 41 -136.5t129 -54.5q90 0 172 96l74 -118q-119 -135 -279 -136q-150 0 -233.5 92.5t-83.5 266.5zM260 569h305h8q16 66 17 123q0 72 -32 118 t-89 46q-82 0 -135.5 -88t-73.5 -199zM434 1139l228 295h178l-277 -295h-129z" />
<glyph unicode="&#xea;" horiz-adv-x="800" d="M41 334q0 70 15.5 155.5t51 179t86 170t126 126t163.5 49.5q283 0 283 -324q0 -102 -39 -258h-494q-12 -59 -12 -108q0 -82 41 -136.5t129 -54.5q90 0 172 96l74 -118q-119 -135 -279 -136q-150 0 -233.5 92.5t-83.5 266.5zM260 569h305h8q16 66 17 123q0 72 -32 118 t-89 46q-82 0 -135.5 -88t-73.5 -199zM328 1139l196 295h178l72 -295h-106l-74 200l-152 -200h-114z" />
<glyph unicode="&#xeb;" horiz-adv-x="800" d="M41 334q0 70 15.5 155.5t51 179t86 170t126 126t163.5 49.5q283 0 283 -324q0 -102 -39 -258h-494q-12 -59 -12 -108q0 -82 41 -136.5t129 -54.5q90 0 172 96l74 -118q-119 -135 -279 -136q-150 0 -233.5 92.5t-83.5 266.5zM260 569h305h8q16 66 17 123q0 72 -32 118 t-89 46q-82 0 -135.5 -88t-73.5 -199zM301 1231q0 47 38 84t87 37q41 0 69.5 -28t28.5 -71q0 -47 -37.5 -83.5t-87.5 -36.5q-41 0 -69.5 27.5t-28.5 70.5zM614 1231q0 47 38 84t87 37q41 0 70 -28t29 -71q0 -47 -38 -83.5t-87 -36.5q-41 0 -70 27.5t-29 70.5z" />
<glyph unicode="&#xec;" horiz-adv-x="397" d="M-8 0l219 989h192l-219 -989h-192zM188 1434h174l97 -295h-123z" />
<glyph unicode="&#xed;" horiz-adv-x="397" d="M-8 0l219 989h192l-219 -989h-192zM217 1139l227 295h179l-277 -295h-129z" />
<glyph unicode="&#xee;" horiz-adv-x="397" d="M-8 0l219 989h192l-219 -989h-192zM119 1139l196 295h179l71 -295h-106l-74 200l-152 -200h-114z" />
<glyph unicode="&#xef;" horiz-adv-x="397" d="M-8 0l219 989h192l-219 -989h-192zM94 1231q0 47 38 84t87 37q41 0 69.5 -28t28.5 -71q0 -47 -37.5 -83.5t-86.5 -36.5q-41 0 -70 27.5t-29 70.5zM408 1231q0 47 37.5 84t86.5 37q41 0 70 -28t29 -71q0 -47 -38 -83.5t-87 -36.5q-41 0 -69.5 27.5t-28.5 70.5z" />
<glyph unicode="&#xf0;" d="M39 317q0 137 45 282.5t139 256.5t213 111q72 0 119 -42t61 -114q-4 141 -24 291l-211 -64l-23 99l215 63q-20 106 -45 166l191 59q27 -82 47 -168l143 43l23 -96l-146 -45q20 -123 21 -291q0 -141 -25.5 -288.5t-78 -286.5t-146.5 -228.5t-215 -89.5q-152 0 -227.5 90 t-75.5 252zM236 315q0 -170 110 -170q51 0 97 54.5t74 133.5t43 158.5t15 141.5q0 66 -26.5 115t-85.5 49q-70 0 -124 -93.5t-78.5 -201t-24.5 -187.5z" />
<glyph unicode="&#xf1;" d="M-8 0l219 989h192l-28 -127q111 152 246 152q80 0 126 -43t46 -117q0 -37 -9 -61l-174 -793h-192l162 727q6 37 6 45q0 72 -70 72q-47 0 -95 -43t-83 -105l-154 -696h-192zM309 1147q61 274 209 274q43 0 65.5 -26.5t26.5 -58t17.5 -58.5t40.5 -27q57 0 92 158h106 q-61 -274 -213 -274q-41 0 -63.5 26.5t-26.5 58t-17.5 58.5t-39.5 27q-57 0 -92 -158h-105z" />
<glyph unicode="&#xf2;" d="M41 319q0 152 48 306.5t153.5 271.5t242.5 117q141 0 217 -88t76 -256q0 -152 -48 -306.5t-153.5 -271.5t-242.5 -117q-141 0 -217 89t-76 255zM236 315q0 -170 110 -170q72 0 129 101.5t83 219.5t26 206q0 172 -109 172q-72 0 -130 -101.5t-83.5 -220.5t-25.5 -207z M401 1434h174l97 -295h-123z" />
<glyph unicode="&#xf3;" d="M41 319q0 152 48 306.5t153.5 271.5t242.5 117q141 0 217 -88t76 -256q0 -152 -48 -306.5t-153.5 -271.5t-242.5 -117q-141 0 -217 89t-76 255zM236 315q0 -170 110 -170q72 0 129 101.5t83 219.5t26 206q0 172 -109 172q-72 0 -130 -101.5t-83.5 -220.5t-25.5 -207z M432 1139l227 295h179l-277 -295h-129z" />
<glyph unicode="&#xf4;" d="M41 319q0 152 48 306.5t153.5 271.5t242.5 117q141 0 217 -88t76 -256q0 -152 -48 -306.5t-153.5 -271.5t-242.5 -117q-141 0 -217 89t-76 255zM236 315q0 -170 110 -170q72 0 129 101.5t83 219.5t26 206q0 172 -109 172q-72 0 -130 -101.5t-83.5 -220.5t-25.5 -207z M332 1139l196 295h179l71 -295h-106l-74 200l-152 -200h-114z" />
<glyph unicode="&#xf5;" d="M41 319q0 152 48 306.5t153.5 271.5t242.5 117q141 0 217 -88t76 -256q0 -152 -48 -306.5t-153.5 -271.5t-242.5 -117q-141 0 -217 89t-76 255zM236 315q0 -170 110 -170q72 0 129 101.5t83 219.5t26 206q0 172 -109 172q-72 0 -130 -101.5t-83.5 -220.5t-25.5 -207z M305 1147q61 274 209 274q43 0 65.5 -26.5t26.5 -58t17.5 -58.5t40.5 -27q57 0 92 158h106q-61 -274 -213 -274q-41 0 -63.5 26.5t-26.5 58t-17.5 58.5t-39.5 27q-57 0 -92 -158h-105z" />
<glyph unicode="&#xf6;" d="M41 319q0 152 48 306.5t153.5 271.5t242.5 117q141 0 217 -88t76 -256q0 -152 -48 -306.5t-153.5 -271.5t-242.5 -117q-141 0 -217 89t-76 255zM236 315q0 -170 110 -170q72 0 129 101.5t83 219.5t26 206q0 172 -109 172q-72 0 -130 -101.5t-83.5 -220.5t-25.5 -207z M307 1231q0 47 38 84t87 37q41 0 69.5 -28t28.5 -71q0 -47 -37.5 -83.5t-86.5 -36.5q-41 0 -70 27.5t-29 70.5zM621 1231q0 47 37.5 84t86.5 37q41 0 70 -28t29 -71q0 -47 -38 -83.5t-87 -36.5q-41 0 -69.5 27.5t-28.5 70.5z" />
<glyph unicode="&#xf7;" horiz-adv-x="765" d="M88 627l27 127h647l-27 -127h-647zM254 383q0 47 34 81t81 34q41 0 68.5 -28t27.5 -69q0 -47 -34 -79.5t-81 -32.5q-41 0 -68.5 27.5t-27.5 66.5zM387 975q0 47 34 79.5t81 32.5q39 0 66.5 -27.5t27.5 -68.5q0 -47 -34 -79.5t-81 -32.5q-39 0 -66.5 27.5t-27.5 68.5z" />
<glyph unicode="&#xf8;" d="M-33 0l105 135q-31 78 -31 184q0 152 48 306.5t153.5 271.5t242.5 117q133 0 207 -78l43 53h119l-109 -139q33 -78 33 -180q0 -152 -48 -306.5t-153.5 -271.5t-242.5 -117q-133 0 -207 78l-41 -53h-119zM236 346l333 428q-25 70 -94 70q-98 0 -163.5 -167t-75.5 -331z M250 211q25 -66 96 -66q96 0 161.5 168t74.5 326z" />
<glyph unicode="&#xf9;" d="M29 135q0 37 8 62l174 792h192l-161 -727q-6 -43 -6 -45q0 -72 69 -72q92 0 176 142l156 702h192l-219 -989h-192l28 127q-111 -152 -245 -152q-80 0 -126 43t-46 117zM403 1434h175l96 -295h-123z" />
<glyph unicode="&#xfa;" d="M29 135q0 37 8 62l174 792h192l-161 -727q-6 -43 -6 -45q0 -72 69 -72q92 0 176 142l156 702h192l-219 -989h-192l28 127q-111 -152 -245 -152q-80 0 -126 43t-46 117zM432 1139l227 295h179l-277 -295h-129z" />
<glyph unicode="&#xfb;" d="M29 135q0 37 8 62l174 792h192l-161 -727q-6 -43 -6 -45q0 -72 69 -72q92 0 176 142l156 702h192l-219 -989h-192l28 127q-111 -152 -245 -152q-80 0 -126 43t-46 117zM332 1139l196 295h179l71 -295h-106l-74 200l-152 -200h-114z" />
<glyph unicode="&#xfc;" d="M29 135q0 37 8 62l174 792h192l-161 -727q-6 -43 -6 -45q0 -72 69 -72q92 0 176 142l156 702h192l-219 -989h-192l28 127q-111 -152 -245 -152q-80 0 -126 43t-46 117zM311 1231q0 47 38 84t87 37q41 0 70 -28t29 -71q0 -47 -38 -83.5t-87 -36.5q-41 0 -70 27.5t-29 70.5 zM625 1231q0 47 37.5 84t87.5 37q41 0 69.5 -28t28.5 -71q0 -47 -38 -83.5t-87 -36.5q-41 0 -69.5 27.5t-28.5 70.5z" />
<glyph unicode="&#xfd;" horiz-adv-x="731" d="M-117 -379l64 160q12 -12 47 -12q51 0 90 79l63 132l-28 1009h198l-16 -745l320 745h208l-565 -1182q-59 -119 -116.5 -163.5t-139.5 -44.5q-72 -1 -125 22zM385 1139l227 295h179l-277 -295h-129z" />
<glyph unicode="&#xfe;" horiz-adv-x="831" d="M-90 -377l383 1743h192l-110 -500q92 147 209 148q102 0 155.5 -78t53.5 -227q0 -100 -25 -222t-71 -239t-123.5 -195t-172.5 -78q-145 0 -188 158l-113 -510h-190zM246 285q6 -59 38.5 -99.5t77.5 -40.5q72 0 128.5 105.5t80 225.5t23.5 210q0 158 -105 158 q-39 0 -80.5 -40t-68.5 -97z" />
<glyph unicode="&#xff;" horiz-adv-x="731" d="M-117 -379l64 160q12 -12 47 -12q51 0 90 79l63 132l-28 1009h198l-16 -745l320 745h208l-565 -1182q-59 -119 -116.5 -163.5t-139.5 -44.5q-72 -1 -125 22zM260 1231q0 47 38 84t87 37q41 0 69.5 -28t28.5 -71q0 -47 -37.5 -83.5t-87.5 -36.5q-41 0 -69.5 27.5 t-28.5 70.5zM573 1231q0 47 38 84t87 37q41 0 70 -28t29 -71q0 -47 -38 -83.5t-87 -36.5q-41 0 -70 27.5t-29 70.5z" />
<glyph unicode="&#x152;" horiz-adv-x="1261" d="M68 389q0 131 34.5 295t100 324.5t177.5 269t245 108.5q57 0 105 -31.5t65 -105.5l24 117h559l-41 -188h-344l-86 -387h332l-43 -189h-332l-90 -414h344l-41 -188h-559l25 117q-90 -141 -219 -142q-119 0 -187.5 110.5t-68.5 303.5zM287 383q0 -217 108 -217 q53 0 108.5 56.5t98.5 156.5l135 608q-6 209 -114 209q-78 0 -145.5 -92t-106.5 -226.5t-61.5 -266.5t-22.5 -228z" />
<glyph unicode="&#x153;" horiz-adv-x="1294" d="M41 319q0 160 50 316t153.5 267.5t236.5 111.5q178 0 230 -195q104 195 272 195q279 0 279 -324q0 -119 -39 -258h-488q-10 -41 -10 -108q0 -190 164 -191q86 0 170 98l74 -120q-123 -135 -275 -136q-209 0 -248 201q-123 -201 -280 -201q-143 0 -216 89t-73 255z M236 315q0 -170 106 -170q55 0 101 59.5t74 146.5t43 173t15 148q0 172 -106 172q-72 0 -128 -99.5t-80.5 -217.5t-24.5 -212zM764 569h305q16 57 16 123q0 164 -116 164q-82 0 -133.5 -86t-71.5 -201z" />
<glyph unicode="&#x178;" horiz-adv-x="829" d="M184 1366h219l64 -584l324 584h235l-489 -795l-125 -571h-213l125 571zM393 1581q0 47 38 84t87 37q41 0 69.5 -27.5t28.5 -70.5q0 -47 -37.5 -84t-86.5 -37q-41 0 -70 27.5t-29 70.5zM707 1581q0 47 37.5 84t86.5 37q41 0 70 -27.5t29 -70.5q0 -47 -38 -84t-87 -37 q-41 0 -69.5 27.5t-28.5 70.5z" />
<glyph unicode="&#x2c6;" horiz-adv-x="444" d="M141 1139l197 295h178l72 -295h-107l-73 200l-152 -200h-115z" />
<glyph unicode="&#x2dc;" horiz-adv-x="497" d="M143 1147q61 274 209 274q43 0 65.5 -26.5t27 -58t17.5 -58.5t40 -27q57 0 92 158h106q-61 -274 -213 -274q-41 0 -63.5 26.5t-26.5 58t-17 58.5t-40 27q-57 0 -92 -158h-105z" />
<glyph unicode="&#x2013;" horiz-adv-x="942" d="M41 412l37 168h819l-37 -168h-819z" />
<glyph unicode="&#x2014;" horiz-adv-x="1310" d="M41 412l37 168h1188l-37 -168h-1188z" />
<glyph unicode="&#x2018;" horiz-adv-x="493" d="M223 1028q0 100 76 202.5t184 155.5l74 -75q-59 -31 -111.5 -78t-70.5 -94h18q41 0 71 -30t30 -77q0 -57 -44 -99t-100 -42q-53 0 -90 35.5t-37 101.5z" />
<glyph unicode="&#x2019;" horiz-adv-x="493" d="M217 967q59 31 111.5 78t70.5 94h-18q-41 0 -70.5 29.5t-29.5 76.5q0 57 44 99t99 42q53 0 90 -35.5t37 -99.5q0 -102 -76 -204.5t-184 -155.5z" />
<glyph unicode="&#x201a;" horiz-adv-x="493" d="M-37 -176q59 29 111.5 76t70.5 96q-2 -2 -18 -2q-41 0 -70.5 29.5t-29.5 76.5q0 57 44 99.5t99 42.5q53 0 90 -36t37 -100q0 -102 -76 -204.5t-184 -155.5z" />
<glyph unicode="&#x201c;" horiz-adv-x="851" d="M227 1028q0 100 76 202.5t184 155.5l72 -75q-59 -31 -111.5 -78t-70.5 -94h18q43 0 73 -30t30 -77q0 -57 -44 -99t-100 -42q-53 0 -90 35.5t-37 101.5zM584 1028q0 100 75.5 202.5t184.5 155.5l74 -75q-59 -31 -111.5 -78t-71.5 -94h19q41 0 70.5 -30t29.5 -77 q0 -57 -44 -99t-99 -42q-53 0 -90 35.5t-37 101.5z" />
<glyph unicode="&#x201d;" horiz-adv-x="851" d="M217 967q59 31 111.5 78t70.5 94h-18q-41 0 -70.5 29.5t-29.5 76.5q0 57 44 99t99 42q53 0 90 -35.5t37 -99.5q0 -102 -76 -204.5t-184 -155.5zM575 967q59 31 111.5 78t71.5 94h-19q-43 0 -72.5 29.5t-29.5 76.5q0 57 44 99t99 42q53 0 90 -35.5t37 -99.5 q0 -102 -75.5 -204.5t-184.5 -155.5z" />
<glyph unicode="&#x201e;" horiz-adv-x="851" d="M-37 -176q59 29 111.5 76t70.5 96q-2 -2 -18 -2q-41 0 -70.5 29.5t-29.5 76.5q0 57 44 99.5t99 42.5q53 0 90 -36t37 -100q0 -102 -76 -204.5t-184 -155.5zM322 -176q59 29 111 76t71 96q-4 -2 -19 -2q-43 0 -72.5 29.5t-29.5 76.5q0 57 44 99.5t99.5 42.5t91 -36 t35.5 -100q0 -102 -75.5 -204.5t-184.5 -155.5z" />
<glyph unicode="&#x2022;" horiz-adv-x="733" d="M135 475q0 100 77 175t179 75q88 0 147.5 -59.5t59.5 -147.5q0 -100 -77 -175t-179 -75q-88 0 -147.5 59.5t-59.5 147.5z" />
<glyph unicode="&#x2026;" horiz-adv-x="1468" d="M27 98q0 57 42 100.5t101 43.5q51 0 86 -36t35 -85q0 -59 -43 -101.5t-103 -42.5q-51 0 -84.5 35t-33.5 86zM516 98q0 57 43 100.5t100 43.5q51 0 86 -36t35 -85q0 -59 -43 -101.5t-102 -42.5q-51 0 -85 35t-34 86zM1006 98q0 57 42 100.5t101 43.5q51 0 86 -36t35 -85 q0 -59 -43 -101.5t-103 -42.5q-51 0 -84.5 35t-33.5 86z" />
<glyph unicode="&#x2039;" horiz-adv-x="460" d="M59 498l267 362h157l-272 -371l100 -360h-149z" />
<glyph unicode="&#x203a;" horiz-adv-x="460" d="M-23 129l273 371l-100 360h149l102 -368l-266 -363h-158z" />
<glyph unicode="&#x20ac;" horiz-adv-x="874" d="M25 477l28 125h64q6 43 33 164h-60l29 127h67q74 219 191 357.5t280 138.5q150 0 222.5 -101.5t81.5 -257.5l-199 -39q-14 207 -119 207q-131 0 -233 -305h231l-29 -127h-239q-25 -111 -33 -164h235l-26 -125h-225q-4 -74 -5 -94q0 -217 115 -217q90 0 180 170l170 -74 q-139 -287 -362 -287q-154 0 -238 107.5t-84 306.5q0 27 4 88h-79z" />
<glyph unicode="&#x2122;" horiz-adv-x="765" d="M213 915l88 398h-86l10 53h230l-11 -53h-86l-88 -398h-57zM430 915l98 451h88l21 -322l160 322h88l-99 -451h-57l82 373l-195 -373h-16l-31 373l-82 -373h-57z" />
<glyph unicode="&#xe000;" horiz-adv-x="990" d="M0 990h990v-990h-990v990z" />
<glyph unicode="&#xfb01;" horiz-adv-x="886" d="M23 0l182 821h-94l39 168h92l26 129q57 268 273 268q72 0 129 -26l-66 -156q-18 12 -43 13q-78 0 -100 -99l-27 -129h129l-39 -168h-127l-182 -821h-192zM481 0l219 989h193l-219 -989h-193zM725 1223q0 61 44 100t95 39q47 0 79 -32t32 -75q0 -61 -44 -99t-95 -38 q-47 0 -79 31t-32 74z" />
<glyph unicode="&#xfb02;" horiz-adv-x="886" d="M23 0l182 821h-94l39 168h92l26 129q57 268 273 268q72 0 129 -26l-66 -156q-18 12 -43 13q-78 0 -100 -99l-27 -129h129l-39 -168h-127l-182 -821h-192zM481 0l301 1366h193l-301 -1366h-193z" />
<glyph unicode="&#xfb03;" horiz-adv-x="1374" d="M23 0l182 821h-94l39 168h92l26 129q57 268 273 268q121 0 174 -59l-84 -147q-25 37 -70 37q-76 0 -100 -99l-27 -129h129l-39 -168h-127l-182 -821h-192zM512 0l182 821h-94l39 168h92l27 129q57 268 272 268q72 0 129 -26l-65 -156q-18 12 -43 13q-78 0 -101 -99 l-26 -129h129l-39 -168h-127l-182 -821h-193zM969 0l219 989h192l-219 -989h-192zM1212 1223q0 61 44 100t96 39q47 0 78.5 -32t31.5 -75q0 -61 -44 -99t-95 -38q-47 0 -79 31t-32 74z" />
<glyph unicode="&#xfb04;" horiz-adv-x="1374" d="M23 0l182 821h-94l39 168h92l26 129q57 268 273 268q121 0 174 -59l-84 -147q-25 37 -70 37q-76 0 -100 -99l-27 -129h129l-39 -168h-127l-182 -821h-192zM512 0l182 821h-94l39 168h92l27 129q57 268 272 268q72 0 129 -26l-65 -156q-18 12 -43 13q-78 0 -101 -99 l-26 -129h129l-39 -168h-127l-182 -821h-193zM969 0l301 1366h192l-301 -1366h-192z" />
</font>
</defs>
</svg>
